<svg width="20" height="20" viewBox="0 0 20 20" fill="none" xmlns="http://www.w3.org/2000/svg">
<path fill-rule="evenodd" clip-rule="evenodd" d="M17.3887 4.42969C17.3887 3.76636 17.1252 3.13001 16.655 2.66114C16.1889 2.19227 15.5526 1.92874 14.8879 1.92874C12.1155 1.92874 7.66522 1.92874 4.89289 1.92874C4.22817 1.92874 3.59184 2.19227 3.12573 2.66114C2.65557 3.13001 2.39209 3.76636 2.39209 4.42969V16.9334C2.39209 17.5967 2.65557 18.2331 3.12573 18.702C3.59184 19.1708 4.22817 19.4344 4.89289 19.4344H14.8879C15.5526 19.4344 16.1889 19.1708 16.655 18.702C17.1252 18.2331 17.3887 17.5967 17.3887 16.9334C17.3887 13.6059 17.3887 7.75717 17.3887 4.42969Z" fill="#FBB800"/>
<path fill-rule="evenodd" clip-rule="evenodd" d="M13.4375 1.25H10.625V0.625C10.625 0.28 10.3438 0 10 0C9.65625 0 9.375 0.28 9.375 0.625V1.25H6.5625V0.625C6.5625 0.28 6.28125 0 5.9375 0C5.59375 0 5.3125 0.28 5.3125 0.625V1.25H5C4.17188 1.25 3.37502 1.57938 2.79064 2.16531C2.20314 2.75125 1.875 3.54625 1.875 4.375V16.875C1.875 17.7038 2.20314 18.4987 2.79064 19.0847C3.37502 19.6706 4.17188 20 5 20H15C15.8281 20 16.625 19.6706 17.2094 19.0847C17.7969 18.4987 18.125 17.7038 18.125 16.875V4.375C18.125 3.54625 17.7969 2.75125 17.2094 2.16531C16.625 1.57938 15.8281 1.25 15 1.25H14.6875V0.625C14.6875 0.28 14.4062 0 14.0625 0C13.7188 0 13.4375 0.28 13.4375 0.625V1.25ZM5.3125 2.5H5C4.50312 2.5 4.025 2.6975 3.675 3.04906C3.32188 3.40094 3.125 3.87781 3.125 4.375V16.875C3.125 17.3722 3.32188 17.8491 3.675 18.2009C4.025 18.5525 4.50312 18.75 5 18.75H15C15.4969 18.75 15.975 18.5525 16.325 18.2009C16.6781 17.8491 16.875 17.3722 16.875 16.875V4.375C16.875 3.87781 16.6781 3.40094 16.325 3.04906C15.975 2.6975 15.4969 2.5 15 2.5H14.6875V3.125C14.6875 3.47 14.4062 3.75 14.0625 3.75C13.7188 3.75 13.4375 3.47 13.4375 3.125V2.5H10.625V3.125C10.625 3.47 10.3438 3.75 10 3.75C9.65625 3.75 9.375 3.47 9.375 3.125V2.5H6.5625V3.125C6.5625 3.47 6.28125 3.75 5.9375 3.75C5.59375 3.75 5.3125 3.47 5.3125 3.125V2.5ZM6.875 14.0625H13.125C13.4688 14.0625 13.75 13.7825 13.75 13.4375C13.75 13.0925 13.4688 12.8125 13.125 12.8125H6.875C6.53125 12.8125 6.25 13.0925 6.25 13.4375C6.25 13.7825 6.53125 14.0625 6.875 14.0625ZM6.875 11.25H13.125C13.4688 11.25 13.75 10.97 13.75 10.625C13.75 10.28 13.4688 10 13.125 10H6.875C6.53125 10 6.25 10.28 6.25 10.625C6.25 10.97 6.53125 11.25 6.875 11.25ZM6.875 8.4375H13.125C13.4688 8.4375 13.75 8.1575 13.75 7.8125C13.75 7.4675 13.4688 7.1875 13.125 7.1875H6.875C6.53125 7.1875 6.25 7.4675 6.25 7.8125C6.25 8.1575 6.53125 8.4375 6.875 8.4375Z" fill="#012030"/>
</svg>
