<svg width="24" height="24" viewBox="0 0 24 24" fill="none" xmlns="http://www.w3.org/2000/svg">
<path d="M21.2625 6.75H18.75V4.9875C18.75 3.8925 17.8575 3 16.7625 3H2.7375C1.6425 3 0.75 3.8925 0.75 4.9875V18C0.75 19.6575 2.0925 21 3.75 21H20.25C21.33 21 22.2825 20.43 22.8075 19.5675C23.085 19.11 23.25 18.57 23.25 18V8.7375C23.25 7.6425 22.3575 6.75 21.2625 6.75ZM3.75 19.5C2.925 19.5 2.25 18.825 2.25 18V4.9875C2.25 4.7175 2.4675 4.5 2.7375 4.5H16.7625C17.0325 4.5 17.25 4.7175 17.25 4.9875V7.5V9V18C17.25 18.5475 17.4 19.0575 17.655 19.5H3.75ZM18.75 18V9V8.25H21.2625C21.5325 8.25 21.75 8.4675 21.75 8.7375V18C21.75 18.825 21.075 19.5 20.25 19.5C19.425 19.5 18.75 18.825 18.75 18Z" fill="black"/>
<path d="M9.75 12H4.5C4.08585 12 3.75 12.3359 3.75 12.75C3.75 13.1641 4.08585 13.5 4.5 13.5H9.75C10.1642 13.5 10.5 13.1641 10.5 12.75C10.5 12.3359 10.1642 12 9.75 12Z" fill="black"/>
<path d="M15 9H4.5C4.08585 9 3.75 9.33585 3.75 9.75C3.75 10.1641 4.08585 10.5 4.5 10.5H15C15.4142 10.5 15.75 10.1641 15.75 9.75C15.75 9.33585 15.4142 9 15 9Z" fill="black"/>
<path d="M15 6H4.5C4.08585 6 3.75 6.33585 3.75 6.75C3.75 7.16415 4.08585 7.5 4.5 7.5H15C15.4142 7.5 15.75 7.16415 15.75 6.75C15.75 6.33585 15.4142 6 15 6Z" fill="black"/>
</svg>
