<svg width="20" height="20" viewBox="0 0 20 20" fill="none" xmlns="http://www.w3.org/2000/svg">
<path fill-rule="evenodd" clip-rule="evenodd" d="M19.403 5.62797C19.403 4.2469 18.2834 3.12718 16.9021 3.12718C13.312 3.12718 6.73647 3.12718 3.1464 3.12718C1.76511 3.12718 0.645508 4.2469 0.645508 5.62797V14.3814C0.645508 15.7625 1.76511 16.8822 3.1464 16.8822H16.9021C18.2834 16.8822 19.403 15.7625 19.403 14.3814C19.403 11.8976 19.403 8.11173 19.403 5.62797Z" fill="#FBB800"/>
<path fill-rule="evenodd" clip-rule="evenodd" d="M20 5.625C20 3.89906 18.6009 2.5 16.875 2.5C13.2866 2.5 6.71344 2.5 3.125 2.5C1.39906 2.5 0 3.89906 0 5.625V14.375C0 16.1009 1.39906 17.5 3.125 17.5H16.875C18.6009 17.5 20 16.1009 20 14.375C20 11.8925 20 8.1075 20 5.625ZM18.75 5.625V14.375C18.75 15.4106 17.9106 16.25 16.875 16.25H3.125C2.08938 16.25 1.25 15.4106 1.25 14.375C1.25 11.8925 1.25 8.1075 1.25 5.625C1.25 4.58938 2.08938 3.75 3.125 3.75H16.875C17.9106 3.75 18.75 4.58938 18.75 5.625ZM6.7725 10.1562L2.68312 14.2456C2.43906 14.4894 2.43906 14.8856 2.68312 15.1294C2.92687 15.3734 3.32313 15.3734 3.56688 15.1294L7.65625 11.04L7.79031 11.1741C9.01062 12.3947 10.9894 12.3947 12.2097 11.1741L12.3438 11.04L16.4331 15.1294C16.6769 15.3734 17.0731 15.3734 17.3169 15.1294C17.5609 14.8856 17.5609 14.4894 17.3169 14.2456L13.2275 10.1562L17.6294 5.75437C17.8734 5.51062 17.8734 5.11438 17.6294 4.87063C17.3856 4.62656 16.9894 4.62656 16.7456 4.87063L11.3259 10.2903C10.5934 11.0225 9.40656 11.0225 8.67406 10.2903L3.25438 4.87063C3.01063 4.62656 2.61437 4.62656 2.37062 4.87063C2.12656 5.11438 2.12656 5.51062 2.37062 5.75437L6.7725 10.1562Z" fill="#012030"/>
</svg>
