<svg width="20" height="20" viewBox="0 0 20 20" fill="none" xmlns="http://www.w3.org/2000/svg">
<g id="Frame" clip-path="url(#clip0_77_3993)">
<g id="Group">
<g id="Group_2">
<path id="Vector" fill-rule="evenodd" clip-rule="evenodd" d="M19.375 6.8749C19.375 6.2119 19.111 5.5762 18.643 5.1073C18.175 4.6384 17.539 4.375 16.876 4.375H6.87399C6.21099 4.375 5.57498 4.6384 5.10698 5.1073C4.63898 5.5762 4.375 6.2119 4.375 6.8749V16.8751C4.375 17.5381 4.63898 18.1738 5.10698 18.6427C5.57498 19.1116 6.21099 19.375 6.87399 19.375H16.876C17.539 19.375 18.175 19.1116 18.643 18.6427C19.111 18.1738 19.375 17.5381 19.375 16.8751V6.8749Z" fill="#FBB800"/>
</g>
<g id="Group_3">
<path id="Vector_2" fill-rule="evenodd" clip-rule="evenodd" d="M17.5 4.9999C17.5 4.3369 17.236 3.7012 16.768 3.2323C16.3 2.7634 15.664 2.5 15.001 2.5H4.99899C4.33599 2.5 3.69998 2.7634 3.23198 3.2323C2.76398 3.7012 2.5 4.3369 2.5 4.9999V15.0001C2.5 15.6631 2.76398 16.2988 3.23198 16.7677C3.69998 17.2366 4.33599 17.5 4.99899 17.5H15.001C15.664 17.5 16.3 17.2366 16.768 16.7677C17.236 16.2988 17.5 15.6631 17.5 15.0001V4.9999Z" fill="#FBB800"/>
</g>
<g id="Group_4">
<path id="Vector_3" fill-rule="evenodd" clip-rule="evenodd" d="M15.625 3.1249C15.625 2.4619 15.361 1.8262 14.893 1.3573C14.425 0.888398 13.789 0.625 13.126 0.625H3.12399C2.46099 0.625 1.82498 0.888398 1.35698 1.3573C0.888982 1.8262 0.625 2.4619 0.625 3.1249V13.1251C0.625 13.7881 0.888982 14.4238 1.35698 14.8927C1.82498 15.3616 2.46099 15.625 3.12399 15.625H13.126C13.789 15.625 14.425 15.3616 14.893 14.8927C15.361 14.4238 15.625 13.7881 15.625 13.1251V3.1249Z" fill="#47BCCB"/>
</g>
<g id="Group_5">
<path id="Vector_4" fill-rule="evenodd" clip-rule="evenodd" d="M0.625 10.625L3.9875 7.26344C4.3375 6.91156 4.81563 6.71407 5.3125 6.71407C5.80937 6.71407 6.2875 6.91156 6.6375 7.26344C7.825 8.44875 9.375 10 9.375 10C9.375 10 9.95 9.42469 10.55 8.82594C10.9 8.47406 11.3781 8.27657 11.875 8.27657C12.3719 8.27657 12.85 8.47406 13.2 8.82594L15.625 11.25V13.125C15.625 13.7881 15.3625 14.4241 14.8938 14.8928C14.425 15.3616 13.7875 15.625 13.125 15.625H3.125C2.4625 15.625 1.82499 15.3616 1.35624 14.8928C0.887489 14.4241 0.625 13.7881 0.625 13.125V10.625Z" fill="#FBB800"/>
</g>
<g id="Group_6">
<path id="Vector_5" d="M9.6875 6.25C10.5504 6.25 11.25 5.55044 11.25 4.6875C11.25 3.82456 10.5504 3.125 9.6875 3.125C8.82456 3.125 8.125 3.82456 8.125 4.6875C8.125 5.55044 8.82456 6.25 9.6875 6.25Z" fill="#FBB800"/>
</g>
<g id="Group_7">
<path id="Vector_6" fill-rule="evenodd" clip-rule="evenodd" d="M2.06249 16.0634C2.21562 16.4903 2.46252 16.8825 2.79064 17.2097C3.11877 17.5369 3.50937 17.7841 3.93749 17.9384C4.09062 18.3653 4.33752 18.7575 4.66564 19.0847C5.25002 19.6706 6.04688 20 6.875 20H16.875C17.7031 20 18.5 19.6706 19.0844 19.0847C19.6719 18.4987 20 17.7038 20 16.875C20 14.1006 20 9.64937 20 6.875C20 6.04625 19.6719 5.25125 19.0844 4.66531C18.7562 4.33813 18.3656 4.09094 17.9375 3.93656C17.7844 3.50969 17.5375 3.1175 17.2094 2.79031C16.8812 2.46313 16.4906 2.21594 16.0625 2.06156C15.9094 1.63469 15.6625 1.2425 15.3344 0.915313C14.75 0.329375 13.9531 0 13.125 0C10.35 0 5.9 0 3.125 0C2.29688 0 1.50002 0.329375 0.915642 0.915313C0.328142 1.50125 0 2.29625 0 3.125V13.125C0 13.9537 0.328142 14.7487 0.915642 15.3347C1.24377 15.6619 1.63437 15.9091 2.06249 16.0634ZM18.125 5.4775V15C18.125 15.8287 17.7969 16.6237 17.2094 17.2097C16.625 17.7956 15.8281 18.125 15 18.125H5.47813C5.50001 18.1509 5.525 18.1762 5.55 18.2009C5.9 18.5525 6.37813 18.75 6.875 18.75H16.875C17.3719 18.75 17.85 18.5525 18.2 18.2009C18.5531 17.8491 18.75 17.3722 18.75 16.875V6.875C18.75 6.37781 18.5531 5.90094 18.2 5.54906C18.175 5.52438 18.15 5.50063 18.125 5.4775ZM16.25 3.6025V13.125C16.25 13.9537 15.9219 14.7487 15.3344 15.3347C14.75 15.9206 13.9531 16.25 13.125 16.25H3.60313C3.62501 16.2759 3.65 16.3012 3.675 16.3259C4.025 16.6775 4.50313 16.875 5 16.875H15C15.4969 16.875 15.975 16.6775 16.325 16.3259C16.6781 15.9741 16.875 15.4972 16.875 15V5C16.875 4.50281 16.6781 4.02594 16.325 3.67406C16.3 3.64938 16.275 3.62562 16.25 3.6025ZM15 11.4787C14.9531 11.4522 14.9094 11.4191 14.8719 11.3794L12.7594 9.26781C12.525 9.03344 12.2063 8.90156 11.875 8.90156C11.5437 8.90156 11.225 9.03344 10.9906 9.26781C10.3938 9.86656 9.81564 10.4419 9.81564 10.4419C9.57189 10.6859 9.17811 10.6859 8.93436 10.4419C8.93436 10.4419 7.38124 8.89062 6.19686 7.70531C5.96249 7.47094 5.64375 7.33906 5.3125 7.33906C4.98125 7.33906 4.66251 7.47094 4.42814 7.70531C3.14064 8.99281 1.37814 10.7544 1.37814 10.7544C1.34064 10.7941 1.29688 10.8272 1.25 10.8537V13.125C1.25 13.6222 1.44688 14.0991 1.8 14.4509C2.15 14.8025 2.62812 15 3.125 15H13.125C13.6219 15 14.1 14.8025 14.45 14.4509C14.8031 14.0991 15 13.6222 15 13.125V11.4787ZM15 9.74125V3.125C15 2.62781 14.8031 2.15094 14.45 1.79906C14.1 1.4475 13.6219 1.25 13.125 1.25H3.125C2.62812 1.25 2.15 1.4475 1.8 1.79906C1.44688 2.15094 1.25 2.62781 1.25 3.125V9.11625L3.54374 6.82125C4.01249 6.3525 4.65 6.08906 5.3125 6.08906C5.975 6.08906 6.61251 6.3525 7.08126 6.82125L9.375 9.11625L10.1062 8.38375C10.575 7.915 11.2125 7.65156 11.875 7.65156C12.5375 7.65156 13.175 7.915 13.6438 8.38375L15 9.74125ZM9.6875 2.5C8.48125 2.5 7.5 3.48031 7.5 4.6875C7.5 5.89469 8.48125 6.875 9.6875 6.875C10.8938 6.875 11.875 5.89469 11.875 4.6875C11.875 3.48031 10.8938 2.5 9.6875 2.5ZM9.6875 3.75C10.2063 3.75 10.625 4.17 10.625 4.6875C10.625 5.205 10.2063 5.625 9.6875 5.625C9.16875 5.625 8.75 5.205 8.75 4.6875C8.75 4.17 9.16875 3.75 9.6875 3.75Z" fill="black"/>
</g>
</g>
</g>
<defs>
<clipPath id="clip0_77_3993">
<rect width="20" height="20" fill="white"/>
</clipPath>
</defs>
</svg>
