<svg width="20" height="20" viewBox="0 0 20 20" fill="none" xmlns="http://www.w3.org/2000/svg">
<g clip-path="url(#clip0_79_5294)">
<path fill-rule="evenodd" clip-rule="evenodd" d="M10.165 0.625C10.0669 0.625 9.93313 0.625 9.835 0.625C9.335 0.625 8.84969 0.795312 8.45937 1.1075C7.10469 2.19125 3.81281 4.825 2.18812 6.12437C1.59531 6.59875 1.25 7.31719 1.25 8.07656V16.875C1.25 18.2556 2.36937 19.375 3.75 19.375H16.25C17.6306 19.375 18.75 18.2556 18.75 16.875C18.75 14.2078 18.75 10.0953 18.75 8.07656C18.75 7.31719 18.4047 6.59875 17.8119 6.12437C16.1872 4.825 12.8953 2.19125 11.5406 1.1075C11.1503 0.795312 10.665 0.625 10.165 0.625Z" fill="#47BCCB"/>
<path fill-rule="evenodd" clip-rule="evenodd" d="M13.125 19.375V14.9999C13.125 14.1711 12.7956 13.3765 12.2097 12.7904C11.6237 12.2043 10.8287 11.875 10 11.875C9.17125 11.875 8.37625 12.2043 7.79031 12.7904C7.20438 13.3765 6.875 14.1711 6.875 14.9999V19.375H13.125Z" fill="#FBB800"/>
<path fill-rule="evenodd" clip-rule="evenodd" d="M3.75 20H16.25C17.9759 20 19.375 18.6009 19.375 16.875C19.375 14.2078 19.375 10.0953 19.375 8.07656C19.375 7.12719 18.9434 6.22937 18.2022 5.63625C16.5778 4.33687 13.2856 1.70313 11.9309 0.619375C11.4297 0.218438 10.8069 0 10.165 0C10.0669 0 9.93313 0 9.835 0C9.19312 0 8.57031 0.218438 8.06906 0.619375C6.71437 1.70313 3.42219 4.33687 1.79781 5.63625C1.05656 6.22937 0.625 7.12719 0.625 8.07656V16.875C0.625 18.6009 2.02406 20 3.75 20ZM13.75 18.75H16.25C17.2856 18.75 18.125 17.9106 18.125 16.875V8.07656C18.125 7.50688 17.8659 6.96812 17.4212 6.6125L11.1503 1.59562C10.8706 1.37187 10.5231 1.25 10.165 1.25C10.0669 1.25 9.93313 1.25 9.835 1.25C9.47688 1.25 9.12938 1.37187 8.84969 1.59562C7.49531 2.67937 4.20313 5.31281 2.57875 6.6125C2.13406 6.96812 1.875 7.50688 1.875 8.07656V16.875C1.875 17.9106 2.71438 18.75 3.75 18.75H6.25V15C6.25 14.0053 6.645 13.0516 7.34844 12.3484C8.05156 11.645 9.00531 11.25 10 11.25C10.9947 11.25 11.9484 11.645 12.6516 12.3484C13.355 13.0516 13.75 14.0053 13.75 15V18.75ZM12.5 18.75V15C12.5 14.3369 12.2366 13.7009 11.7678 13.2322C11.2991 12.7634 10.6631 12.5 10 12.5C9.33687 12.5 8.70094 12.7634 8.23219 13.2322C7.76344 13.7009 7.5 14.3369 7.5 15V18.75H12.5Z" fill="#012030"/>
</g>
<defs>
<clipPath id="clip0_79_5294">
<rect width="20" height="20" fill="white"/>
</clipPath>
</defs>
</svg>
