<svg width="20" height="20" viewBox="0 0 20 20" fill="none" xmlns="http://www.w3.org/2000/svg">
<path fill-rule="evenodd" clip-rule="evenodd" d="M11.7999 0.7993C10.6092 0.566798 9.39048 0.566798 8.19984 0.7993C8.19984 0.7993 8.12485 1.35086 8.0561 1.87368C7.98423 2.41025 7.63107 2.86806 7.13107 3.07525C7.12795 3.0715 7.12798 3.0715 7.12798 3.0715C6.6311 3.27651 6.05921 3.20151 5.63108 2.87494C5.2092 2.559 4.76544 2.2218 4.76544 2.2218C3.76231 2.89775 2.89667 3.76182 2.22167 4.76651C2.22167 4.76651 2.55916 5.20933 2.87792 5.62871C3.20604 6.05965 3.28105 6.63246 3.07479 7.13309C3.07167 7.13122 3.07167 7.13122 3.07167 7.13122C2.86229 7.62873 2.40605 7.97873 1.87167 8.05123C1.34979 8.12592 0.799806 8.20061 0.799806 8.20061C0.565429 9.38905 0.565429 10.6109 0.799806 11.7994C0.799806 11.7994 1.34979 11.8741 1.8748 11.9447C2.40918 12.0172 2.86854 12.3697 3.07479 12.87C3.07167 12.8716 3.07167 12.8716 3.07167 12.8716C3.27792 13.3703 3.20292 13.94 2.87479 14.3688C2.55916 14.791 2.22167 15.2335 2.22167 15.2335C2.89667 16.2382 3.76231 17.1022 4.76544 17.7782C4.76544 17.7782 5.2092 17.441 5.62795 17.1213C6.05921 16.7932 6.63107 16.7188 7.1342 16.926C7.13107 16.9297 7.13107 16.9297 7.13107 16.9297C7.62795 17.1375 7.97797 17.5932 8.04985 18.1272C8.12485 18.6494 8.19984 19.2007 8.19984 19.2007C9.39048 19.4332 10.6092 19.4332 11.7999 19.2007C11.7999 19.2007 11.8749 18.6491 11.9436 18.1263C12.0155 17.5897 12.3686 17.1319 12.8686 16.9247C12.8718 16.9285 12.8717 16.9285 12.8717 16.9285C13.3717 16.7235 13.9405 16.7985 14.3686 17.125C14.7905 17.441 15.2343 17.7782 15.2343 17.7782C16.2374 17.1022 17.103 16.2382 17.778 15.2335C17.778 15.2335 17.4406 14.7907 17.1218 14.3713C16.7937 13.9403 16.7187 13.3675 16.9249 12.8669C16.928 12.8688 16.9281 12.8688 16.9281 12.8688C17.1374 12.3713 17.5937 12.0213 18.1281 11.9488C18.6499 11.8741 19.1999 11.7994 19.1999 11.7994C19.4343 10.6109 19.4343 9.38905 19.1999 8.20061C19.1999 8.20061 18.6499 8.12592 18.1249 8.05529C17.5905 7.98279 17.1312 7.63029 16.9249 7.12997C16.928 7.12841 16.9281 7.12841 16.9281 7.12841C16.7249 6.62966 16.7999 6.05996 17.1249 5.63121C17.4406 5.20901 17.778 4.76651 17.778 4.76651C17.103 3.76182 16.2374 2.89775 15.2343 2.2218C15.2343 2.2218 14.7905 2.559 14.3718 2.87869C13.9405 3.20682 13.3686 3.28119 12.8655 3.074C12.8686 3.07025 12.8686 3.07026 12.8686 3.07026C12.3718 2.86244 12.0217 2.40681 11.9499 1.87275C11.8749 1.35055 11.7999 0.7993 11.7999 0.7993Z" fill="#47BCCB"/>
<path d="M10 13.4375C11.8985 13.4375 13.4376 11.8985 13.4376 10C13.4376 8.1015 11.8985 6.56247 10 6.56247C8.10153 6.56247 6.5625 8.1015 6.5625 10C6.5625 11.8985 8.10153 13.4375 10 13.4375Z" fill="#FBB800"/>
<path fill-rule="evenodd" clip-rule="evenodd" d="M17.5033 6.89154C17.3814 6.5981 17.4314 6.26216 17.622 6.00997C17.622 6.0084 17.6252 6.00715 17.6252 6.0059C17.9408 5.58559 18.2751 5.14527 18.2751 5.14527C18.4376 4.93215 18.447 4.63964 18.297 4.41745C17.5752 3.34588 16.6533 2.42432 15.5814 1.70306C15.3595 1.55369 15.0689 1.56244 14.8564 1.72463L13.9939 2.3815C13.7407 2.57432 13.4032 2.61463 13.1095 2.49307C12.8157 2.37088 12.6095 2.10275 12.5688 1.789C12.5688 1.78712 12.5688 1.78557 12.5688 1.784C12.4938 1.26431 12.4189 0.715555 12.4189 0.715555C12.3814 0.45024 12.1814 0.237111 11.9189 0.185861C10.6532 -0.0619536 9.34695 -0.0619536 8.08132 0.185861C7.81881 0.237111 7.61882 0.45024 7.58132 0.715555L7.43758 1.78962C7.39383 2.10587 7.18758 2.37525 6.8907 2.49744C6.59695 2.61776 6.26255 2.56994 6.00942 2.37776C6.00942 2.37682 6.0063 2.37588 6.0063 2.37463C5.58442 2.06025 5.14691 1.72463 5.14691 1.72463C4.93129 1.56244 4.64067 1.55369 4.4188 1.70306C3.34691 2.42432 2.42501 3.34588 1.70313 4.41745C1.55313 4.63964 1.56253 4.93215 1.72503 5.14527L2.38127 6.00747C2.57503 6.26091 2.61565 6.59716 2.49377 6.89154C2.3719 7.18373 2.10314 7.38936 1.79064 7.43186C1.78752 7.43186 1.78438 7.43217 1.78438 7.43248C1.26563 7.50717 0.71565 7.58123 0.71565 7.58123C0.450023 7.61717 0.237502 7.81811 0.187501 8.08061C-0.0625005 9.34812 -0.0625005 10.6519 0.187501 11.9194C0.237502 12.1819 0.450023 12.3828 0.71565 12.4188L1.79064 12.5641C2.10627 12.6069 2.37502 12.8141 2.4969 13.1085C2.61878 13.4019 2.56877 13.7378 2.37815 13.99C2.37815 13.9916 2.37502 13.9928 2.37502 13.9941C2.05939 14.4144 1.72503 14.8547 1.72503 14.8547C1.56253 15.0679 1.55313 15.3604 1.70313 15.5825C2.42501 16.6541 3.34691 17.5757 4.4188 18.2969C4.64067 18.4463 4.93129 18.4376 5.14691 18.2754L6.0063 17.6185C6.26255 17.4254 6.60008 17.3813 6.89383 17.5032C7.18446 17.6254 7.3907 17.8969 7.43132 18.211V18.216C7.50633 18.7357 7.58132 19.2844 7.58132 19.2844C7.61882 19.5498 7.81881 19.7629 8.08132 19.8141C9.34695 20.062 10.6532 20.062 11.9189 19.8141C12.1814 19.7629 12.3814 19.5498 12.4189 19.2844L12.5626 18.2104C12.6063 17.8941 12.8157 17.6247 13.1095 17.5026C13.4032 17.3822 13.7376 17.4301 13.9907 17.6222C13.9907 17.6232 13.9939 17.6241 13.9939 17.6254C14.4158 17.9398 14.8564 18.2754 14.8564 18.2754C15.0689 18.4376 15.3595 18.4463 15.5814 18.2969C16.6533 17.5757 17.5752 16.6541 18.297 15.5825C18.447 15.3604 18.4376 15.0679 18.2751 14.8547L17.6189 13.9925C17.4251 13.7388 17.3814 13.4016 17.5033 13.1069C17.6251 12.8144 17.897 12.6106 18.2127 12.5681C18.2127 12.5681 18.2158 12.5678 18.2158 12.5675C18.7345 12.4928 19.2845 12.4188 19.2845 12.4188C19.5501 12.3828 19.7627 12.1819 19.8127 11.9194C20.0627 10.6519 20.0627 9.34812 19.8127 8.08061C19.7627 7.81811 19.5501 7.61717 19.2845 7.58123L18.2095 7.43592C17.8939 7.39311 17.6251 7.18592 17.5033 6.89154ZM16.347 7.36748V7.36935C16.6408 8.07499 17.2845 8.57218 18.0439 8.67468L18.6626 8.75843C18.7814 9.58219 18.7783 10.4188 18.6626 11.2425C18.4751 11.2681 18.2533 11.2991 18.0376 11.3303C17.2908 11.4316 16.6439 11.9244 16.3501 12.6263V12.6281C16.0564 13.3338 16.1626 14.1419 16.6251 14.7497L17.0033 15.2466C16.5033 15.9129 15.9126 16.5041 15.247 17.0032C15.097 16.8901 14.9189 16.7557 14.7439 16.6247C14.1439 16.1669 13.3345 16.0575 12.6314 16.3466V16.3472C11.9251 16.6397 11.4282 17.2854 11.3251 18.0426L11.2407 18.6616C10.4188 18.7798 9.58134 18.7794 8.75633 18.6613C8.73133 18.476 8.70007 18.2548 8.66882 18.0385C8.56882 17.2897 8.07506 16.6422 7.37506 16.3491C7.37193 16.3488 7.37193 16.3488 7.37193 16.3485C6.66567 16.0563 5.85944 16.1613 5.25006 16.6241L4.75316 17.0026C4.08753 16.5035 3.4969 15.9119 2.9969 15.246C3.1094 15.0966 3.2438 14.9185 3.37505 14.7435C3.83443 14.1425 3.94377 13.336 3.65314 12.6325C3.65314 12.6319 3.65314 12.6313 3.65314 12.6306C3.35939 11.925 2.71566 11.4278 1.95628 11.3253L1.33753 11.2416C1.21878 10.4178 1.2219 9.58124 1.33753 8.75749C1.52503 8.73186 1.74691 8.70093 1.96253 8.66968C2.70941 8.56843 3.35317 8.07436 3.64692 7.37217C3.64692 7.37154 3.64692 7.37091 3.64692 7.37029C3.94068 6.66435 3.84068 5.8584 3.37505 5.25027L2.9969 4.7534C3.4969 4.08714 4.08753 3.49589 4.75316 2.99682C4.90316 3.10995 5.08128 3.24432 5.25628 3.37526C5.85629 3.83308 6.66567 3.94246 7.3688 3.65339C7.3688 3.65308 7.3688 3.65307 7.3688 3.65276C8.07506 3.36026 8.57195 2.71463 8.67508 1.95744L8.75946 1.33837C9.58134 1.22024 10.4188 1.22056 11.2438 1.33868C11.2688 1.52399 11.3001 1.74525 11.3313 1.9615C11.4313 2.71057 11.9251 3.35401 12.6282 3.64713V3.64776C13.3345 3.93995 14.1407 3.83902 14.7501 3.37589L15.247 2.99745C15.9126 3.49652 16.5033 4.08808 17.0033 4.75403C16.8908 4.9034 16.7564 5.08153 16.6251 5.25653C16.1657 5.85747 16.0564 6.66403 16.347 7.36748ZM10.0001 5.93747C7.75944 5.93747 5.93755 7.7578 5.93755 10C5.93755 12.2422 7.75944 14.0625 10.0001 14.0625C12.2407 14.0625 14.0626 12.2422 14.0626 10C14.0626 7.7578 12.2407 5.93747 10.0001 5.93747ZM10.0001 7.18748C11.5532 7.18748 12.8126 8.4478 12.8126 10C12.8126 11.5522 11.5532 12.8125 10.0001 12.8125C8.44695 12.8125 7.18756 11.5522 7.18756 10C7.18756 8.4478 8.44695 7.18748 10.0001 7.18748Z" fill="#012030"/>
</svg>
