<svg width="239" height="200" viewBox="0 0 239 200" fill="none" xmlns="http://www.w3.org/2000/svg">
<path d="M18.459 56.3352L23.1592 60.2072H49.5429V52.4592H23.1592L18.459 56.3352Z" fill="#EBEBEB"/>
<path d="M18.5 67.4561L23.4261 71.1277L49.7769 70.0301L49.3131 62.2921L22.9623 63.3897L18.5 67.4561Z" fill="#EBEBEB"/>
<path d="M81.9245 62.2697L76.8685 65.8161L50.5688 64.0565L51.3125 56.3333L77.6117 58.0929L81.9245 62.2697Z" fill="#EBEBEB"/>
<path d="M46.5737 148.846H53.7002L52.0405 49.1201H48.2334L46.5737 148.846Z" fill="#DBDBDB"/>
<path d="M209.767 113.894C209.916 115.731 209.626 117.596 208.934 119.34C208.609 120.156 208.194 120.936 207.711 121.692C207.1 122.658 206.467 123.6 206.497 124.702C206.617 124.781 206.185 124.742 206.181 124.634C202.842 122.744 198.392 122.15 195.955 119.253C194.801 117.882 194.309 116.206 194.155 114.552C193.989 112.752 194.078 110.775 194.788 109.057C195.387 107.603 196.554 106.239 198.285 105.62C200.072 104.983 202.316 105.19 204.082 105.778C207.89 107.045 209.506 110.697 209.767 113.894Z" fill="#EBEBEB"/>
<path d="M209.566 135.66C209.212 134.298 208.858 132.937 208.491 131.579C207.772 128.918 207.015 126.264 206.148 123.633C205.628 122.058 205.072 120.495 204.477 118.944C204.689 118.007 204.825 117.069 205.154 116.144C205.551 115.029 206.076 113.961 206.573 112.877C206.603 112.81 206.474 112.766 206.435 112.828C205.51 114.306 204.307 116.196 204.115 118.005C203.419 116.249 202.662 114.512 201.833 112.797C201.908 111.385 201.972 110.016 202.373 108.616C202.391 108.554 202.277 108.527 202.257 108.59C201.885 109.763 201.583 111.027 201.575 112.266C200.938 110.977 200.261 109.7 199.53 108.438C199.464 108.324 199.275 108.424 199.331 108.536C200.449 110.736 201.467 112.976 202.407 115.239C200.934 113.962 199.1 112.949 197.177 112.23C197.093 112.198 197.017 112.3 197.103 112.336C199.281 113.27 201.068 114.505 202.723 116.002C203.396 117.658 204.029 119.326 204.624 121.002C202.604 119.067 199.722 117.694 196.888 116.874C196.792 116.846 196.754 116.971 196.847 117.001C200.116 118.061 202.57 119.818 204.939 121.892C205.174 122.57 205.404 123.248 205.628 123.927C206.475 126.503 207.265 129.092 208.012 131.69C208.37 132.935 208.72 134.182 209.062 135.43C209.43 136.774 209.684 138.183 210.203 139.49C210.253 139.615 210.514 139.604 210.495 139.457C210.324 138.182 209.892 136.912 209.566 135.66Z" fill="#DBDBDB"/>
<path d="M206.003 111.076C205.304 111.838 204.805 112.694 204.503 113.62C204.496 113.644 204.539 113.661 204.552 113.638C205.023 112.778 205.559 111.953 206.153 111.15C206.214 111.067 206.069 111.004 206.003 111.076Z" fill="#DBDBDB"/>
<path d="M199.212 116.767C198.348 116.278 197.179 115.86 196.16 115.681C196.132 115.676 196.111 115.71 196.139 115.722C196.627 115.929 197.145 116.086 197.64 116.283C198.137 116.481 198.618 116.713 199.121 116.897C199.226 116.936 199.31 116.822 199.212 116.767Z" fill="#DBDBDB"/>
<path d="M198.132 109.324C197.83 109.127 197.513 108.879 197.172 108.737C197.118 108.715 197.064 108.769 197.107 108.808C197.366 109.041 197.741 109.226 198.05 109.412C198.112 109.448 198.192 109.362 198.132 109.324Z" fill="#DBDBDB"/>
<path d="M221.261 118.59C218.79 119.346 216.302 120.056 213.831 120.805C213.616 120.872 208.855 114.262 210.133 110.664C211.314 107.333 214.389 104.727 218.188 103.419C219.948 102.814 222.125 102.27 224.051 102.523C225.762 102.748 227.041 103.844 227.688 105.145C228.569 106.914 228.479 109.083 228.209 110.95C227.958 112.68 227.334 114.405 226.082 115.819C224.843 117.22 223.188 118.001 221.261 118.59Z" fill="#EBEBEB"/>
<path d="M224.432 111.909C222.879 112.669 221.291 113.244 219.616 113.792C218.567 114.136 217.387 114.458 216.394 114.962C217.311 112.922 218.334 110.918 219.43 108.928C221.027 108.449 222.692 107.746 223.847 106.718C223.91 106.662 223.818 106.587 223.749 106.634C222.466 107.498 221.021 108.051 219.577 108.665C219.874 108.129 220.173 107.594 220.48 107.06C220.565 106.911 220.318 106.78 220.213 106.926C219.012 108.589 217.949 110.341 217.008 112.143C216.628 110.616 216.422 109.12 216.408 107.546C216.408 107.506 216.339 107.507 216.335 107.546C216.146 109.22 216.29 110.973 216.771 112.608C215.997 114.13 215.305 115.684 214.695 117.252C214.34 116.347 213.9 115.461 213.583 114.547C213.126 113.231 212.857 111.88 212.921 110.506C212.923 110.466 212.852 110.467 212.847 110.506C212.538 112.951 213.185 115.66 214.454 117.902C214.101 118.846 213.768 119.792 213.47 120.738C211.941 125.579 211.144 130.531 211.21 135.541C211.211 135.656 211.416 135.658 211.423 135.542C211.745 130.608 212.593 125.669 214.106 120.89C214.7 119.014 215.409 117.186 216.201 115.386C217.661 114.941 219.106 114.365 220.535 113.866C221.929 113.378 223.354 112.824 224.493 111.978C224.538 111.945 224.482 111.884 224.432 111.909Z" fill="#DBDBDB"/>
<path d="M226.633 109.803C225.127 110.342 223.715 111.06 222.211 111.604C222.141 111.63 222.19 111.723 222.262 111.707C223.868 111.342 225.452 110.836 226.697 109.874C226.745 109.837 226.685 109.784 226.633 109.803Z" fill="#DBDBDB"/>
<path d="M213.854 107.673C213.867 107.604 213.745 107.57 213.725 107.642C213.391 108.852 213.193 110.129 213.693 111.323C213.713 111.37 213.803 111.366 213.802 111.312C213.786 110.084 213.616 108.896 213.854 107.673Z" fill="#DBDBDB"/>
<path d="M220.014 104.597C219.538 105.175 219.41 105.968 219.495 106.653C219.501 106.698 219.589 106.72 219.6 106.666C219.737 105.976 220.005 105.34 220.205 104.666C220.234 104.568 220.081 104.515 220.014 104.597Z" fill="#DBDBDB"/>
<path d="M228.488 122.443C228.173 124.487 227.015 127.421 224.28 127.852C222.507 128.133 220.682 128.224 218.897 128.47C216.986 128.731 215.076 129.021 213.194 129.401C213.04 129.432 212.401 124.586 216.485 121.568C217.629 120.723 219.154 120.281 220.554 119.798C222.155 119.246 223.828 118.784 225.55 118.591C226.61 118.469 227.525 118.524 228.092 119.37C228.685 120.256 228.64 121.471 228.488 122.443Z" fill="#EBEBEB"/>
<path d="M225.999 120.317C224.937 120.723 223.873 121.167 222.819 121.632C223.062 121.328 223.297 121.021 223.581 120.739C223.989 120.333 224.46 119.987 224.913 119.618C224.95 119.587 224.91 119.521 224.859 119.548C223.914 120.035 223.007 120.891 222.541 121.752C221.229 122.338 219.939 122.96 218.709 123.616C217.836 124.08 217.05 124.597 216.331 125.166C216.522 124.649 216.685 124.123 216.985 123.64C217.452 122.889 218.196 122.398 218.892 121.81C218.958 121.754 218.875 121.675 218.799 121.718C217.144 122.657 216.283 123.907 215.919 125.499C215.099 126.201 214.379 126.985 213.743 127.864C211.328 131.202 209.76 135.396 210.588 139.312C210.608 139.406 210.792 139.405 210.793 139.305C210.822 135.288 211.91 131.521 214.352 128.04C214.523 127.796 214.703 127.56 214.888 127.331C215.706 127.133 216.512 126.916 217.359 126.8C218.337 126.666 219.327 126.629 220.313 126.55C221.935 126.419 223.707 126.169 225.006 125.28C225.063 125.24 225 125.154 224.934 125.186C221.927 126.648 218.288 125.911 215.189 126.978C216.329 125.667 217.713 124.6 219.395 123.698C219.485 123.649 219.578 123.602 219.669 123.554C221.778 123.452 224.053 123.576 225.943 122.713C226 122.688 225.959 122.615 225.9 122.638C224.044 123.335 222.072 123.103 220.138 123.309C222.08 122.316 224.091 121.456 226.041 120.466C226.205 120.383 226.181 120.247 225.999 120.317Z" fill="#DBDBDB"/>
<path d="M227.273 121.882C226.295 122.172 225.313 122.324 224.31 122.523C224.287 122.528 224.286 122.558 224.312 122.559C225.34 122.597 226.396 122.321 227.308 121.943C227.355 121.923 227.321 121.868 227.273 121.882Z" fill="#DBDBDB"/>
<path d="M220.133 121.24C219.619 121.48 219.192 121.946 218.831 122.328C218.787 122.375 218.874 122.443 218.924 122.399C219.144 122.208 219.372 122.024 219.604 121.843C219.815 121.678 220.06 121.536 220.246 121.351C220.304 121.293 220.21 121.204 220.133 121.24Z" fill="#DBDBDB"/>
<path d="M204.184 128.33C204.218 128.394 204.107 128.455 204.064 128.387C204.059 128.387 204.059 128.387 204.059 128.384C204.042 128.402 204.021 128.419 203.987 128.423C202.106 128.763 200.217 129.11 198.301 129.253C196.763 129.368 194.988 129.439 193.642 128.691C191.816 127.678 190.615 124.968 191.603 123.246C192.77 121.201 196.288 122.311 198.054 123.038C200.768 124.148 202.948 126.024 204.184 128.33Z" fill="#EBEBEB"/>
<path d="M205.549 129.275C204.513 128.427 203.368 127.72 202.154 127.111C201.321 125.927 200.044 124.945 198.711 124.172C198.644 124.134 198.587 124.222 198.649 124.262C199.798 125.003 200.695 125.872 201.55 126.817C200.191 126.182 198.755 125.66 197.29 125.195C196.78 124.411 195.949 123.678 195.002 123.275C194.983 123.267 194.96 123.289 194.978 123.301C195.804 123.843 196.467 124.405 197.045 125.117C196.179 124.847 195.305 124.595 194.432 124.352C194.353 124.33 194.323 124.43 194.398 124.455C195.953 124.964 197.543 125.5 199.084 126.12C197.139 126.338 195.387 126.389 193.409 126.106C193.357 126.098 193.334 126.16 193.387 126.173C195.295 126.63 197.484 126.714 199.408 126.248C200.39 126.653 201.35 127.094 202.263 127.588C201.498 127.505 200.73 127.617 199.955 127.746C198.604 127.971 197.282 128.17 195.898 128.131C195.847 128.129 195.834 128.2 195.886 128.208C198.239 128.547 200.464 127.651 202.796 127.884C203.66 128.381 204.476 128.93 205.225 129.546C206.691 130.75 207.864 132.191 208.768 133.732C209.749 135.405 210.282 137.179 211.076 138.908C211.11 138.984 211.237 138.955 211.22 138.874C210.541 135.465 208.514 131.706 205.549 129.275Z" fill="#DBDBDB"/>
<path d="M198.452 124.6C198.315 124.365 198.074 124.164 197.849 123.988C197.652 123.833 197.411 123.633 197.155 123.552C197.131 123.544 197.118 123.572 197.132 123.585C197.325 123.768 197.593 123.903 197.801 124.078C198.011 124.255 198.184 124.462 198.397 124.635C198.426 124.66 198.469 124.629 198.452 124.6Z" fill="#DBDBDB"/>
<path d="M194.571 125.658C194.222 125.585 193.852 125.59 193.498 125.53C193.139 125.468 192.805 125.361 192.458 125.269C192.412 125.257 192.385 125.313 192.426 125.333C192.998 125.618 193.902 125.86 194.571 125.75C194.627 125.741 194.623 125.669 194.571 125.658Z" fill="#DBDBDB"/>
<path d="M216.739 132.886L216.356 136.535L215.053 148.858H203.53L201.903 136.535L201.422 132.886H216.739Z" fill="#C7C7C7"/>
<path d="M216.739 132.886L216.356 136.535H201.903L201.422 132.886H216.739Z" fill="#A6A6A6"/>
<path d="M217.88 131.89H200.281V134.851H217.88V131.89Z" fill="#C7C7C7"/>
<path d="M216.333 39.9612H162.277C162.277 39.9612 167.637 27.7008 175.885 27.7008C184.134 27.7008 186.718 36.1636 186.718 36.1636C186.718 36.1636 192.283 31.5656 196.855 31.5656C201.427 31.5656 205.402 37.6416 205.402 37.6416C205.402 37.6416 211.861 34.374 216.333 39.9612Z" fill="#EBEBEB"/>
<path d="M121.484 22.924H96.2217C96.2217 22.924 101.867 16.0748 106.314 16.0748C110.761 16.0748 112.075 20.6412 112.075 20.6412C112.075 20.6412 115.213 18.5104 118.122 18.8908C121.029 19.2712 121.484 22.924 121.484 22.924Z" fill="#EBEBEB"/>
<path d="M95.1786 30.9088H45.9722C45.9722 30.9088 52.7108 18.3096 59.9189 17.522C67.1275 16.7344 70.5749 26.884 70.5749 26.884C70.5749 26.884 75.224 23.2968 78.8801 23.2968C82.5367 23.2968 85.3575 28.0216 85.3575 28.0216C85.3575 28.0216 92.6712 24.784 95.1786 30.9088Z" fill="#EBEBEB"/>
<path d="M12.0146 148.846L38.8617 148.749L65.7087 148.714L119.403 148.646L173.097 148.713L199.944 148.748L226.791 148.846L199.944 148.944L173.097 148.979L119.403 149.046L65.7087 148.979L38.8617 148.943L12.0146 148.846Z" fill="#263238"/>
<path d="M52.3882 181.236C75.3007 181.236 93.875 178.928 93.875 176.08C93.875 173.232 75.3007 170.924 52.3882 170.924C29.4756 170.924 10.9014 173.232 10.9014 176.08C10.9014 178.928 29.4756 181.236 52.3882 181.236Z" fill="#EBEBEB"/>
<path d="M190.607 181.236C213.519 181.236 232.094 178.928 232.094 176.08C232.094 173.232 213.519 170.924 190.607 170.924C167.694 170.924 149.12 173.232 149.12 176.08C149.12 178.928 167.694 181.236 190.607 181.236Z" fill="#EBEBEB"/>
<path d="M122.927 171.072C153.176 171.072 177.697 169.561 177.697 167.696C177.697 165.831 153.176 164.32 122.927 164.32C92.6792 164.32 68.1582 165.831 68.1582 167.696C68.1582 169.561 92.6792 171.072 122.927 171.072Z" fill="#EBEBEB"/>
<path d="M154.443 51.1268L185.58 47.7188V153.154L154.443 156.562V51.1268Z" fill="#37474F"/>
<path d="M92.1704 51.1268L123.307 47.7188V153.154L92.1704 156.562V51.1268Z" fill="#263238"/>
<path d="M154.443 51.1268L123.307 47.7188V153.154L154.443 156.562V51.1268Z" fill="#263238"/>
<path d="M92.1706 51.1268L61.0337 47.7188V153.154L92.1706 156.562V51.1268Z" fill="#37474F"/>
<path d="M154.443 53.3724L182.608 50.3156V150.72L154.443 153.776V53.3724Z" fill="#DBDBDB"/>
<path d="M92.1704 53.5608L123.306 50.3156V150.72L92.1704 153.965V53.5608Z" fill="#DBDBDB"/>
<path d="M154.443 53.4668L123.307 50.4096V150.814L154.443 153.871V53.4668Z" fill="#EBEBEB"/>
<path d="M92.1706 53.5608L64.0054 50.3156V150.72L92.1706 153.965V53.5608Z" fill="#EBEBEB"/>
<path d="M88.8813 53.1832L86.3653 60.3868L85.7721 62.0868L79.5622 79.844L79.1973 80.5492L77.3804 79.9732L64.0063 75.7468V73.8572L78.1026 78.316L86.958 52.9612L88.8813 53.1832Z" fill="white"/>
<path d="M117.986 50.8712L116.842 51.4512L114.858 52.4532L102.434 58.7336L100.746 59.5888L92.2788 63.8692L92.1685 63.8404L85.7718 62.0868L84.8901 61.8472L85.4222 60.1292L86.365 60.3868L92.062 61.9472L92.1685 61.8936L112.92 51.4008L112.923 51.3972H112.927L115.014 51.1828L116.108 51.068H116.116L117.986 50.8712Z" fill="white"/>
<path d="M148.485 52.8824L146.867 58.5404L146.319 60.4516L137.354 91.6716L136.86 93.4036L136.852 93.4252L130.201 91.26L127.898 90.462L123.276 88.866L122.702 88.6656L121.768 87.4272L100.746 59.5888L100.26 58.9448L101.811 57.9068L102.434 58.7336L111.719 71.03L112.969 72.6868L123.911 87.1768L135.556 91.0704L141.568 70.164L142.104 68.296L146.574 52.6928L148.485 52.8824Z" fill="white"/>
<path d="M143.005 68.9472L141.85 70.368L141.568 70.164L123.306 56.998L122.778 56.6188L121.638 56.0176L119.977 55.1444L114.858 52.4532L114.402 52.2132L115.014 51.1828L116.108 51.068H116.116L116.842 51.4512L123.306 54.858L123.877 55.1584L142.104 68.296L143.005 68.9472Z" fill="white"/>
<path d="M182.607 75.8896V77.826L177.659 75.8824L175.884 75.1848L153.939 66.5636L146.319 60.4516L145.073 59.4528L146.304 58.0896L146.867 58.5404L154.946 65.0212L182.607 75.8896Z" fill="white"/>
<path d="M164.327 125.349L162.485 124.909L176.085 74.4368L177.927 74.8768L164.327 125.349Z" fill="white"/>
<path d="M182.607 118.719V120.591L159.416 127.398L157.573 127.938H157.569L154.905 128.722L126.321 151.11L123.679 150.848L133.538 143.129L135.522 141.572L144.214 134.766L145.78 133.542L153.981 127.118L162.571 124.599L164.699 123.973L182.607 118.719Z" fill="white"/>
<path d="M154.33 99.1028L135.888 93.1176L136.496 91.4228L154.556 97.286L170.97 95.8392L171.147 97.6208L154.33 99.1028Z" fill="white"/>
<path d="M112.724 73.168L111.017 72.3816L120.371 54.3832L122.078 55.17L112.724 73.168Z" fill="white"/>
<path d="M135.936 141.626L135.685 143.398L133.538 143.129L122.927 141.794L92.0737 132.78L64.0063 135.389V133.588L82.9976 131.824L85.4946 131.595L92.2676 130.965L92.4539 131.019L110.077 136.169L112.068 136.748L123.337 140.041L135.522 141.572L135.936 141.626Z" fill="white"/>
<path d="M70.7598 96.8108L64.0063 109.83V105.746L77.3804 79.9732L77.8557 79.0568L79.5622 79.844L79.1973 80.5492L71.672 95.0572L70.7598 96.8108Z" fill="white"/>
<path d="M85.8103 131.874L84.5031 133.174L82.9976 131.824L64.0063 114.84V112.371L78.7794 125.587L80.2958 126.939L85.4946 131.595L85.8103 131.874Z" fill="white"/>
<path d="M92.2903 97.7416L70.1357 96.7812L70.2231 94.9936L92.0505 95.94L123.03 87.0644L123.583 88.776L92.2903 97.7416Z" fill="white"/>
<path d="M80.098 127.485L78.2998 126.907L89.3818 96.33L91.18 96.9084L80.098 127.485Z" fill="white"/>
<path d="M182.607 105.364V107.167L169.594 105.807L168.769 105.722L168.978 103.943L170.065 104.058L182.607 105.364Z" fill="white"/>
<path d="M144.431 135.35L127.749 90.062L129.544 89.4756L146.226 134.764L144.431 135.35Z" fill="white"/>
<path d="M111.089 137.788L109.671 136.597L122.706 122.832L137.786 115.036L138.7 116.604L123.907 124.252L111.089 137.788Z" fill="white"/>
<path d="M148.485 52.8824L146.867 58.5404L146.319 60.4516L137.354 91.6716L136.86 93.4036L136.852 93.4252L130.201 91.26L127.898 90.462L123.276 88.866L122.702 88.6656L121.768 87.4272L100.746 59.5888L100.26 58.9448L101.811 57.9068L102.434 58.7336L111.719 71.03L112.969 72.6868L123.911 87.1768L135.556 91.0704L141.568 70.164L142.104 68.296L146.574 52.6928L148.485 52.8824Z" fill="white"/>
<path d="M154.33 99.1028L135.888 93.1176L136.496 91.4228L154.556 97.286L170.97 95.8392L171.147 97.6208L154.33 99.1028Z" fill="white"/>
<path d="M135.936 141.626L135.686 143.399L133.536 143.128L122.926 141.796L110.716 138.226H110.708L98.2654 134.588L92.0723 132.78L64.0059 135.388V133.587L82.9981 131.826L85.4965 131.595L92.2662 130.965L92.4553 131.019L98.2654 132.719L110.075 136.17L112.067 136.75H112.071L112.101 136.76L123.339 140.042L135.523 141.572L135.936 141.626Z" fill="white"/>
<path d="M146.227 134.765L144.43 135.348L137.712 117.116V117.112L137.08 115.401L127.893 90.4656V90.462L127.747 90.062L127.971 89.99L129.545 89.4752L130.203 91.2616L139.402 116.24L146.227 134.765Z" fill="white"/>
<path d="M138.701 116.601V116.604L137.712 117.116L123.907 124.251L112.071 136.75L111.09 137.787L109.671 136.598L110.075 136.17L122.707 122.832L137.08 115.401L137.785 115.038L138.701 116.601Z" fill="white"/>
<path d="M172.764 151.79L170.742 152.008L157.573 127.938H157.569L157.204 127.269L158.895 126.449L159.416 127.398L172.764 151.79Z" fill="white"/>
<path d="M100.143 90.7596L116.326 86.124L105.751 72.1188L96.8599 74.6212L100.143 90.7596Z" fill="#EBEBEB"/>
<path d="M158.96 92.9912L168.202 92.1768L172.422 76.7736L162.463 72.8612L158.96 92.9912Z" fill="#EBEBEB"/>
<path d="M182.607 71.4256L161.812 63.6684V52.5728L182.608 50.3156L182.607 71.4256Z" fill="#EBEBEB"/>
<path d="M94.6143 65.3572L99.7911 62.7404L104.426 68.898L96.1651 71.2644L94.6143 65.3572Z" fill="#EBEBEB"/>
<path d="M128.417 125.64L136.855 121.278L141.374 133.55L135.331 138.282L128.417 137.412V125.64Z" fill="#DBDBDB"/>
<path d="M127.883 54.134V50.846L144.646 52.5036L141.39 63.8692L127.883 54.134Z" fill="#DBDBDB"/>
<path d="M67.1548 110.422L77.9178 120.051L84.8728 100.778L72.3966 100.239L67.1548 110.422Z" fill="#DBDBDB"/>
<path d="M66.9702 71.7276V56.054L82.1764 57.8832L76.3094 74.682L66.9702 71.7276Z" fill="#DBDBDB"/>
<path d="M66.9702 54.1336L82.1764 55.9628L83.3867 52.5488L66.9702 50.6572V54.1336Z" fill="#DBDBDB"/>
<path d="M95.3447 151.31V136.622L106.497 139.899V150.148L95.3447 151.31Z" fill="#EBEBEB"/>
<path d="M66.3789 137.766L75.049 136.96V149.835L66.3779 148.836L66.3789 137.766Z" fill="#DBDBDB"/>
<path d="M175.474 148.529L165.803 130.855L182.607 125.922L182.608 147.754L175.474 148.529Z" fill="#EBEBEB"/>
<path d="M151.909 92.938V84.018L142.264 81.1908L139.988 89.1412L151.909 92.938Z" fill="#DBDBDB"/>
<path d="M130.202 91.262L139.403 116.242L138.701 116.602L137.714 117.111V117.114L123.907 124.252L112.102 136.759L110.717 138.226H110.708L98.2642 134.59V132.72L110.074 136.171L122.707 122.833L137.08 115.4L127.892 90.466L127.897 90.462L127.969 89.9916L128.191 88.6076V88.596L135.563 91.0536L138.737 80.0028L140.535 80.5904L136.852 93.4252L130.202 91.262Z" fill="#FFC727"/>
<path d="M146.658 69.682C146.297 66.6424 143.796 63.6168 139.399 63.6168C135.009 63.6168 132.507 66.6424 132.146 69.682C131.59 74.374 135.37 78.6236 139.399 82.5012C143.434 78.6236 147.214 74.374 146.658 69.682ZM139.399 73.0568C137.204 73.0568 135.426 71.5672 135.426 69.7288C135.426 67.89 137.204 66.4008 139.399 66.4008C141.6 66.4008 143.379 67.8904 143.379 69.7288C143.379 71.5672 141.6 73.0568 139.399 73.0568Z" fill="#263238"/>
<path d="M105.521 121.799C105.16 118.759 102.659 115.734 98.2627 115.734C93.872 115.734 91.3708 118.759 91.0097 121.799C90.4537 126.491 94.2331 130.74 98.2627 134.618C102.298 130.74 106.077 126.491 105.521 121.799ZM98.2627 125.174C96.0671 125.174 94.289 123.684 94.289 121.846C94.289 120.007 96.0676 118.518 98.2627 118.518C100.464 118.518 102.242 120.007 102.242 121.846C102.242 123.684 100.464 125.174 98.2627 125.174Z" fill="#263238"/>
<path d="M174.985 90.7788C175.088 90.9736 175.204 91.1628 175.333 91.3508C175.644 91.8028 176.043 92.2328 176.534 92.6316C179.34 94.9052 182.628 95.834 185.773 95.7888C186.802 95.7776 187.818 95.658 188.795 95.4472C191.084 94.9588 193.174 93.9672 194.773 92.6412C195.565 91.9928 196.235 91.264 196.758 90.4732C199.63 86.1256 200.442 81.3976 199.855 77.1116C199.845 77.0252 199.834 76.9388 199.82 76.8524C199.818 76.8236 199.812 76.7924 199.807 76.7632C199.804 76.7488 199.803 76.7344 199.799 76.7196C199.784 76.6068 199.763 76.4956 199.744 76.3824C199.438 74.6272 198.897 72.9556 198.176 71.4252C198.171 71.4176 198.169 71.4104 198.165 71.4028C197.89 70.8284 197.593 70.276 197.268 69.744C196.888 69.1168 196.475 68.522 196.032 67.9644C194.224 65.6884 189.535 64.5832 186.54 66.4632C184.52 67.7268 183.732 69.5112 183.259 71.392C183.146 71.836 183.053 72.2844 182.963 72.7356C182.856 73.2824 182.754 73.8292 182.643 74.366C182.576 74.6888 182.503 75.0068 182.42 75.3208C182.415 75.3368 182.412 75.3556 182.407 75.3716C181.909 77.2716 181.452 78.8936 179.828 80.2596C178.409 81.4492 176.817 82.5412 175.768 83.9988C174.489 85.7788 173.776 88.478 174.985 90.7788Z" fill="#263238"/>
<path d="M173.65 86.736C173.999 84.9636 175.196 83.512 176.729 82.3024C177.686 81.548 178.714 80.8536 179.515 79.9736C180.291 79.1208 180.858 78.1508 181.308 77.1504C182.375 74.7756 182.783 72.236 183.874 69.8664C183.887 69.8376 183.939 69.8556 183.927 69.8844C182.405 73.4952 182.29 77.7388 179.115 80.7312C177.61 82.15 175.705 83.2068 174.677 84.9532C173.683 86.6412 173.469 88.6648 174.638 90.332C175.829 92.0312 177.983 92.9888 180.173 93.5252C180.245 93.5428 180.214 93.6472 180.14 93.6328C176.307 92.89 172.957 90.2508 173.65 86.736Z" fill="#263238"/>
<path d="M183.486 95.526C184.18 95.6456 184.904 95.7324 185.637 95.7752C187.963 95.9208 190.41 95.6608 192.453 94.8284C193.131 94.5528 193.751 94.222 194.315 93.848C195.981 92.7584 197.203 91.2916 198.088 89.6592C199.213 87.5924 199.799 85.2648 200.057 83.1164C200.324 80.9024 200.235 78.6444 199.8 76.4356C199.638 75.6188 199.428 74.8088 199.171 74.0112C198.658 72.4228 197.958 70.8804 197.067 69.4216C197.037 69.376 196.95 69.408 196.978 69.4532C197.03 69.546 197.083 69.6388 197.132 69.7312C197.281 69.9992 197.422 70.2692 197.56 70.5408C198.507 72.4104 199.21 74.3608 199.6 76.3664C199.624 76.48 199.645 76.5936 199.663 76.7068C199.667 76.7212 199.667 76.7356 199.671 76.7504C199.676 76.7792 199.683 76.8108 199.684 76.8392C199.711 76.9888 199.736 77.1404 199.757 77.292C200.402 81.626 199.825 86.4408 197.352 90.3132C197.277 90.4292 197.202 90.5452 197.121 90.658C195.828 92.5304 193.919 94.1156 191.476 94.89C190.547 95.186 189.607 95.3504 188.659 95.4336C186.962 95.5884 185.238 95.4852 183.503 95.4064C183.408 95.402 183.395 95.51 183.486 95.526Z" fill="#263238"/>
<path d="M177.158 81.4136C178.028 80.8276 178.985 80.3244 179.781 79.664C180.71 78.8928 181.223 77.914 181.648 76.8956C182.509 74.8384 183.248 72.7324 183.943 70.632C183.947 70.6204 183.967 70.6276 183.964 70.6388C183.321 72.612 182.728 74.5912 181.977 76.5392C181.644 77.4028 181.296 78.284 180.683 79.0416C180.131 79.7232 179.371 80.252 178.598 80.7496C176.866 81.8644 175.225 83.0388 174.139 84.6568C172.978 86.3888 172.622 88.468 173.628 90.3124C173.638 90.3296 173.606 90.3412 173.596 90.3244C171.642 87.0116 174.05 83.5088 177.158 81.4136Z" fill="#263238"/>
<path d="M195.898 78.9116C198.721 80.3068 209.197 89.0872 209.848 94.374C210.576 100.281 206.625 109.117 205.781 110.067C204.687 111.297 195.705 108.546 195.903 106.643C196.149 104.268 199.747 96.3576 199.445 94.9364C198.989 92.7852 195.264 85.5064 192.845 80.9552C191.439 78.3084 193.723 77.8368 195.898 78.9116Z" fill="#DD6A57"/>
<path d="M205.781 110.066C205.537 110.807 203.96 115.571 203.209 116.757C202.458 117.944 200 121.227 198.856 120.837C197.713 120.448 198.341 119.438 198.341 119.438C198.341 119.438 197.041 120.687 195.933 120.207C194.825 119.727 195.863 118.183 195.863 118.183C195.863 118.183 194.416 119.384 193.352 118.839C192.287 118.294 193.641 116.888 193.641 116.888C193.641 116.888 192.38 118.038 191.729 117.28C190.945 116.368 193.557 114.469 194.269 113.107C194.431 112.798 197.014 106.642 197.014 106.642L205.781 110.066Z" fill="#DD6A57"/>
<path d="M193.755 117.052C195.671 115.651 196.221 114.76 196.937 112.751C196.951 112.712 197.024 112.72 197.014 112.763C196.526 114.784 196.029 115.984 193.831 117.133C193.724 117.189 193.663 117.118 193.755 117.052Z" fill="#263238"/>
<path d="M195.935 118.333C197.774 116.733 198.38 115.772 199.315 113.713C199.329 113.684 199.389 113.7 199.378 113.73C198.662 115.814 198.134 117.001 196.046 118.398C195.951 118.461 195.851 118.406 195.935 118.333Z" fill="#263238"/>
<path d="M198.611 119.373C200.258 117.716 200.976 116.686 201.579 114.59C201.593 114.54 201.68 114.553 201.672 114.604C201.306 116.791 200.421 118.082 198.677 119.409C198.557 119.5 198.507 119.477 198.611 119.373Z" fill="#263238"/>
<path d="M196.294 105.032C196.294 105.032 194.191 107.038 193.5 108.09C192.808 109.142 191.954 113.857 193.159 114.07C194.715 114.344 195.849 111.704 196.202 110.35C196.202 110.35 199.801 110.987 201.105 109.239C202.408 107.492 196.294 105.032 196.294 105.032Z" fill="#DD6A57"/>
<path d="M193.616 114.028C195.251 113.42 195.578 111.618 196.038 110.326C196.073 110.228 196.18 110.217 196.264 110.254C197.793 110.437 200.015 110.321 201.127 109.322C201.16 109.292 201.214 109.327 201.186 109.36C200.167 110.568 197.995 110.83 196.335 110.54C195.888 111.872 195.466 113.667 193.622 114.041C193.612 114.043 193.606 114.032 193.616 114.028Z" fill="#263238"/>
<path d="M210.219 97.8616C209.883 102.124 208.309 106.938 208.309 106.938L195.903 103.275C195.903 103.275 199.069 96.5472 199.146 95.4416C199.255 93.8344 196.62 88.7132 193.866 83.7936C191.634 79.8084 191.58 77.506 194.488 78.3076C195.163 78.4936 196.003 78.8472 197.014 79.3904C202.353 82.2548 208.609 89.344 209.938 93.6104C210.297 94.7652 210.342 96.2772 210.219 97.8616Z" fill="#FFC727"/>
<path d="M195.558 81.8096C195.558 81.9132 195.458 81.9972 195.334 81.9972C195.21 81.9972 195.11 81.9132 195.11 81.8096C195.11 81.706 195.21 81.622 195.334 81.622C195.458 81.622 195.558 81.706 195.558 81.8096Z" fill="white"/>
<path d="M199.427 81.8096C199.427 81.9132 199.327 81.9972 199.203 81.9972C199.079 81.9972 198.979 81.9132 198.979 81.8096C198.979 81.706 199.079 81.622 199.203 81.622C199.327 81.622 199.427 81.706 199.427 81.8096Z" fill="white"/>
<path d="M193.623 79.4048C193.623 79.5084 193.523 79.5924 193.399 79.5924C193.276 79.5924 193.175 79.5084 193.175 79.4048C193.175 79.3012 193.276 79.2172 193.399 79.2172C193.523 79.2172 193.623 79.3012 193.623 79.4048Z" fill="white"/>
<path d="M199.427 86.6704C199.427 86.774 199.327 86.8581 199.203 86.8581C199.079 86.8581 198.979 86.774 198.979 86.6704C198.979 86.5668 199.079 86.4828 199.203 86.4828C199.327 86.4828 199.427 86.5668 199.427 86.6704Z" fill="white"/>
<path d="M203.297 86.6704C203.297 86.774 203.196 86.8581 203.073 86.8581C202.949 86.8581 202.849 86.774 202.849 86.6704C202.849 86.5668 202.949 86.4828 203.073 86.4828C203.196 86.4828 203.297 86.5668 203.297 86.6704Z" fill="white"/>
<path d="M197.493 84.2656C197.493 84.3692 197.393 84.4532 197.269 84.4532C197.145 84.4532 197.045 84.3692 197.045 84.2656C197.045 84.162 197.145 84.078 197.269 84.078C197.393 84.078 197.493 84.162 197.493 84.2656Z" fill="white"/>
<path d="M201.362 84.2656C201.362 84.3692 201.262 84.4532 201.138 84.4532C201.014 84.4532 200.914 84.3692 200.914 84.2656C200.914 84.162 201.014 84.078 201.138 84.078C201.262 84.078 201.362 84.162 201.362 84.2656Z" fill="white"/>
<path d="M199.203 91.7192C199.327 91.7192 199.427 91.6352 199.427 91.5316C199.427 91.428 199.327 91.344 199.203 91.344C199.079 91.344 198.979 91.428 198.979 91.5316C198.979 91.6352 199.079 91.7192 199.203 91.7192Z" fill="white"/>
<path d="M203.297 91.5316C203.297 91.6352 203.196 91.7192 203.073 91.7192C202.949 91.7192 202.849 91.6352 202.849 91.5316C202.849 91.428 202.949 91.344 203.073 91.344C203.196 91.344 203.297 91.428 203.297 91.5316Z" fill="white"/>
<path d="M207.166 91.5316C207.166 91.6352 207.066 91.7192 206.942 91.7192C206.819 91.7192 206.718 91.6352 206.718 91.5316C206.718 91.428 206.819 91.344 206.942 91.344C207.066 91.344 207.166 91.428 207.166 91.5316Z" fill="white"/>
<path d="M197.493 89.1264C197.493 89.23 197.393 89.314 197.269 89.314C197.145 89.314 197.045 89.23 197.045 89.1264C197.045 89.0228 197.145 88.9388 197.269 88.9388C197.393 88.9388 197.493 89.0228 197.493 89.1264Z" fill="white"/>
<path d="M201.362 89.1264C201.362 89.23 201.262 89.314 201.138 89.314C201.014 89.314 200.914 89.23 200.914 89.1264C200.914 89.0228 201.014 88.9388 201.138 88.9388C201.262 88.9388 201.362 89.0228 201.362 89.1264Z" fill="white"/>
<path d="M205.232 89.1264C205.232 89.23 205.131 89.314 205.008 89.314C204.884 89.314 204.784 89.23 204.784 89.1264C204.784 89.0228 204.884 88.9388 205.008 88.9388C205.131 88.9388 205.232 89.0228 205.232 89.1264Z" fill="white"/>
<path d="M199.203 96.58C199.327 96.58 199.427 96.496 199.427 96.3924C199.427 96.2888 199.327 96.2048 199.203 96.2048C199.079 96.2048 198.979 96.2888 198.979 96.3924C198.979 96.496 199.079 96.58 199.203 96.58Z" fill="white"/>
<path d="M203.297 96.3924C203.297 96.496 203.196 96.58 203.073 96.58C202.949 96.58 202.849 96.496 202.849 96.3924C202.849 96.2888 202.949 96.2048 203.073 96.2048C203.196 96.2048 203.297 96.2888 203.297 96.3924Z" fill="white"/>
<path d="M207.166 96.3924C207.166 96.496 207.066 96.58 206.942 96.58C206.819 96.58 206.718 96.496 206.718 96.3924C206.718 96.2888 206.819 96.2048 206.942 96.2048C207.066 96.2048 207.166 96.2888 207.166 96.3924Z" fill="white"/>
<path d="M201.362 93.9876C201.362 94.0912 201.262 94.1753 201.138 94.1753C201.014 94.1753 200.914 94.0912 200.914 93.9876C200.914 93.884 201.014 93.8 201.138 93.8C201.262 93.8 201.362 93.884 201.362 93.9876Z" fill="white"/>
<path d="M205.232 93.9876C205.232 94.0912 205.131 94.1753 205.008 94.1753C204.884 94.1753 204.784 94.0912 204.784 93.9876C204.784 93.884 204.884 93.8 205.008 93.8C205.131 93.8 205.232 93.884 205.232 93.9876Z" fill="white"/>
<path d="M209.101 93.9876C209.101 94.0912 209.001 94.1753 208.877 94.1753C208.754 94.1753 208.653 94.0912 208.653 93.9876C208.653 93.884 208.754 93.8 208.877 93.8C209.001 93.8 209.101 93.884 209.101 93.9876Z" fill="white"/>
<path d="M199.427 101.253C199.427 101.357 199.327 101.441 199.203 101.441C199.079 101.441 198.979 101.357 198.979 101.253C198.979 101.15 199.079 101.066 199.203 101.066C199.327 101.066 199.427 101.15 199.427 101.253Z" fill="white"/>
<path d="M203.297 101.253C203.297 101.357 203.196 101.441 203.073 101.441C202.949 101.441 202.849 101.357 202.849 101.253C202.849 101.15 202.949 101.066 203.073 101.066C203.196 101.066 203.297 101.15 203.297 101.253Z" fill="white"/>
<path d="M207.166 101.253C207.166 101.357 207.066 101.441 206.942 101.441C206.819 101.441 206.718 101.357 206.718 101.253C206.718 101.15 206.819 101.066 206.942 101.066C207.066 101.066 207.166 101.15 207.166 101.253Z" fill="white"/>
<path d="M201.362 98.8484C201.362 98.952 201.262 99.036 201.138 99.036C201.014 99.036 200.914 98.952 200.914 98.8484C200.914 98.7448 201.014 98.6608 201.138 98.6608C201.262 98.6608 201.362 98.7448 201.362 98.8484Z" fill="white"/>
<path d="M205.232 98.8484C205.232 98.952 205.131 99.036 205.008 99.036C204.884 99.036 204.784 98.952 204.784 98.8484C204.784 98.7448 204.884 98.6608 205.008 98.6608C205.131 98.6608 205.232 98.7448 205.232 98.8484Z" fill="white"/>
<path d="M209.101 98.8484C209.101 98.952 209.001 99.036 208.877 99.036C208.754 99.036 208.653 98.952 208.653 98.8484C208.653 98.7448 208.754 98.6608 208.877 98.6608C209.001 98.6608 209.101 98.7448 209.101 98.8484Z" fill="white"/>
<path d="M207.166 106.114C207.166 106.218 207.066 106.302 206.942 106.302C206.819 106.302 206.718 106.218 206.718 106.114C206.718 106.01 206.819 105.926 206.942 105.926C207.066 105.926 207.166 106.01 207.166 106.114Z" fill="white"/>
<path d="M201.362 103.709C201.362 103.813 201.262 103.897 201.138 103.897C201.014 103.897 200.914 103.813 200.914 103.709C200.914 103.606 201.014 103.522 201.138 103.522C201.262 103.522 201.362 103.606 201.362 103.709Z" fill="white"/>
<path d="M205.232 103.709C205.232 103.813 205.131 103.897 205.008 103.897C204.884 103.897 204.784 103.813 204.784 103.709C204.784 103.606 204.884 103.522 205.008 103.522C205.131 103.522 205.232 103.606 205.232 103.709Z" fill="white"/>
<path d="M209.101 103.709C209.101 103.813 209.001 103.897 208.877 103.897C208.754 103.897 208.653 103.813 208.653 103.709C208.653 103.606 208.754 103.522 208.877 103.522C209.001 103.522 209.101 103.606 209.101 103.709Z" fill="white"/>
<path d="M210.219 97.8616C209.883 102.124 208.309 106.938 208.309 106.938L195.903 103.275C195.903 103.275 199.069 96.5472 199.146 95.4416C199.255 93.8344 196.62 88.7132 193.866 83.7936C191.634 79.8084 191.58 77.506 194.488 78.3076L210.219 97.8616Z" fill="#263238"/>
<path d="M193.185 78.7116C193.118 79.0432 191.412 81.2596 189.624 81.2812C189.042 81.2876 188.859 78.6272 188.859 78.6272L188.792 78.4336L187.854 75.72L191.561 73.4472L192.099 73.144C192.099 73.144 192.296 73.9004 192.532 74.8448C192.543 74.8884 192.554 74.9324 192.565 74.9792C192.58 75.0324 192.595 75.0824 192.606 75.1324C192.643 75.2732 192.681 75.4168 192.715 75.5608C192.741 75.67 192.767 75.7764 192.789 75.892C192.815 76.0076 192.838 76.1204 192.864 76.236C193.091 77.38 193.211 78.5712 193.185 78.7116Z" fill="#FFC9C1"/>
<path d="M192.532 74.8448C191.752 77.0832 189.729 78.0836 188.792 78.4336L187.854 75.72L191.561 73.4472L192.099 73.144C192.099 73.144 192.297 73.9004 192.532 74.8448Z" fill="#263238"/>
<path d="M183.58 70.9824C182.206 75.8044 185.471 77.0836 186.741 77.2852C187.88 77.466 191.741 78.1532 193.703 73.476C195.665 68.7988 193.423 66.7392 190.876 66.112C188.33 65.4852 184.954 66.1604 183.58 70.9824Z" fill="#FFC9C1"/>
<path d="M184.06 70.1768C184.2 70.1776 184.328 70.1588 184.467 70.1476C184.623 70.1348 184.749 70.1384 184.876 70.0516C184.944 70.0052 184.955 69.8972 184.907 69.838C184.796 69.6996 184.6 69.6752 184.411 69.684C184.206 69.6936 184.051 69.7448 183.9 69.86C183.753 69.972 183.875 70.1756 184.06 70.1768Z" fill="#263238"/>
<path d="M187.832 70.6429C187.696 70.6169 187.575 70.5741 187.443 70.5365C187.294 70.4945 187.171 70.4737 187.071 70.3649C187.018 70.3065 187.037 70.1997 187.1 70.1509C187.246 70.0373 187.443 70.0509 187.624 70.0957C187.821 70.1441 187.958 70.2237 188.074 70.3649C188.186 70.5017 188.012 70.6769 187.832 70.6429Z" fill="#263238"/>
<path d="M186.736 71.8208C186.741 71.8084 186.764 71.8404 186.761 71.854C186.69 72.1864 186.675 72.5772 187.016 72.7324C187.027 72.7372 187.023 72.754 187.01 72.7508C186.579 72.6448 186.605 72.126 186.736 71.8208Z" fill="#263238"/>
<path d="M187.154 71.516C187.802 71.5544 187.663 72.6376 187.062 72.602C186.471 72.5672 186.61 71.484 187.154 71.516Z" fill="#263238"/>
<path d="M187.4 71.596C187.505 71.6676 187.602 71.7856 187.737 71.8092C187.893 71.8364 188.026 71.7336 188.143 71.634C188.155 71.6236 188.165 71.634 188.164 71.6484C188.141 71.8564 188.018 72.0608 187.748 72.0676C187.502 72.074 187.352 71.8744 187.316 71.6604C187.31 71.6208 187.358 71.5672 187.4 71.596Z" fill="#263238"/>
<path d="M184.654 71.4832C184.652 71.47 184.62 71.4964 184.619 71.5104C184.592 71.8472 184.493 72.2292 184.117 72.3108C184.105 72.3132 184.104 72.3304 184.118 72.33C184.567 72.3144 184.692 71.806 184.654 71.4832Z" fill="#263238"/>
<path d="M184.337 71.1028C183.697 71.008 183.517 72.0872 184.111 72.1752C184.694 72.2612 184.874 71.182 184.337 71.1028Z" fill="#263238"/>
<path d="M184.057 71.1424C183.945 71.1876 183.827 71.28 183.705 71.2724C183.562 71.2636 183.478 71.1348 183.406 71.0124C183.398 70.9996 183.387 71.0076 183.384 71.0216C183.343 71.2272 183.389 71.4516 183.619 71.5188C183.828 71.58 184.016 71.4216 184.109 71.2228C184.127 71.186 184.101 71.124 184.057 71.1424Z" fill="#263238"/>
<path d="M186.577 74.3872C186.495 74.4776 186.42 74.5976 186.278 74.6264C186.141 74.654 185.969 74.6228 185.834 74.598C185.821 74.5956 185.81 74.6084 185.82 74.6172C185.947 74.732 186.179 74.784 186.359 74.7328C186.534 74.6832 186.6 74.5412 186.618 74.3972C186.62 74.3772 186.588 74.374 186.577 74.3872Z" fill="#263238"/>
<path d="M184.957 73.0768C184.957 73.0768 184.803 73.5692 184.769 73.8052C184.766 73.8272 184.833 73.8448 184.928 73.8588C184.932 73.8604 184.935 73.862 184.939 73.86C185.428 73.9748 185.95 73.8812 186.3 73.5708C186.323 73.5496 186.291 73.5216 186.263 73.534C185.859 73.7256 185.439 73.7432 184.997 73.7052C184.987 73.638 185.294 72.8696 185.25 72.862C185.097 72.8356 184.782 72.8928 184.593 72.9192C184.878 71.886 185.359 70.8992 185.624 69.8668C185.633 69.8296 185.571 69.8124 185.553 69.844C184.961 70.848 184.602 72.0312 184.275 73.092C184.233 73.2252 184.839 73.1056 184.957 73.0768Z" fill="#263238"/>
<path d="M184.963 73.722C184.963 73.722 185.161 74.0808 185.509 74.2588C185.638 74.3248 185.783 74.3672 185.948 74.3596C186.288 74.3448 186.357 74.0992 186.351 73.8772C186.347 73.6948 186.287 73.528 186.287 73.528C186.287 73.528 185.726 73.8144 184.963 73.722Z" fill="#263238"/>
<path d="M185.509 74.2588C185.638 74.3248 185.783 74.3672 185.948 74.3596C186.288 74.3448 186.357 74.0992 186.351 73.8772C185.999 73.8468 185.609 73.9832 185.509 74.2588Z" fill="#FF98B9"/>
<path d="M193.604 73.3144C192.968 73.2068 191.55 71.5336 191.936 68.9372C191.936 68.9372 191.782 71.2888 191.933 71.6544C192.084 72.02 191.141 70.7136 191.417 68.616C191.417 68.616 189.894 69.2876 188.67 69.4248C187.446 69.562 186.726 69.4672 186.654 69.386C186.582 69.3048 188.393 69.0524 188.938 68.6552C188.938 68.6552 185.599 69.5044 184.139 69.4256C183.97 69.4164 184.256 66.5156 186.695 65.5584C189.134 64.6016 192.449 66.3388 193.27 67.2208C193.27 67.2208 194.364 67.486 195.344 69.0132C196.325 70.5396 194.288 73.4304 193.604 73.3144Z" fill="#263238"/>
<path d="M214.493 160.742L205.207 162.292L199.129 163.306C199.129 163.306 192.882 141.944 191.825 132.72C190.823 123.974 189.344 110.157 191.317 97.574H203.075C204.073 99.0328 208.95 104.238 206.382 112.512C206.019 113.682 206.845 124.327 208.151 131.553C209.372 138.262 214.493 160.742 214.493 160.742Z" fill="#E1B7E7"/>
<path d="M205.207 162.292L199.129 163.306C199.129 163.306 192.882 141.944 191.825 132.72C190.823 123.974 189.344 110.157 191.317 97.574H195.471C197.435 109.496 203.066 149.333 205.207 162.292Z" fill="#263238"/>
<path d="M214.792 162.585C214.943 163.392 215.088 164.186 215.22 164.956C215.303 165.436 215.381 165.904 215.455 166.356C215.933 169.269 216.202 171.514 215.937 171.714C215.121 172.334 191.091 175.864 190.201 175.754C189.314 175.641 189.633 173.511 190.435 172.751C190.923 172.29 194.248 170.335 196.78 168.875C196.787 168.871 196.79 168.868 196.79 168.868C198.419 167.931 199.718 167.195 199.718 167.195L199.155 164.843L196.564 154.136L212.646 151.814C212.646 151.814 213.824 157.348 214.792 162.585Z" fill="#EBEBEB"/>
<path d="M197.585 166.591C198.918 165.795 200.807 165.288 202.406 165.724C202.468 165.741 202.438 165.815 202.384 165.821C200.733 166.001 199.253 166.281 197.677 166.744C197.566 166.776 197.49 166.648 197.585 166.591Z" fill="#263238"/>
<path d="M197.358 165.49C198.691 164.693 200.58 164.186 202.179 164.623C202.241 164.64 202.211 164.713 202.157 164.719C200.506 164.9 199.026 165.179 197.45 165.642C197.339 165.674 197.263 165.546 197.358 165.49Z" fill="#263238"/>
<path d="M197.132 164.388C198.464 163.592 200.354 163.084 201.952 163.521C202.014 163.538 201.984 163.612 201.93 163.618C200.279 163.798 198.799 164.078 197.223 164.54C197.112 164.573 197.036 164.445 197.132 164.388Z" fill="#263238"/>
<path d="M196.905 163.286C198.237 162.49 200.126 161.983 201.725 162.42C201.787 162.436 201.757 162.51 201.703 162.516C200.052 162.696 198.572 162.976 196.996 163.439C196.885 163.471 196.81 163.344 196.905 163.286Z" fill="#263238"/>
<path d="M196.678 162.185C198.01 161.388 199.9 160.881 201.498 161.318C201.56 161.335 201.53 161.408 201.476 161.414C199.825 161.595 198.345 161.874 196.769 162.337C196.659 162.37 196.583 162.242 196.678 162.185Z" fill="#263238"/>
<path d="M216.157 171.804C215.584 172.484 203.472 174.276 195.749 175.268C192.205 175.72 189.593 176.008 189.44 175.94C188.953 175.716 188.991 173.596 190.515 172.024C191.36 171.152 195.697 168.68 197.693 167.556C198.319 167.208 198.715 166.992 198.715 166.992L196.991 160.176L196.618 158.704L196.232 157.172C196.733 157.168 213.765 154.636 213.765 154.636C213.765 154.636 213.884 155.236 214.07 156.212C214.156 156.64 214.252 157.144 214.357 157.7C215.24 162.44 216.759 171.088 216.157 171.804Z" fill="#FFC727"/>
<path d="M216.441 171.751L188.989 175.714L189.254 177.001L216.706 173.037L216.441 171.751Z" fill="#263238"/>
<path opacity="0.1" d="M214.357 157.7L196.991 160.176L196.618 158.704L214.07 156.212C214.156 156.64 214.252 157.144 214.357 157.7Z" fill="black"/>
<path d="M197.695 167.557L195.749 175.269C192.206 175.721 189.594 176.006 189.44 175.938C188.954 175.718 188.991 173.598 190.515 172.025C191.358 171.151 195.695 168.678 197.695 167.557Z" fill="#263238"/>
<path d="M197.379 112.064C197.375 112.074 195.248 125.2 194.475 131.812C194.281 133.46 194.053 152.051 194.053 156.137V159.082C194.05 162.852 194.05 165.534 194.05 165.534H178.103C178.103 165.534 178.1 165.409 178.096 165.174C178.092 165.049 178.088 164.896 178.088 164.712C178.081 164.524 178.077 164.308 178.073 164.061C178.07 163.918 178.066 163.761 178.062 163.598C178.044 162.473 178.014 160.916 177.98 159.1C177.965 158.172 177.95 157.178 177.935 156.136C177.812 148.049 181.208 104.42 184.501 97.5744H201.634C201.634 97.5744 204.456 105.618 197.379 112.064Z" fill="#E1B7E7"/>
<path d="M202.908 109.014C201.638 109.612 200.374 110.221 199.105 110.821C198.479 111.116 197.841 111.393 197.208 111.678C196.564 111.967 195.889 112.211 195.258 112.52C195.22 112.539 195.249 112.584 195.289 112.577C196.021 112.445 196.728 112.198 197.423 111.966C198.093 111.742 198.74 111.473 199.378 111.19C200.673 110.616 201.884 109.902 202.96 109.067C202.994 109.04 202.947 108.996 202.908 109.014Z" fill="#263238"/>
<path d="M187.413 97.8992C186.193 102.075 185.239 106.288 184.611 110.556C183.979 114.858 183.557 119.188 183.09 123.504C182.152 132.192 181.339 140.895 181.103 149.619C180.972 154.502 181.084 159.394 181.451 164.269C181.454 164.309 181.527 164.308 181.525 164.267C181.213 155.598 181.547 146.912 182.207 138.26C182.539 133.904 182.959 129.554 183.417 125.207C183.869 120.905 184.305 116.601 184.828 112.305C185.415 107.478 186.282 102.666 187.579 97.9344C187.604 97.844 187.439 97.8092 187.413 97.8992Z" fill="#263238"/>
<path d="M194.024 167.057C194.009 167.873 193.991 168.676 193.964 169.455C193.95 169.939 193.931 170.412 193.912 170.868C193.793 173.806 193.602 176.058 193.3 176.217C192.371 176.711 167.974 176.77 167.119 176.536C166.268 176.298 167.014 174.244 167.958 173.61C168.533 173.225 172.206 171.771 174.998 170.693C175.006 170.69 175.009 170.686 175.009 170.686C176.805 169.996 178.235 169.455 178.235 169.455L178.156 167.057L177.776 156.138H194.095C194.095 156.138 194.132 161.758 194.024 167.057Z" fill="#EBEBEB"/>
<path d="M176.255 168.556C177.73 167.961 179.694 167.73 181.181 168.388C181.239 168.414 181.194 168.482 181.14 168.48C179.476 168.422 177.961 168.487 176.315 168.719C176.199 168.736 176.149 168.599 176.255 168.556Z" fill="#263238"/>
<path d="M176.255 167.439C177.73 166.844 179.694 166.613 181.181 167.27C181.239 167.296 181.194 167.364 181.14 167.362C179.476 167.305 177.961 167.37 176.315 167.602C176.199 167.618 176.149 167.481 176.255 167.439Z" fill="#263238"/>
<path d="M176.255 166.321C177.73 165.726 179.694 165.495 181.181 166.152C181.239 166.178 181.194 166.246 181.14 166.244C179.476 166.187 177.961 166.252 176.315 166.484C176.199 166.5 176.149 166.364 176.255 166.321Z" fill="#263238"/>
<path d="M176.255 165.203C177.73 164.608 179.694 164.377 181.181 165.035C181.239 165.06 181.194 165.128 181.14 165.126C179.476 165.069 177.961 165.134 176.315 165.366C176.199 165.382 176.149 165.246 176.255 165.203Z" fill="#263238"/>
<path d="M176.255 164.085C177.73 163.49 179.694 163.259 181.181 163.917C181.239 163.942 181.194 164.01 181.14 164.009C179.476 163.952 177.961 164.016 176.315 164.248C176.199 164.264 176.149 164.128 176.255 164.085Z" fill="#263238"/>
<path d="M194.622 159.08C194.622 159.08 194.617 159.652 194.608 160.584C194.603 161.016 194.593 161.524 194.584 162.092C194.498 166.868 194.245 175.712 193.499 176.336C192.477 177.196 166.768 176.896 166.333 176.608C165.898 176.324 166.366 174.24 168.181 172.904C169.509 171.936 177.285 169.112 177.285 169.112L176.969 162.092L176.898 160.584L176.831 159.08C177.328 159.148 194.622 159.08 194.622 159.08Z" fill="#FFC727"/>
<path d="M193.786 176.312H165.931V177.618H193.786V176.312Z" fill="#263238"/>
<path opacity="0.1" d="M194.607 160.584C194.603 161.016 194.593 161.524 194.583 162.092H176.969L176.897 160.584H194.607Z" fill="black"/>
<path d="M183.553 92.3964L181.976 101.004L206.485 100.868C206.485 100.868 201.653 84.474 196.517 79.3168C194.635 77.4268 190.813 77.8648 188.849 79.6544C186.79 81.5308 182.827 85.752 182.325 88.098C181.887 90.1688 183.553 92.3964 183.553 92.3964Z" fill="#FFC727"/>
<path d="M187.818 81.8096C187.818 81.9132 187.718 81.9972 187.594 81.9972C187.47 81.9972 187.37 81.9132 187.37 81.8096C187.37 81.706 187.47 81.622 187.594 81.622C187.718 81.622 187.818 81.706 187.818 81.8096Z" fill="white"/>
<path d="M191.688 81.8096C191.688 81.9132 191.587 81.9972 191.464 81.9972C191.34 81.9972 191.24 81.9132 191.24 81.8096C191.24 81.706 191.34 81.622 191.464 81.622C191.587 81.622 191.688 81.706 191.688 81.8096Z" fill="white"/>
<path d="M195.557 81.8096C195.557 81.9132 195.457 81.9972 195.333 81.9972C195.21 81.9972 195.109 81.9132 195.109 81.8096C195.109 81.706 195.21 81.622 195.333 81.622C195.457 81.622 195.557 81.706 195.557 81.8096Z" fill="white"/>
<path d="M189.753 79.4048C189.753 79.5084 189.652 79.5924 189.529 79.5924C189.405 79.5924 189.305 79.5084 189.305 79.4048C189.305 79.3012 189.405 79.2172 189.529 79.2172C189.652 79.2172 189.753 79.3012 189.753 79.4048Z" fill="white"/>
<path d="M193.622 79.4048C193.622 79.5084 193.522 79.5924 193.398 79.5924C193.275 79.5924 193.174 79.5084 193.174 79.4048C193.174 79.3012 193.275 79.2172 193.398 79.2172C193.522 79.2172 193.622 79.3012 193.622 79.4048Z" fill="white"/>
<path d="M183.949 86.6704C183.949 86.774 183.849 86.8581 183.725 86.8581C183.601 86.8581 183.501 86.774 183.501 86.6704C183.501 86.5668 183.601 86.4828 183.725 86.4828C183.849 86.4828 183.949 86.5668 183.949 86.6704Z" fill="white"/>
<path d="M187.818 86.6704C187.818 86.774 187.718 86.8581 187.594 86.8581C187.47 86.8581 187.37 86.774 187.37 86.6704C187.37 86.5668 187.47 86.4828 187.594 86.4828C187.718 86.4828 187.818 86.5668 187.818 86.6704Z" fill="white"/>
<path d="M191.688 86.6704C191.688 86.774 191.587 86.8581 191.464 86.8581C191.34 86.8581 191.24 86.774 191.24 86.6704C191.24 86.5668 191.34 86.4828 191.464 86.4828C191.587 86.4828 191.688 86.5668 191.688 86.6704Z" fill="white"/>
<path d="M195.557 86.6704C195.557 86.774 195.457 86.8581 195.333 86.8581C195.21 86.8581 195.109 86.774 195.109 86.6704C195.109 86.5668 195.21 86.4828 195.333 86.4828C195.457 86.4828 195.557 86.5668 195.557 86.6704Z" fill="white"/>
<path d="M199.427 86.6704C199.427 86.774 199.326 86.8581 199.203 86.8581C199.079 86.8581 198.979 86.774 198.979 86.6704C198.979 86.5668 199.079 86.4828 199.203 86.4828C199.326 86.4828 199.427 86.5668 199.427 86.6704Z" fill="white"/>
<path d="M185.884 84.2656C185.884 84.3692 185.783 84.4532 185.66 84.4532C185.536 84.4532 185.436 84.3692 185.436 84.2656C185.436 84.162 185.536 84.078 185.66 84.078C185.783 84.078 185.884 84.162 185.884 84.2656Z" fill="white"/>
<path d="M189.753 84.2656C189.753 84.3692 189.652 84.4532 189.529 84.4532C189.405 84.4532 189.305 84.3692 189.305 84.2656C189.305 84.162 189.405 84.078 189.529 84.078C189.652 84.078 189.753 84.162 189.753 84.2656Z" fill="white"/>
<path d="M193.622 84.2656C193.622 84.3692 193.522 84.4532 193.398 84.4532C193.275 84.4532 193.174 84.3692 193.174 84.2656C193.174 84.162 193.275 84.078 193.398 84.078C193.522 84.078 193.622 84.162 193.622 84.2656Z" fill="white"/>
<path d="M197.492 84.2656C197.492 84.3692 197.392 84.4532 197.268 84.4532C197.144 84.4532 197.044 84.3692 197.044 84.2656C197.044 84.162 197.144 84.078 197.268 84.078C197.392 84.078 197.492 84.162 197.492 84.2656Z" fill="white"/>
<path d="M183.949 91.5316C183.949 91.6352 183.849 91.7192 183.725 91.7192C183.601 91.7192 183.501 91.6352 183.501 91.5316C183.501 91.428 183.601 91.344 183.725 91.344C183.849 91.344 183.949 91.428 183.949 91.5316Z" fill="white"/>
<path d="M187.818 91.5316C187.818 91.6352 187.718 91.7192 187.594 91.7192C187.47 91.7192 187.37 91.6352 187.37 91.5316C187.37 91.428 187.47 91.344 187.594 91.344C187.718 91.344 187.818 91.428 187.818 91.5316Z" fill="white"/>
<path d="M191.464 91.7192C191.587 91.7192 191.688 91.6352 191.688 91.5316C191.688 91.428 191.587 91.344 191.464 91.344C191.34 91.344 191.24 91.428 191.24 91.5316C191.24 91.6352 191.34 91.7192 191.464 91.7192Z" fill="white"/>
<path d="M195.557 91.5316C195.557 91.6352 195.457 91.7192 195.333 91.7192C195.21 91.7192 195.109 91.6352 195.109 91.5316C195.109 91.428 195.21 91.344 195.333 91.344C195.457 91.344 195.557 91.428 195.557 91.5316Z" fill="white"/>
<path d="M199.203 91.7192C199.326 91.7192 199.427 91.6352 199.427 91.5316C199.427 91.428 199.326 91.344 199.203 91.344C199.079 91.344 198.979 91.428 198.979 91.5316C198.979 91.6352 199.079 91.7192 199.203 91.7192Z" fill="white"/>
<path d="M203.296 91.5316C203.296 91.6352 203.196 91.7192 203.072 91.7192C202.948 91.7192 202.848 91.6352 202.848 91.5316C202.848 91.428 202.948 91.344 203.072 91.344C203.196 91.344 203.296 91.428 203.296 91.5316Z" fill="white"/>
<path d="M185.884 89.1264C185.884 89.23 185.783 89.314 185.66 89.314C185.536 89.314 185.436 89.23 185.436 89.1264C185.436 89.0228 185.536 88.9388 185.66 88.9388C185.783 88.9388 185.884 89.0228 185.884 89.1264Z" fill="white"/>
<path d="M189.753 89.1264C189.753 89.23 189.652 89.314 189.529 89.314C189.405 89.314 189.305 89.23 189.305 89.1264C189.305 89.0228 189.405 88.9388 189.529 88.9388C189.652 88.9388 189.753 89.0228 189.753 89.1264Z" fill="white"/>
<path d="M193.622 89.1264C193.622 89.23 193.522 89.314 193.398 89.314C193.275 89.314 193.174 89.23 193.174 89.1264C193.174 89.0228 193.275 88.9388 193.398 88.9388C193.522 88.9388 193.622 89.0228 193.622 89.1264Z" fill="white"/>
<path d="M197.492 89.1264C197.492 89.23 197.392 89.314 197.268 89.314C197.144 89.314 197.044 89.23 197.044 89.1264C197.044 89.0228 197.144 88.9388 197.268 88.9388C197.392 88.9388 197.492 89.0228 197.492 89.1264Z" fill="white"/>
<path d="M201.361 89.1264C201.361 89.23 201.261 89.314 201.137 89.314C201.013 89.314 200.913 89.23 200.913 89.1264C200.913 89.0228 201.013 88.9388 201.137 88.9388C201.261 88.9388 201.361 89.0228 201.361 89.1264Z" fill="white"/>
<path d="M183.949 96.3924C183.949 96.496 183.849 96.58 183.725 96.58C183.601 96.58 183.501 96.496 183.501 96.3924C183.501 96.2888 183.601 96.2048 183.725 96.2048C183.849 96.2048 183.949 96.2888 183.949 96.3924Z" fill="white"/>
<path d="M187.818 96.3924C187.818 96.496 187.718 96.58 187.594 96.58C187.47 96.58 187.37 96.496 187.37 96.3924C187.37 96.2888 187.47 96.2048 187.594 96.2048C187.718 96.2048 187.818 96.2888 187.818 96.3924Z" fill="white"/>
<path d="M191.464 96.58C191.587 96.58 191.688 96.496 191.688 96.3924C191.688 96.2888 191.587 96.2048 191.464 96.2048C191.34 96.2048 191.24 96.2888 191.24 96.3924C191.24 96.496 191.34 96.58 191.464 96.58Z" fill="white"/>
<path d="M195.557 96.3924C195.557 96.496 195.457 96.58 195.333 96.58C195.21 96.58 195.109 96.496 195.109 96.3924C195.109 96.2888 195.21 96.2048 195.333 96.2048C195.457 96.2048 195.557 96.2888 195.557 96.3924Z" fill="white"/>
<path d="M199.203 96.58C199.326 96.58 199.427 96.496 199.427 96.3924C199.427 96.2888 199.326 96.2048 199.203 96.2048C199.079 96.2048 198.979 96.2888 198.979 96.3924C198.979 96.496 199.079 96.58 199.203 96.58Z" fill="white"/>
<path d="M203.296 96.3924C203.296 96.496 203.196 96.58 203.072 96.58C202.948 96.58 202.848 96.496 202.848 96.3924C202.848 96.2888 202.948 96.2048 203.072 96.2048C203.196 96.2048 203.296 96.2888 203.296 96.3924Z" fill="white"/>
<path d="M185.884 93.9876C185.884 94.0912 185.783 94.1753 185.66 94.1753C185.536 94.1753 185.436 94.0912 185.436 93.9876C185.436 93.884 185.536 93.8 185.66 93.8C185.783 93.8 185.884 93.884 185.884 93.9876Z" fill="white"/>
<path d="M189.753 93.9876C189.753 94.0912 189.652 94.1753 189.529 94.1753C189.405 94.1753 189.305 94.0912 189.305 93.9876C189.305 93.884 189.405 93.8 189.529 93.8C189.652 93.8 189.753 93.884 189.753 93.9876Z" fill="white"/>
<path d="M193.622 93.9876C193.622 94.0912 193.522 94.1753 193.398 94.1753C193.275 94.1753 193.174 94.0912 193.174 93.9876C193.174 93.884 193.275 93.8 193.398 93.8C193.522 93.8 193.622 93.884 193.622 93.9876Z" fill="white"/>
<path d="M197.492 93.9876C197.492 94.0912 197.392 94.1753 197.268 94.1753C197.144 94.1753 197.044 94.0912 197.044 93.9876C197.044 93.884 197.144 93.8 197.268 93.8C197.392 93.8 197.492 93.884 197.492 93.9876Z" fill="white"/>
<path d="M201.361 93.9876C201.361 94.0912 201.261 94.1753 201.137 94.1753C201.013 94.1753 200.913 94.0912 200.913 93.9876C200.913 93.884 201.013 93.8 201.137 93.8C201.261 93.8 201.361 93.884 201.361 93.9876Z" fill="white"/>
<path d="M185.884 98.8484C185.884 98.952 185.783 99.036 185.66 99.036C185.536 99.036 185.436 98.952 185.436 98.8484C185.436 98.7448 185.536 98.6608 185.66 98.6608C185.783 98.6608 185.884 98.7448 185.884 98.8484Z" fill="white"/>
<path d="M189.753 98.8484C189.753 98.952 189.652 99.036 189.529 99.036C189.405 99.036 189.305 98.952 189.305 98.8484C189.305 98.7448 189.405 98.6608 189.529 98.6608C189.652 98.6608 189.753 98.7448 189.753 98.8484Z" fill="white"/>
<path d="M193.622 98.8484C193.622 98.952 193.522 99.036 193.398 99.036C193.275 99.036 193.174 98.952 193.174 98.8484C193.174 98.7448 193.275 98.6608 193.398 98.6608C193.522 98.6608 193.622 98.7448 193.622 98.8484Z" fill="white"/>
<path d="M197.492 98.8484C197.492 98.952 197.392 99.036 197.268 99.036C197.144 99.036 197.044 98.952 197.044 98.8484C197.044 98.7448 197.144 98.6608 197.268 98.6608C197.392 98.6608 197.492 98.7448 197.492 98.8484Z" fill="white"/>
<path d="M201.361 98.8484C201.361 98.952 201.261 99.036 201.137 99.036C201.013 99.036 200.913 98.952 200.913 98.8484C200.913 98.7448 201.013 98.6608 201.137 98.6608C201.261 98.6608 201.361 98.7448 201.361 98.8484Z" fill="white"/>
<path d="M205.231 98.8484C205.231 98.952 205.13 99.036 205.007 99.036C204.883 99.036 204.783 98.952 204.783 98.8484C204.783 98.7448 204.883 98.6608 205.007 98.6608C205.13 98.6608 205.231 98.7448 205.231 98.8484Z" fill="white"/>
<path d="M205.516 99.6884C204.805 99.6292 204.082 99.6356 203.367 99.6216C202.635 99.6076 201.902 99.5944 201.17 99.5824C199.705 99.558 198.241 99.5448 196.776 99.5324C193.827 99.5068 190.879 99.4484 187.93 99.5352C187.1 99.5596 186.269 99.5796 185.439 99.6088C184.61 99.638 183.779 99.6964 182.95 99.7136C182.902 99.7148 182.904 99.7672 182.953 99.7668C183.704 99.7604 184.46 99.7948 185.211 99.8036C185.924 99.812 186.637 99.816 187.35 99.8228C188.814 99.8364 190.279 99.8348 191.744 99.8288C194.671 99.8168 197.598 99.7748 200.525 99.7644C201.356 99.7616 202.187 99.7604 203.017 99.7604C203.844 99.7604 204.683 99.79 205.507 99.7412C205.548 99.7384 205.559 99.692 205.516 99.6884Z" fill="#263238"/>
<path d="M192.103 82.32C190.447 84.58 184.009 90.1288 179.174 91.204C174.959 92.1412 164.751 88.564 161.552 87.094C160.356 86.544 163.847 78.0692 165.221 78.4808C167.067 79.0332 176.889 83.7584 177.927 83.4768C178.966 83.1952 186.805 80.2476 188.638 79.528C192.812 77.89 194.591 78.9232 192.103 82.32Z" fill="#FFC9C1"/>
<path d="M165.586 78.6668C165.586 78.6668 160.261 76.2976 159.154 75.7612C156.931 74.6856 147.733 72.6828 146.594 72.7652C145.455 72.8476 144.321 74.7028 151.893 77.0196C151.893 77.0196 150.267 79.8076 151.258 81.0876C151.902 81.9196 154.445 84.9664 155.629 85.3508C156.971 85.7864 161.553 87.094 161.553 87.094L165.586 78.6668Z" fill="#FFC9C1"/>
<path d="M157.976 77.6332C157.881 77.6392 153.227 76.4224 151.541 76.5528C149.855 76.6832 148.617 78.6356 148.663 79.17C148.71 79.7044 149.639 82.9992 151.327 82.8956C153.015 82.792 151.772 80.2936 151.81 79.996C151.849 79.6988 151.879 79.3196 152.2 79.3276C152.521 79.3356 158.289 81.208 158.289 81.208L157.976 77.6332Z" fill="#FFC9C1"/>
<path d="M157.511 78.9176C157.415 78.9236 152.761 77.7068 151.075 77.8372C149.389 77.9676 148.151 79.92 148.198 80.4544C148.244 80.9888 149.173 84.2836 150.861 84.18C152.55 84.0764 151.306 81.578 151.344 81.2808C151.382 80.9836 151.413 80.6044 151.734 80.6124C152.055 80.6204 157.823 82.4928 157.823 82.4928L157.511 78.9176Z" fill="#FFC9C1"/>
<path d="M157.527 79.6772C157.433 79.6948 152.617 79.0624 150.972 79.3984C149.327 79.734 148.443 81.8176 148.583 82.3404C148.723 82.8632 150.218 86.0084 151.87 85.6988C153.522 85.3892 151.855 83.0704 151.841 82.7716C151.826 82.4728 151.79 82.094 152.109 82.0624C152.429 82.0308 158.462 83.1752 158.462 83.1752L157.527 79.6772Z" fill="#FFC9C1"/>
<path d="M158.441 80.958C156.855 80.7012 155.06 80.3004 153.39 80.5376C151.721 80.7744 150.663 82.8 150.758 83.33C150.853 83.86 152.078 87.086 153.752 86.8756C155.426 86.6652 153.959 84.2528 153.971 83.954C153.982 83.6552 153.978 83.2748 154.299 83.2628C154.62 83.2508 160.541 84.7508 160.541 84.7508L158.441 80.958Z" fill="#FFC9C1"/>
<path d="M156.748 76.5416C155.672 76.3088 155.281 76.2292 154.172 76.254C153.63 76.266 153.079 76.306 152.544 76.3804C152.264 76.4196 150.895 76.6164 150.252 76.9672C150.205 76.9928 150.195 77.0388 150.242 77.02C150.813 76.7968 152.267 76.6296 152.531 76.6072C153.081 76.5612 153.629 76.522 154.181 76.4988C155.308 76.4512 155.622 76.5132 156.746 76.5632C156.761 76.564 156.762 76.5444 156.748 76.5416Z" fill="#263238"/>
<path d="M156.681 77.8148C155.755 77.7488 154.549 77.646 152.251 77.8024C151.518 77.8524 150.785 78.0004 150.139 78.3024C149.837 78.4436 148.849 78.9944 148.639 79.3608C148.614 79.404 148.667 79.432 148.699 79.3972C148.933 79.144 150.106 78.5904 150.437 78.4764C151.145 78.2324 151.898 78.0972 152.658 78.0332C154.327 77.8928 154.976 77.8744 156.65 77.8716C156.675 77.872 156.831 77.8252 156.681 77.8148Z" fill="#263238"/>
<path d="M156.401 79.1112C155.207 79.1172 152.958 79.2716 151.928 79.4544C151.141 79.594 150.342 79.746 149.755 80.234C149.174 80.7168 148.822 81.206 148.555 81.9144C148.541 81.9532 148.601 81.9808 148.621 81.9444C148.922 81.3992 149.426 80.848 149.969 80.456C150.606 79.9952 151.422 79.7964 152.233 79.6592C154.053 79.3512 154.573 79.364 156.417 79.2308C156.66 79.214 156.624 79.1104 156.401 79.1112Z" fill="#263238"/>
<path d="M155.963 80.4832C155.397 80.5748 153.893 80.8268 153.335 80.9488C152.844 81.056 152.314 81.144 151.915 81.4228C151.56 81.6708 151.309 82.026 151.071 82.3524C150.822 82.6928 150.6 83.0632 150.543 83.4644C150.415 84.3628 151.327 85.026 151.832 85.734C151.857 85.7684 151.92 85.7356 151.895 85.7012C151.633 85.3328 151.413 84.9384 151.192 84.5508C150.972 84.1632 150.819 83.7692 150.941 83.3384C151.046 82.9696 151.289 82.638 151.535 82.324C151.783 82.0064 152.033 81.6548 152.45 81.4768C152.884 81.2916 153.407 81.2124 153.875 81.1092C154.357 81.0032 155.277 80.804 155.762 80.7104C156.769 80.516 157.052 80.3072 155.963 80.4832Z" fill="#263238"/>
<path d="M158.75 84.3221C157.847 84.2985 156.972 84.2733 156.097 84.0597C155.722 83.9681 155.361 83.8481 155.011 83.7029C154.669 83.5605 154.296 83.3989 154.044 83.1529C154.013 83.1225 153.96 83.1685 153.993 83.1985C154.241 83.4241 154.467 83.6441 154.759 83.8265C154.282 84.0397 153.802 84.2661 153.269 84.3569C153.224 84.3645 153.242 84.4153 153.281 84.4181C153.442 84.4289 153.597 84.4233 153.755 84.3961C153.919 84.3681 154.072 84.3137 154.222 84.2537C154.455 84.1609 154.669 84.0317 154.873 83.8961C155.201 84.0773 155.576 84.1993 155.955 84.2821C156.845 84.4773 157.845 84.4565 158.752 84.3693C158.787 84.3653 158.786 84.3229 158.75 84.3221Z" fill="#263238"/>
<path d="M164.314 77.4272L161.523 89.2688C161.523 89.2688 174.131 92.246 178.469 91.5772C182.807 90.9084 189.041 86.3976 191.926 82.7761C194.811 79.1544 193.782 77.2173 188.011 79.3229C182.24 81.4285 178.472 82.5656 177.865 82.6496C177.258 82.7336 164.314 77.4272 164.314 77.4272Z" fill="#FFC727"/>
<path d="M164.602 81.8096C164.602 81.9132 164.502 81.9972 164.378 81.9972C164.254 81.9972 164.154 81.9132 164.154 81.8096C164.154 81.706 164.254 81.622 164.378 81.622C164.502 81.622 164.602 81.706 164.602 81.8096Z" fill="white"/>
<path d="M168.471 81.8096C168.471 81.9132 168.371 81.9972 168.247 81.9972C168.123 81.9972 168.023 81.9132 168.023 81.8096C168.023 81.706 168.123 81.622 168.247 81.622C168.371 81.622 168.471 81.706 168.471 81.8096Z" fill="white"/>
<path d="M172.341 81.8096C172.341 81.9132 172.24 81.9972 172.117 81.9972C171.993 81.9972 171.893 81.9132 171.893 81.8096C171.893 81.706 171.993 81.622 172.117 81.622C172.24 81.622 172.341 81.706 172.341 81.8096Z" fill="white"/>
<path d="M183.949 81.8096C183.949 81.9132 183.849 81.9972 183.725 81.9972C183.601 81.9972 183.501 81.9132 183.501 81.8096C183.501 81.706 183.601 81.622 183.725 81.622C183.849 81.622 183.949 81.706 183.949 81.8096Z" fill="white"/>
<path d="M187.818 81.8096C187.818 81.9132 187.718 81.9972 187.594 81.9972C187.47 81.9972 187.37 81.9132 187.37 81.8096C187.37 81.706 187.47 81.622 187.594 81.622C187.718 81.622 187.818 81.706 187.818 81.8096Z" fill="white"/>
<path d="M191.688 81.8096C191.688 81.9132 191.587 81.9972 191.464 81.9972C191.34 81.9972 191.24 81.9132 191.24 81.8096C191.24 81.706 191.34 81.622 191.464 81.622C191.587 81.622 191.688 81.706 191.688 81.8096Z" fill="white"/>
<path d="M166.536 79.4048C166.536 79.5084 166.436 79.5924 166.312 79.5924C166.189 79.5924 166.088 79.5084 166.088 79.4048C166.088 79.3012 166.189 79.2172 166.312 79.2172C166.436 79.2172 166.536 79.3012 166.536 79.4048Z" fill="white"/>
<path d="M189.753 79.4048C189.753 79.5084 189.653 79.5924 189.529 79.5924C189.405 79.5924 189.305 79.5084 189.305 79.4048C189.305 79.3012 189.405 79.2172 189.529 79.2172C189.653 79.2172 189.753 79.3012 189.753 79.4048Z" fill="white"/>
<path d="M193.623 79.4048C193.623 79.5084 193.523 79.5924 193.399 79.5924C193.275 79.5924 193.175 79.5084 193.175 79.4048C193.175 79.3012 193.275 79.2172 193.399 79.2172C193.523 79.2172 193.623 79.3012 193.623 79.4048Z" fill="white"/>
<path d="M164.602 86.6704C164.602 86.774 164.502 86.8581 164.378 86.8581C164.254 86.8581 164.154 86.774 164.154 86.6704C164.154 86.5668 164.254 86.4828 164.378 86.4828C164.502 86.4828 164.602 86.5668 164.602 86.6704Z" fill="white"/>
<path d="M168.471 86.6704C168.471 86.774 168.371 86.8581 168.247 86.8581C168.123 86.8581 168.023 86.774 168.023 86.6704C168.023 86.5668 168.123 86.4828 168.247 86.4828C168.371 86.4828 168.471 86.5668 168.471 86.6704Z" fill="white"/>
<path d="M172.341 86.6704C172.341 86.774 172.24 86.8581 172.117 86.8581C171.993 86.8581 171.893 86.774 171.893 86.6704C171.893 86.5668 171.993 86.4828 172.117 86.4828C172.24 86.4828 172.341 86.5668 172.341 86.6704Z" fill="white"/>
<path d="M176.21 86.6704C176.21 86.774 176.11 86.8581 175.986 86.8581C175.863 86.8581 175.762 86.774 175.762 86.6704C175.762 86.5668 175.863 86.4828 175.986 86.4828C176.11 86.4828 176.21 86.5668 176.21 86.6704Z" fill="white"/>
<path d="M180.079 86.6704C180.079 86.774 179.979 86.8581 179.855 86.8581C179.732 86.8581 179.631 86.774 179.631 86.6704C179.631 86.5668 179.732 86.4828 179.855 86.4828C179.979 86.4828 180.079 86.5668 180.079 86.6704Z" fill="white"/>
<path d="M183.949 86.6704C183.949 86.774 183.849 86.8581 183.725 86.8581C183.601 86.8581 183.501 86.774 183.501 86.6704C183.501 86.5668 183.601 86.4828 183.725 86.4828C183.849 86.4828 183.949 86.5668 183.949 86.6704Z" fill="white"/>
<path d="M187.818 86.6704C187.818 86.774 187.718 86.8581 187.594 86.8581C187.47 86.8581 187.37 86.774 187.37 86.6704C187.37 86.5668 187.47 86.4828 187.594 86.4828C187.718 86.4828 187.818 86.5668 187.818 86.6704Z" fill="white"/>
<path d="M166.536 84.2656C166.536 84.3692 166.436 84.4532 166.312 84.4532C166.189 84.4532 166.088 84.3692 166.088 84.2656C166.088 84.162 166.189 84.078 166.312 84.078C166.436 84.078 166.536 84.162 166.536 84.2656Z" fill="white"/>
<path d="M170.406 84.2656C170.406 84.3692 170.306 84.4532 170.182 84.4532C170.058 84.4532 169.958 84.3692 169.958 84.2656C169.958 84.162 170.058 84.078 170.182 84.078C170.306 84.078 170.406 84.162 170.406 84.2656Z" fill="white"/>
<path d="M174.276 84.2656C174.276 84.3692 174.175 84.4532 174.052 84.4532C173.928 84.4532 173.828 84.3692 173.828 84.2656C173.828 84.162 173.928 84.078 174.052 84.078C174.175 84.078 174.276 84.162 174.276 84.2656Z" fill="white"/>
<path d="M178.145 84.2656C178.145 84.3692 178.044 84.4532 177.921 84.4532C177.797 84.4532 177.697 84.3692 177.697 84.2656C177.697 84.162 177.797 84.078 177.921 84.078C178.044 84.078 178.145 84.162 178.145 84.2656Z" fill="white"/>
<path d="M182.014 84.2656C182.014 84.3692 181.914 84.4532 181.79 84.4532C181.667 84.4532 181.566 84.3692 181.566 84.2656C181.566 84.162 181.667 84.078 181.79 84.078C181.914 84.078 182.014 84.162 182.014 84.2656Z" fill="white"/>
<path d="M185.884 84.2656C185.884 84.3692 185.784 84.4532 185.66 84.4532C185.536 84.4532 185.436 84.3692 185.436 84.2656C185.436 84.162 185.536 84.078 185.66 84.078C185.784 84.078 185.884 84.162 185.884 84.2656Z" fill="white"/>
<path d="M189.753 84.2656C189.753 84.3692 189.653 84.4532 189.529 84.4532C189.405 84.4532 189.305 84.3692 189.305 84.2656C189.305 84.162 189.405 84.078 189.529 84.078C189.653 84.078 189.753 84.162 189.753 84.2656Z" fill="white"/>
<path d="M176.21 91.5316C176.21 91.6352 176.11 91.7192 175.986 91.7192C175.863 91.7192 175.762 91.6352 175.762 91.5316C175.762 91.428 175.863 91.344 175.986 91.344C176.11 91.344 176.21 91.428 176.21 91.5316Z" fill="white"/>
<path d="M162.667 89.1264C162.667 89.23 162.567 89.314 162.443 89.314C162.32 89.314 162.219 89.23 162.219 89.1264C162.219 89.0228 162.32 88.9388 162.443 88.9388C162.567 88.9388 162.667 89.0228 162.667 89.1264Z" fill="white"/>
<path d="M166.536 89.1264C166.536 89.23 166.436 89.314 166.312 89.314C166.189 89.314 166.088 89.23 166.088 89.1264C166.088 89.0228 166.189 88.9388 166.312 88.9388C166.436 88.9388 166.536 89.0228 166.536 89.1264Z" fill="white"/>
<path d="M170.406 89.1264C170.406 89.23 170.306 89.314 170.182 89.314C170.058 89.314 169.958 89.23 169.958 89.1264C169.958 89.0228 170.058 88.9388 170.182 88.9388C170.306 88.9388 170.406 89.0228 170.406 89.1264Z" fill="white"/>
<path d="M174.276 89.1264C174.276 89.23 174.175 89.314 174.052 89.314C173.928 89.314 173.828 89.23 173.828 89.1264C173.828 89.0228 173.928 88.9388 174.052 88.9388C174.175 88.9388 174.276 89.0228 174.276 89.1264Z" fill="white"/>
<path d="M178.145 89.1264C178.145 89.23 178.044 89.314 177.921 89.314C177.797 89.314 177.697 89.23 177.697 89.1264C177.697 89.0228 177.797 88.9388 177.921 88.9388C178.044 88.9388 178.145 89.0228 178.145 89.1264Z" fill="white"/>
<path d="M182.014 89.1264C182.014 89.23 181.914 89.314 181.79 89.314C181.667 89.314 181.566 89.23 181.566 89.1264C181.566 89.0228 181.667 88.9388 181.79 88.9388C181.914 88.9388 182.014 89.0228 182.014 89.1264Z" fill="white"/>
<path d="M166.51 79.5652C166.051 81.1692 165.575 82.7709 165.113 84.3745C164.886 85.1613 164.654 85.9465 164.438 86.7357C164.214 87.5533 163.957 88.3753 163.786 89.2009C163.784 89.2137 163.807 89.2236 163.814 89.21C164.182 88.464 164.46 87.6721 164.738 86.8985C165.022 86.1069 165.268 85.3085 165.495 84.5045C165.955 82.8777 166.306 81.2356 166.583 79.5808C166.589 79.5412 166.522 79.5252 166.51 79.5652Z" fill="#263238"/>
<path d="M189.048 86.8428C187.914 87.3588 186.779 87.9124 185.692 88.4936C184.588 89.0836 183.587 89.7653 182.553 90.4345C182.516 90.4585 182.551 90.5096 182.593 90.4876C183.686 89.9024 184.81 89.3669 185.88 88.7493C186.005 88.6773 186.128 88.6029 186.253 88.5309C186.534 88.4685 186.811 88.3877 187.085 88.3137C187.297 88.2565 187.508 88.1933 187.711 88.1165C187.922 88.0369 188.131 87.9489 188.352 87.8905C188.397 87.8785 188.376 87.8185 188.33 87.8305C188.11 87.8885 187.88 87.9185 187.654 87.9585C187.437 87.9969 187.223 88.0521 187.013 88.1145C186.978 88.1249 186.942 88.1357 186.907 88.1461C187.63 87.7233 188.354 87.3013 189.072 86.8741C189.095 86.8609 189.073 86.8312 189.048 86.8428Z" fill="#263238"/>
<path d="M191.544 72.5916C191.544 72.5916 193.094 71.2204 193.855 71.7056C194.616 72.1904 193.261 74.2896 192.233 74.4716C191.206 74.6536 190.986 73.8604 190.986 73.8604L191.544 72.5916Z" fill="#FFC9C1"/>
<path d="M193.448 72.2988C193.464 72.2996 193.464 72.3184 193.45 72.3212C192.726 72.4676 192.272 72.9528 191.923 73.4712C192.164 73.2848 192.461 73.2036 192.763 73.448C192.779 73.4608 192.758 73.482 192.739 73.4764C192.468 73.3912 192.26 73.4068 192.037 73.5708C191.88 73.6868 191.759 73.8436 191.636 73.9848C191.595 74.032 191.49 73.9908 191.523 73.9348C191.525 73.9308 191.528 73.9264 191.531 73.9224C191.643 73.1912 192.501 72.2556 193.448 72.2988Z" fill="#263238"/>
<path d="M70.4381 174.057C69.577 174.301 44.9045 174.374 43.9612 173.878C43.6025 173.692 43.3805 170.683 43.2353 167.041C43.2037 166.254 43.177 165.442 43.1555 164.617L41.1548 153.596L57.6486 153.507L59.2057 164.531L59.1426 166.956C59.1426 166.956 68.6041 170.466 69.5684 171.102C70.5274 171.739 71.2988 173.813 70.4381 174.057Z" fill="#AD6359"/>
<path d="M70.4379 174.057C69.5768 174.301 44.9043 174.374 43.961 173.878C43.5254 173.65 43.2876 169.256 43.1548 164.617L59.2049 164.531L59.1419 166.956C59.1419 166.956 68.6034 170.467 69.5677 171.103C70.5272 171.739 71.2985 173.813 70.4379 174.057Z" fill="white"/>
<path d="M70.4382 174.057C69.5771 174.301 44.9046 174.374 43.9613 173.878C43.6026 173.692 43.3805 170.683 43.2354 167.041L59.1422 166.956C59.1422 166.956 68.6037 170.466 69.568 171.102C70.5275 171.739 71.2989 173.813 70.4382 174.057Z" fill="#FFC727"/>
<path d="M70.0801 173.231C65.944 173.158 49.2529 173.191 45.1574 173.382C45.124 173.384 45.124 173.403 45.1574 173.404C49.2553 173.551 65.9455 173.405 70.0806 173.288C70.168 173.286 70.1675 173.233 70.0801 173.231Z" fill="#263238"/>
<path d="M67.9773 170.364C66.9962 170.333 66.0391 170.726 65.5066 171.217C64.9946 171.689 64.558 172.351 64.59 173.069C64.591 173.09 64.6364 173.09 64.6402 173.069C64.8709 171.713 66.3381 170.518 67.9777 170.407C68.0107 170.405 68.0112 170.365 67.9773 170.364Z" fill="#263238"/>
<path d="M60.7473 167.296C59.0919 167.281 57.1748 167.776 56.1508 168.913C56.1111 168.957 56.1866 169.004 56.2353 168.982C57.7293 168.332 59.1497 167.846 60.7764 167.466C60.8915 167.439 60.8657 167.296 60.7473 167.296Z" fill="#263238"/>
<path d="M62.0276 167.709C60.3722 167.694 58.455 168.19 57.431 169.326C57.3914 169.37 57.4669 169.417 57.5156 169.396C59.0095 168.745 60.43 168.26 62.0567 167.88C62.1713 167.853 62.146 167.71 62.0276 167.709Z" fill="#263238"/>
<path d="M63.3069 168.122C61.6515 168.108 59.7343 168.603 58.7103 169.74C58.6707 169.784 58.7461 169.83 58.7949 169.809C60.2884 169.159 61.7093 168.673 63.336 168.293C63.4506 168.266 63.4253 168.124 63.3069 168.122Z" fill="#263238"/>
<path d="M64.5862 168.536C62.9308 168.522 61.0136 169.017 59.9896 170.154C59.95 170.198 60.0254 170.244 60.0742 170.223C61.5677 169.572 62.9886 169.087 64.6153 168.706C64.7304 168.68 64.7051 168.537 64.5862 168.536Z" fill="#263238"/>
<path d="M46.1974 170.089C44.3399 170.099 44.3557 172.516 46.216 172.507C48.0729 172.497 48.0577 170.079 46.1974 170.089Z" fill="#263238"/>
<path d="M62.5205 163.591C61.6803 163.011 60.6267 163.583 60.1128 164.189C59.2803 165.17 58.711 166.543 58.6236 167.738C58.6217 167.768 58.6485 167.78 58.6752 167.778C58.711 167.877 58.8515 167.96 58.9732 167.889C60.1491 167.202 61.5075 166.591 62.3968 165.623C62.9164 165.058 63.3157 164.139 62.5205 163.591ZM60.5021 166.543C59.9337 166.892 59.3482 167.216 58.7951 167.583C59.0879 166.891 59.3434 166.192 59.7193 165.526C59.8989 165.208 60.0904 164.884 60.3201 164.589C60.6778 164.13 62.2979 162.966 62.4689 164.474C62.5635 165.306 61.1793 166.127 60.5021 166.543Z" fill="#263238"/>
<path d="M54.5131 168.264C55.955 168.446 57.4404 168.098 58.856 167.91C59.0026 167.89 59.0351 167.749 58.9788 167.656C58.9998 167.642 59.0093 167.618 58.9835 167.598C57.9309 166.787 56.3839 166.128 54.9716 165.905C54.0995 165.767 52.8672 165.966 52.7411 166.872C52.6227 167.728 53.671 168.159 54.5131 168.264ZM53.5106 167.478C52.3853 166.292 54.5159 166.19 55.154 166.313C55.5638 166.392 55.9703 166.514 56.3624 166.64C57.1853 166.902 57.9476 167.257 58.7313 167.586C58.0293 167.642 57.3396 167.749 56.6404 167.827C55.8074 167.921 54.1305 168.132 53.5106 167.478Z" fill="#263238"/>
<path d="M60.6999 163.576L40.7692 163.876C40.7692 163.876 38.0564 149.108 36.2701 139.916C35.5967 136.464 35.0617 133.8 34.8468 132.996C34.331 131.08 24.2295 100.664 24.2295 100.664L38.7202 100.648L43.6683 100.644C43.6683 100.644 43.3531 105.728 43.5393 106.264C46.1232 113.624 51.4056 126.68 53.0534 131.228C55.5847 138.228 60.6999 163.576 60.6999 163.576Z" fill="#7BB0C9"/>
<path d="M58.8875 161.018C56.0251 161 45.8826 160.904 42.0726 161.202C42.0435 161.204 42.0445 161.245 42.0736 161.248C43.3847 161.406 56.0275 161.16 58.8884 161.083C58.9424 161.082 58.9414 161.018 58.8875 161.018Z" fill="#263238"/>
<path d="M41.0951 148.43C40.4064 144.611 39.6427 140.8 38.7911 137.004C38.3723 135.134 37.9171 133.27 37.3349 131.431C36.746 129.57 36.01 127.746 35.2611 125.927C33.7729 122.31 32.341 118.679 31.0094 115.019C29.6792 111.362 28.4246 107.684 27.2644 103.987C27.1173 103.518 26.9688 103.05 26.8083 102.584C26.7949 102.545 26.7276 102.563 26.7367 102.602C27.1899 104.466 27.7764 106.312 28.3419 108.154C28.9084 109.997 29.5083 111.832 30.1382 113.661C31.4034 117.335 32.7727 120.984 34.2567 124.601C34.9965 126.404 35.7621 128.2 36.4164 130.026C37.0698 131.848 37.5818 133.702 38.0355 135.566C38.9564 139.348 39.7378 143.156 40.4661 146.966C41.1983 150.796 41.8106 154.638 42.4205 158.482C42.4979 158.97 42.5738 159.457 42.6483 159.944C42.6693 160.082 42.9277 160.08 42.9096 159.939C42.4181 156.092 41.7853 152.256 41.0951 148.43Z" fill="#263238"/>
<path d="M38.7202 100.648L36.2701 139.916C35.5967 136.464 35.0617 133.8 34.8468 132.996C34.331 131.08 24.2295 100.664 24.2295 100.664L38.7202 100.648Z" fill="#263238"/>
<path d="M44.9256 177.568C44.0544 177.792 18.7515 177.218 17.8216 176.706C17.7896 176.686 17.7581 176.645 17.7261 176.58C17.4495 175.946 17.9802 173.252 17.9529 169.947C17.9529 169.886 18.0122 168.849 18.0934 167.375C18.3112 163.53 18.7057 156.741 18.7057 156.741L35.2038 157.022L34.1106 167.728L33.8565 170.217C33.8565 170.217 43.2057 173.94 44.1447 174.593C45.0842 175.25 45.792 177.344 44.9256 177.568Z" fill="#AD6359"/>
<path d="M44.9256 177.568C44.0544 177.792 18.7515 177.218 17.8216 176.706C17.7896 176.686 17.7581 176.645 17.7261 176.58C17.4495 175.946 17.9802 173.252 17.9529 169.947C17.9529 169.886 18.0122 168.849 18.0934 167.375L34.111 167.728L33.8569 170.216C33.8569 170.216 43.2062 173.94 44.1452 174.593C45.0842 175.25 45.792 177.344 44.9256 177.568Z" fill="white"/>
<path d="M44.9244 177.567C44.0561 177.792 18.7494 177.22 17.8223 176.704C17.4694 176.51 17.3294 173.688 17.9532 169.949L33.8572 170.217C33.8572 170.217 43.2041 173.937 44.1483 174.594C45.0873 175.252 45.7927 177.342 44.9244 177.567Z" fill="#FFC727"/>
<path d="M44.5932 176.734C40.4609 176.569 23.7741 176.231 19.6742 176.331C19.6408 176.332 19.6403 176.351 19.6738 176.353C23.7655 176.591 40.4547 176.816 44.5917 176.79C44.6791 176.79 44.6806 176.737 44.5932 176.734Z" fill="#263238"/>
<path d="M42.5823 173.821C41.6027 173.768 40.6336 174.14 40.0853 174.619C39.5585 175.079 39.1009 175.731 39.1105 176.45C39.1105 176.471 39.1563 176.472 39.1606 176.451C39.4338 175.1 40.9383 173.938 42.5813 173.864C42.6143 173.862 42.6162 173.822 42.5823 173.821Z" fill="#263238"/>
<path d="M35.4516 170.593C33.7972 170.542 31.8648 170.994 30.8054 172.108C30.7643 172.151 30.8384 172.199 30.888 172.179C32.4021 171.562 33.8373 171.108 35.4755 170.764C35.5911 170.74 35.5701 170.596 35.4516 170.593Z" fill="#263238"/>
<path d="M36.7182 171.034C35.0638 170.983 33.1318 171.436 32.072 172.549C32.0309 172.592 32.105 172.64 32.1546 172.62C33.6687 172.003 35.1039 171.55 36.7421 171.206C36.8572 171.181 36.8367 171.038 36.7182 171.034Z" fill="#263238"/>
<path d="M37.9843 171.476C36.3299 171.425 34.3975 171.878 33.3381 172.991C33.297 173.034 33.3711 173.082 33.4207 173.062C34.9348 172.445 36.37 171.992 38.0082 171.648C38.1233 171.623 38.1028 171.48 37.9843 171.476Z" fill="#263238"/>
<path d="M39.2504 171.918C37.596 171.867 35.6641 172.319 34.6042 173.433C34.5632 173.476 34.6372 173.524 34.6869 173.504C36.2004 172.887 37.6361 172.433 39.2743 172.089C39.3899 172.065 39.3689 171.922 39.2504 171.918Z" fill="#263238"/>
<path d="M20.8183 173.062C18.9613 173.031 18.9002 175.448 20.76 175.479C22.617 175.51 22.6786 173.094 20.8183 173.062Z" fill="#263238"/>
<path d="M37.3419 166.929C36.5204 166.331 35.4491 166.879 34.9161 167.473C34.0526 168.435 33.4403 169.796 33.3147 170.988C33.3118 171.018 33.3381 171.03 33.3653 171.029C33.3978 171.129 33.5358 171.215 33.66 171.147C34.8569 170.487 36.2343 169.906 37.1542 168.958C37.691 168.404 38.1194 167.494 37.3419 166.929ZM35.2308 169.835C34.6515 170.172 34.0559 170.482 33.4919 170.837C33.8066 170.152 34.0841 169.459 34.481 168.801C34.6706 168.487 34.8722 168.167 35.1114 167.878C35.4835 167.426 37.1399 166.3 37.2631 167.811C37.3304 168.644 35.921 169.434 35.2308 169.835Z" fill="#263238"/>
<path d="M29.1887 171.423C30.6244 171.636 32.1203 171.321 33.5412 171.164C33.6888 171.148 33.7255 171.008 33.672 170.914C33.6935 170.9 33.704 170.876 33.6787 170.856C32.6523 170.022 31.1264 169.328 29.7217 169.074C28.8544 168.916 27.6164 169.088 27.4617 169.991C27.3155 170.845 28.3505 171.298 29.1887 171.423ZM28.211 170.615C27.124 169.404 29.257 169.35 29.8908 169.487C30.2982 169.575 30.6999 169.706 31.0886 169.84C31.903 170.12 32.6538 170.492 33.427 170.838C32.7235 170.879 32.0305 170.97 31.3294 171.033C30.4935 171.108 28.8104 171.282 28.211 170.615Z" fill="#263238"/>
<path d="M35.949 166.67H16.4399C16.4399 166.67 20.6754 116.034 19.991 113.195C18.8705 108.548 19.6194 103.212 22.2424 100.644H39.5936C39.5936 100.644 39.9375 104.722 38.1465 107.158C38.1465 107.158 36.5192 108.019 35.7278 108.399L35.949 166.67Z" fill="#7BB0C9"/>
<path d="M34.1231 164.031C31.4217 163.972 32.1978 163.957 29.496 163.923C28.1735 163.906 19.4852 163.804 18.2487 163.97C18.2215 163.974 18.221 164.012 18.2482 164.016C19.4828 164.193 28.172 164.168 29.4941 164.164C32.1964 164.154 31.4203 164.132 34.1221 164.097C34.1732 164.097 34.1737 164.032 34.1231 164.031Z" fill="#263238"/>
<path d="M39.2286 106.503C37.5158 107.166 35.8929 108.032 34.3502 108.924C34.2896 108.958 34.3431 109.036 34.4099 109.005C36.0601 108.24 37.748 107.498 39.3446 106.662C39.4702 106.596 39.3599 106.452 39.2286 106.503Z" fill="#263238"/>
<path d="M37.019 106.294C36.9153 106.575 36.8408 106.864 36.7835 107.153C36.7391 107.377 36.6698 107.622 36.7314 107.845C36.7434 107.888 36.816 107.886 36.8413 107.854C36.9975 107.65 37.0395 107.389 37.1106 107.159C37.1933 106.893 37.2835 106.627 37.3571 106.359C37.4053 106.181 37.0825 106.121 37.019 106.294Z" fill="#263238"/>
<path d="M36.8629 104.894C36.9092 104.651 36.956 104.409 37.0086 104.167C37.063 103.917 37.137 103.666 37.1681 103.414C37.1729 103.374 37.2498 103.386 37.2421 103.426C37.1967 103.669 37.1915 103.92 37.1686 104.165C37.1452 104.411 37.117 104.657 37.0879 104.903C37.0329 105.36 36.9393 105.822 36.8309 106.274C37.1127 106.218 37.4007 106.152 37.6285 105.997C37.8759 105.828 37.9786 105.548 38.0555 105.298C38.141 105.02 38.2126 104.739 38.3029 104.463C38.4027 104.157 38.5221 103.85 38.5565 103.533C38.5608 103.493 38.6363 103.505 38.6305 103.545C38.5345 104.205 38.4424 104.864 38.1892 105.503C38.0894 105.754 38.0225 106.008 37.7527 106.15C37.4633 106.302 37.1141 106.349 36.7812 106.391C36.7435 106.408 36.6852 106.396 36.6881 106.352C36.7215 105.868 36.7717 105.374 36.8629 104.894Z" fill="#263238"/>
<path d="M22.8085 113.009C22.6843 111.94 22.4766 110.881 22.3376 109.814C22.0582 107.669 22.2502 105.524 22.7994 103.418C22.8095 103.379 22.7359 103.364 22.7268 103.403C22.3032 105.262 21.934 107.118 22.0453 109.018C22.1551 110.9 22.5539 112.758 22.5898 114.646C22.6261 116.558 22.447 118.469 22.3003 120.375C22.1532 122.293 22.0056 124.212 21.8585 126.13C21.2663 133.84 20.7204 141.552 20.1602 149.264C20.004 151.416 19.8583 153.569 19.7098 155.722C19.5584 157.912 19.3759 160.104 19.2785 162.297C19.2699 162.487 19.6071 162.473 19.6252 162.29C20.0169 158.422 20.2433 154.537 20.5379 150.663C20.8298 146.828 21.0977 142.991 21.3776 139.155C21.657 135.32 21.9321 131.484 22.2043 127.647C22.3405 125.73 22.4699 123.812 22.6017 121.894C22.733 119.983 22.9016 118.072 22.9356 116.158C22.9547 115.108 22.9303 114.055 22.8085 113.009Z" fill="#263238"/>
<path d="M28.9517 103.286C28.9388 103.262 28.9006 103.254 28.8834 103.28C28.7406 103.486 28.7659 103.828 28.7196 104.063C28.6632 104.35 28.5916 104.632 28.4827 104.907C28.2611 105.467 27.9625 105.965 27.4415 106.374C26.3487 107.23 24.8872 107.546 23.4768 107.836C23.4243 107.846 23.4434 107.906 23.4907 107.909C24.3203 107.959 25.1637 107.81 25.948 107.587C26.6405 107.39 27.3082 107.119 27.8465 106.697C28.3814 106.278 28.7138 105.739 28.871 105.143C28.9517 104.838 28.9746 104.514 28.988 104.202C28.9947 104.05 28.9966 103.898 28.9956 103.747C28.9956 103.598 29.0252 103.422 28.9517 103.286Z" fill="#263238"/>
<path d="M36.521 80.358C38.3049 82.2072 47.4712 88.2508 55.4937 87.4168C58.8126 87.0716 60.8224 80.6232 61.2632 78.2516C62.0489 74.0272 63.1851 65.1384 61.2632 65.5208C58.8656 65.998 53.0793 79.8492 51.3728 79.9844C48.6342 80.2016 44.0811 78.5456 38.3202 77.8632C35.3556 77.5116 35.1469 78.9336 36.521 80.358Z" fill="#FFC9C1"/>
<path d="M36.5641 81.0492C38.7668 83.4488 45.781 87.196 45.781 87.196L46.5863 85.4192L49.2514 79.5456C49.2514 79.5456 42.966 78.2328 38.8552 77.7152C38.2997 77.6448 37.8126 77.6104 37.3908 77.6164C34.7912 77.632 34.6651 78.9852 36.5641 81.0492Z" fill="#FFC727"/>
<path d="M36.5641 81.0493C38.7668 83.4489 45.781 87.1961 45.781 87.1961L46.5863 85.4193C43.9045 83.1137 39.7693 79.6229 37.3908 77.6161C34.7912 77.6321 34.6651 78.9853 36.5641 81.0493Z" fill="#263238"/>
<path d="M44.4859 86.1028C44.9206 85.026 46.8898 80.6708 47.3908 79.7524C47.4257 79.6888 47.4815 79.6908 47.4557 79.7608C46.245 83.0116 45.0276 85.076 44.5371 86.1152C44.5246 86.1404 44.475 86.13 44.4859 86.1028Z" fill="#263238"/>
<path d="M67.0201 66.2172C67.4795 67.2464 65.7682 67.1108 65.7682 67.1108C65.7682 67.1108 68.1754 67.8036 68.1592 69.018C68.1396 70.1888 66.0792 69.9636 65.9311 69.9492C66.0582 69.9868 68.2504 70.6716 68.0837 71.8908C67.9094 73.1576 65.8872 72.6344 65.7568 72.6C65.8633 72.6668 67.2551 73.5728 66.8768 74.4752C66.2263 76.0252 62.5921 73.7912 61.0337 74.048L61.2639 76.1672C61.2577 76.2368 61.252 76.3096 61.2414 76.3764L59.9533 76.5244C59.6539 75.9312 59.1275 75.2712 58.6318 74.6252C58.0367 73.852 57.4927 73.1044 57.4354 72.5304C57.3436 71.586 58.2927 71.2852 58.2927 71.2852C58.2927 71.2852 57.0733 70.7236 57.1684 69.7604C57.2185 69.266 58.2077 68.8936 58.2077 68.8936C58.2077 68.8936 57.2539 68.41 57.4019 67.5572C57.5175 66.8764 58.4918 66.6088 58.4918 66.6088C58.4918 66.6088 57.8332 65.7884 58.221 65.1252C59 63.786 66.0338 64.014 67.0201 66.2172Z" fill="#FFC9C1"/>
<path d="M60.925 74.3276L61.2631 76.1672C61.2569 76.2368 61.2512 76.3096 61.2407 76.3764C60.9059 78.7392 57.821 80.3576 57.468 78.6764C57.1972 77.3976 59.1316 75.9016 58.6277 74.6252H58.6315L60.925 74.3276Z" fill="#FFC9C1"/>
<path d="M58.6381 66.5464C58.6147 66.5472 58.6085 66.52 58.6323 66.516C60.9674 66.118 63.6783 66.2804 65.861 67.11C65.9326 67.1372 65.9111 67.2464 65.8252 67.2292C63.3808 66.734 61.1637 66.458 58.6381 66.5464Z" fill="#263238"/>
<path d="M58.1733 68.8804C58.1461 68.8816 58.1437 68.8432 58.1724 68.8388C60.5809 68.4396 63.6286 68.6928 66.01 69.8972C66.0916 69.9384 66.1155 70.044 66.0171 70.0028C64.3612 69.302 60.4463 68.7912 58.1733 68.8804Z" fill="#263238"/>
<path d="M65.8881 72.7324C63.5511 71.6512 61.036 71.3064 58.3915 71.2632C58.3571 71.2628 58.3614 71.222 58.3905 71.216C59.6911 70.942 61.3732 71.1168 62.6685 71.3456C63.9089 71.5648 64.9759 71.9712 65.9335 72.6644C65.9702 72.6908 65.9378 72.7556 65.8881 72.7324Z" fill="#263238"/>
<path d="M61.2571 75.0824C61.173 74.7124 61.1133 74.362 61.0345 73.9912C61.0269 73.9556 60.9615 73.9672 60.9615 74.0012C60.961 74.5276 61.035 75.042 61.0532 75.5696C61.0718 76.106 60.9911 76.654 60.7924 77.1652C60.6185 77.612 60.3468 78.0372 59.9847 78.3972C59.6136 78.7664 59.0892 79.1784 58.4807 79.2024C57.8393 79.2276 57.5064 78.7796 57.526 78.2888C57.5456 77.7976 57.9057 77.3632 58.1755 76.9452C58.4578 76.5076 58.7463 76.014 58.8552 75.5208C58.9593 75.0488 58.7921 74.6424 58.5423 74.2244C58.3766 73.9476 58.2047 73.6732 58.0342 73.3988C57.8914 73.1692 57.718 72.936 57.6459 72.682C57.5059 72.1872 57.7643 71.5116 58.358 71.3028C58.4077 71.2852 58.3752 71.2248 58.3274 71.2464C57.8278 71.4724 57.4801 71.73 57.2733 72.1872C57.0613 72.6564 57.2948 73.1224 57.5556 73.536C57.7299 73.8128 57.9052 74.0892 58.0815 74.3652C58.2668 74.656 58.4588 74.9568 58.4282 75.2976C58.3728 75.9208 57.9238 76.5248 57.579 77.0624C57.2872 77.5176 57.0216 78.012 57.1138 78.5408C57.1912 78.9844 57.5074 79.3836 58.0447 79.5044C59.2889 79.7848 60.3998 78.6452 60.8717 77.826C61.195 77.2648 61.3655 76.6428 61.3655 76.0196C61.3646 75.7052 61.3268 75.3912 61.2571 75.0824Z" fill="#263238"/>
<path d="M63.1388 74.3876C62.8862 74.2396 62.581 74.1484 62.2901 74.0656C61.9954 73.9812 61.6807 73.9324 61.3707 73.9088C61.0818 73.8864 60.7842 73.8988 60.5048 73.9684C60.2364 74.0356 60.0205 74.1644 59.8261 74.3316C59.7999 74.354 59.8285 74.392 59.8639 74.3832C60.106 74.3216 60.3596 74.292 60.6089 74.256C60.8716 74.2184 61.14 74.1956 61.407 74.1964C61.6955 74.1972 61.9749 74.2368 62.2577 74.2816C62.5452 74.3268 62.8246 74.4084 63.115 74.4396C63.1527 74.4436 63.1708 74.4064 63.1388 74.3876Z" fill="#263238"/>
<path d="M58.2335 71.204C58.1929 71.1792 58.1489 71.158 58.1088 71.1324C58.0271 71.0808 57.9469 71.0208 57.8762 70.9592C57.8007 70.8936 57.7253 70.8284 57.656 70.758C57.6202 70.722 57.5806 70.6876 57.5414 70.654C57.5218 70.6372 57.4994 70.622 57.4817 70.6036C57.4602 70.582 57.4435 70.5556 57.4258 70.5316C57.4005 70.4976 57.3356 70.5312 57.3623 70.5644C57.3814 70.588 57.4029 70.6112 57.4182 70.6364C57.432 70.6592 57.4401 70.6844 57.4516 70.708C57.4745 70.7544 57.4984 70.8016 57.5285 70.8448C57.5906 70.9344 57.657 71.0212 57.7439 71.0956C57.8265 71.166 57.9158 71.2224 58.0243 71.2612C58.0763 71.28 58.1274 71.2968 58.1843 71.3016C58.2296 71.3056 58.2903 71.3132 58.3318 71.2932C58.3414 71.2884 58.3462 71.2752 58.339 71.2676C58.3123 71.2396 58.2674 71.2248 58.2335 71.204Z" fill="#263238"/>
<path d="M43.963 103.534C43.5284 103.856 37.681 103.98 31.7161 103.976C29.4541 103.974 27.1702 103.952 25.1628 103.915C21.4986 103.85 19.4978 103.772 19.3851 103.629C19.079 103.24 23.8532 89.7424 26.9471 84.7808C28.914 81.6284 30.4356 80.03 31.6774 79.1288C32.4287 78.5852 32.6938 78.2776 33.275 78.0492C33.585 77.9296 33.8783 77.828 34.1577 77.7132C35.5719 77.14 39.4859 77.6932 40.0987 77.9624C40.7931 78.264 42.6993 81.334 43.0852 83.826C43.4701 86.3152 44.3413 103.252 43.963 103.534Z" fill="#FFC727"/>
<path opacity="0.1" d="M19.7974 101.868H44.0553C44.0505 101.34 44.0409 100.708 44.0218 100H20.4087L19.7974 101.868Z" fill="black"/>
<path d="M31.6991 81.5708C31.2736 85.1084 36.7709 96.618 39.8572 98.6464C44.4466 101.662 54.4865 103.728 57.4357 104.256C58.721 104.487 60.7432 95.3836 59.3748 95.1168C56.3788 94.5328 46.8986 93.4588 46.0528 92.9372C45.2065 92.4156 39.8391 86.832 37.3875 83.5736C34.0982 79.202 31.9145 79.7816 31.6991 81.5708Z" fill="#FFC9C1"/>
<path d="M64.8848 103.987C65.6442 103.091 63.9486 102.854 63.9486 102.854C63.9486 102.854 66.4876 102.702 66.8439 101.525C67.1835 100.389 65.1231 100.164 64.976 100.146C65.1102 100.137 67.439 99.9459 67.6516 98.7319C67.8713 97.4699 65.7564 97.5411 65.6198 97.5463C65.7435 97.5043 67.3659 96.9279 67.2771 95.9747C67.1233 94.3367 62.459 95.6691 61.0314 95.0859V92.9067C60.56 93.4155 59.9735 93.7467 59.2967 94.2647C58.4848 94.8843 57.7874 95.2831 57.5563 95.8255C57.178 96.7183 58.0033 97.2131 58.0033 97.2131C58.0033 97.2131 56.6526 97.4939 56.4492 98.4451C56.3465 98.9339 57.188 99.5063 57.188 99.5063C57.188 99.5063 56.1177 99.7687 55.9997 100.625C55.9033 101.308 56.7625 101.776 56.7625 101.776C56.7625 101.776 55.8746 102.427 56.0461 103.151C56.3885 104.614 63.2566 105.905 64.8848 103.987Z" fill="#FFC9C1"/>
<path d="M56.8849 101.868C56.8625 101.862 56.8486 101.887 56.8701 101.896C59.005 102.782 61.6749 103.208 64.0386 102.876C64.116 102.865 64.1288 102.754 64.0405 102.753C61.5259 102.706 59.2983 102.496 56.8849 101.868Z" fill="#263238"/>
<path d="M57.1505 99.5123C57.1242 99.5055 57.1104 99.5415 57.1366 99.5523C59.3423 100.456 62.3655 100.866 65.0359 100.214C65.1276 100.191 65.183 100.094 65.075 100.113C63.2606 100.434 59.3198 100.087 57.1505 99.5123Z" fill="#263238"/>
<path d="M65.7872 97.4472C63.1976 97.9896 60.6605 97.7828 58.0914 97.256C58.058 97.2492 58.0499 97.2896 58.0761 97.3016C59.2492 97.846 60.9284 98.0388 62.2505 98.096C63.5166 98.1508 64.6724 97.9876 65.8101 97.5232C65.8541 97.5048 65.8426 97.4356 65.7872 97.4472Z" fill="#263238"/>
<path d="M35.8205 81.586C32.1214 77.8008 30.2363 79.3964 31.2751 83.6808C32.2465 87.688 34.3451 92.4056 34.3451 92.4056L42.5424 88.4612C42.5424 88.4612 38.188 84.0084 35.8205 81.586Z" fill="#FFC727"/>
<path d="M37.0499 82.7184C37.5457 83.212 38.0562 83.6948 38.5658 84.1784C38.4259 83.9268 38.3012 83.6716 38.1876 83.4104C38.1823 83.3984 38.2028 83.3916 38.2095 83.4032C38.3208 83.6024 38.4426 83.7976 38.5505 83.9984C38.6021 84.0948 38.6551 84.1908 38.7086 84.2864C38.7201 84.3068 38.732 84.3276 38.7435 84.348C39.1399 84.7252 39.5349 85.104 39.9184 85.4904C40.376 85.9516 40.8197 86.422 41.2658 86.8916C41.7262 87.3768 42.1728 87.9508 42.6551 88.4204C42.6972 88.4612 41.9301 88.7748 41.8594 88.8136C41.7868 88.8532 41.7305 88.7952 41.8093 88.77C41.8819 88.7468 42.4799 88.388 42.487 88.3812C42.0414 87.9076 41.5332 87.4756 41.0695 87.0144C40.6081 86.5552 40.1448 86.0976 39.6954 85.63C38.7827 84.6808 37.934 83.6884 37.027 82.7344C37.0146 82.7204 37.038 82.7064 37.0499 82.7184Z" fill="#263238"/>
<path d="M31.7251 86.5292C31.8718 86.732 32.0284 86.932 32.1607 87.1416C32.2156 87.2284 32.2696 87.3152 32.3241 87.4016C32.0657 86.6428 31.8111 85.8836 31.558 85.1236C31.5551 85.1148 31.5709 85.1092 31.5742 85.118C32.0685 86.3436 32.5662 87.5676 33.0333 88.8008C33.4784 89.9764 33.9967 91.1624 34.2961 92.3708C34.4107 92.3316 35.0522 92.0636 35.0741 92.098C35.0966 92.1328 34.2431 92.5332 34.2288 92.5048C33.648 91.3408 33.2363 90.004 32.806 88.796C32.6846 88.456 32.57 88.1144 32.4525 87.7736C32.3393 87.5708 32.2061 87.3764 32.0762 87.1808C31.9381 86.9736 31.823 86.7548 31.6998 86.5412C31.6922 86.5288 31.7165 86.5172 31.7251 86.5292Z" fill="#263238"/>
<path d="M34.379 91.2084C35.5114 90.5816 40.2574 88.1552 41.3259 87.6872C41.3999 87.6548 41.4429 87.6852 41.3707 87.7272C38.0327 89.6716 35.5587 90.6756 34.41 91.244C34.3819 91.2584 34.3503 91.2244 34.379 91.2084Z" fill="#263238"/>
<path d="M39.2519 81.0564C37.854 81.2296 35.6808 79.3068 34.8971 77.8192C34.8441 77.7168 35.1273 76.7028 35.4019 75.4564C35.5653 74.6996 35.7253 73.8536 35.8055 73.0732C35.8208 72.9128 36.4426 73.254 36.4426 73.254L37.6238 73.5844L41.5306 74.6816C41.5306 74.6816 40.7884 76.2768 40.6595 77.6388C40.6499 77.7528 40.6528 77.8596 40.6671 77.962C40.6676 77.9768 40.6709 77.9952 40.67 78.0156C40.7258 78.6328 40.6031 80.888 39.2519 81.0564Z" fill="#FFC9C1"/>
<path d="M40.6664 77.962C40.6669 77.9768 40.6703 77.9952 40.6693 78.0156C40.484 78.0244 40.2839 78.0188 40.0656 77.9992C36.1363 77.6436 36.0732 73.416 36.0732 73.416L37.6236 73.584L41.5304 74.6812C41.5304 74.6812 40.7882 76.2764 40.6593 77.6384C40.6497 77.7528 40.6526 77.8592 40.6664 77.962Z" fill="#263238"/>
<path d="M34.5817 68.2084C34.0907 69.9832 35.5986 74.9424 37.1666 75.9772C39.44 77.4776 42.9566 77.4312 44.4272 75.182C45.8524 73.0016 43.7509 66.568 42.0181 65.6452C39.4663 64.286 35.3067 65.5868 34.5817 68.2084Z" fill="#FFC9C1"/>
<path d="M40.732 71.1436C40.7253 71.1316 40.7052 71.166 40.71 71.1796C40.8223 71.5112 40.8844 71.9072 40.5558 72.0936C40.5457 72.0992 40.5519 72.116 40.5648 72.1116C40.9904 71.9676 40.902 71.4428 40.732 71.1436Z" fill="#263238"/>
<path d="M40.2715 70.8688C39.6172 70.962 39.888 72.0516 40.4946 71.9648C41.0911 71.88 40.8203 70.7908 40.2715 70.8688Z" fill="#263238"/>
<path d="M43.0234 70.6672C43.0234 70.6536 43.0588 70.6776 43.0616 70.6916C43.1328 71.0312 43.2828 71.41 43.6749 71.4584C43.6873 71.46 43.6902 71.4772 43.6763 71.478C43.2188 71.5032 43.0258 70.9984 43.0234 70.6672Z" fill="#263238"/>
<path d="M43.2952 70.252C43.9328 70.0976 44.2543 71.1772 43.6635 71.3204C43.0822 71.4608 42.7608 70.3812 43.2952 70.252Z" fill="#263238"/>
<path d="M39.6343 70.4604C39.8024 70.392 39.9433 70.3056 40.1009 70.224C40.2786 70.1316 40.4319 70.0732 40.5222 69.9068C40.5704 69.8176 40.5079 69.6832 40.4085 69.6356C40.1774 69.5248 39.9261 69.5928 39.7064 69.6968C39.4681 69.8096 39.3191 69.9476 39.2193 70.1604C39.1228 70.3668 39.4127 70.5504 39.6343 70.4604Z" fill="#263238"/>
<path d="M43.6619 69.6156C43.4756 69.6224 43.3023 69.6028 43.117 69.5936C42.9078 69.5832 42.7401 69.5928 42.5663 69.4824C42.4727 69.4232 42.4516 69.28 42.5123 69.1988C42.6527 69.0096 42.9125 68.9688 43.1647 68.9728C43.4384 68.9772 43.6481 69.0388 43.8563 69.1868C44.0583 69.3296 43.9079 69.6068 43.6619 69.6156Z" fill="#263238"/>
<path d="M40.9723 74.2248C41.0884 74.2868 41.2121 74.3788 41.3606 74.3636C41.5034 74.3492 41.6544 74.2672 41.7728 74.2032C41.7843 74.1968 41.8 74.206 41.7948 74.2176C41.7222 74.3652 41.5225 74.4848 41.3286 74.49C41.1395 74.4952 41.0168 74.3788 40.9375 74.2468C40.9265 74.2284 40.9556 74.2156 40.9723 74.2248Z" fill="#263238"/>
<path d="M41.1451 73.1408C41.4436 73.3944 41.8147 73.4964 42.1877 73.4924C42.3544 73.4916 42.524 73.4668 42.6859 73.4252C42.7184 73.4188 42.7499 73.4104 42.7781 73.3996C42.8067 73.3916 42.8325 73.384 42.8636 73.3728C42.9094 73.3588 42.9271 73.3216 42.9257 73.2832L42.9252 73.2808C42.9218 73.2684 42.919 73.2588 42.9128 73.2468C42.9128 73.2468 42.9128 73.2468 42.9123 73.2444L42.9042 73.2148C42.8478 72.9536 42.7198 72.5636 42.7198 72.5636C42.8449 72.5912 43.4773 72.7084 43.4338 72.574C43.0742 71.4644 42.6744 70.2304 42.0368 69.1896C42.0177 69.1544 41.9523 69.1748 41.9652 69.2112C42.2603 70.2892 42.78 71.3164 43.0971 72.3952C42.898 72.3688 42.5703 72.3124 42.4089 72.3436C42.3673 72.362 42.673 73.0932 42.6873 73.2124C42.6873 73.2124 42.6888 73.2172 42.6878 73.2252C42.1806 73.372 41.755 73.3088 41.1762 73.1036C41.1403 73.0896 41.1141 73.118 41.1451 73.1408Z" fill="#263238"/>
<path d="M42.4703 73.3252C42.4703 73.3252 42.2726 73.684 41.924 73.862C41.7955 73.928 41.6503 73.9704 41.485 73.9628C41.1459 73.948 41.0762 73.7024 41.0824 73.4804C41.0867 73.298 41.1459 73.1312 41.1459 73.1312C41.1459 73.1312 41.7071 73.4176 42.4703 73.3252Z" fill="#263238"/>
<path d="M41.9235 73.8615C41.795 73.9275 41.6498 73.9699 41.4845 73.9623C41.1454 73.9475 41.0757 73.7019 41.0819 73.4799C41.4344 73.4495 41.8246 73.5859 41.9235 73.8615Z" fill="#FF98B9"/>
<path d="M43.3566 67.1936C41.5741 68.77 38.248 67.4692 38.248 67.4692C37.9256 68.9596 36.2507 69.0892 36.2507 69.0892C36.2507 69.0892 36.5998 72.1272 35.6661 72.2892C34.2423 72.5376 32.7665 68.5752 33.0105 67.7004C33.2551 66.8256 34.409 66.4052 34.409 66.4052C34.409 66.4052 34.3392 65.7732 35.0738 65.0528C35.8848 64.2556 39.4502 64.4908 39.4502 64.4908C39.4502 64.4908 39.5462 63.9268 40.0591 63.3664C40.3853 63.0124 40.9293 62.974 41.3492 63.236C41.2364 63.4604 41.1772 63.7292 41.1958 64.0284C41.2508 64.926 42.0971 64.7728 41.8874 63.9872C41.7938 63.6376 41.5918 63.3868 41.3492 63.236C41.6348 62.6468 42.2738 62.3564 42.7586 62.5572C43.6379 62.9224 44.8391 65.8832 43.3566 67.1936Z" fill="#263238"/>
<path d="M36.1987 72.2276C36.1987 72.2276 34.6728 70.7068 33.8374 71.1764C33.0016 71.646 34.2692 73.9208 35.3347 74.1656C36.4003 74.4104 36.6902 73.5888 36.6902 73.5888L36.1987 72.2276Z" fill="#FFC9C1"/>
<path d="M34.2198 71.8212C34.2031 71.8212 34.2022 71.8408 34.217 71.8448C34.9663 72.0364 35.4067 72.5696 35.7348 73.132C35.496 72.924 35.1899 72.8228 34.8541 73.064C34.8364 73.0768 34.857 73.1 34.877 73.0948C35.1674 73.0196 35.3857 73.0468 35.6073 73.2304C35.764 73.3604 35.8795 73.5312 35.9985 73.686C36.0381 73.7376 36.1518 73.7 36.1207 73.6396C36.1183 73.6352 36.116 73.6304 36.1136 73.626C36.0496 72.8524 35.2181 71.8252 34.2198 71.8212Z" fill="#263238"/>
<path d="M200.955 66.5616C200.32 65.752 199.963 64.8416 199.963 63.8788C199.963 60.48 204.42 57.7244 209.913 57.7244C215.407 57.7244 219.859 60.48 219.859 63.8788C219.859 67.2776 215.407 70.0332 209.913 70.0332C207.249 70.0332 204.834 69.3868 203.05 68.3304L199.623 69.06L200.955 66.5616Z" fill="white"/>
<path d="M199.675 69.08L199.608 69.0136L203.023 68.2416L203.07 68.2308L203.114 68.2556C204.875 69.2608 206.993 69.782 209.11 69.868C210.171 69.9188 211.237 69.8416 212.277 69.6804C213.315 69.5168 214.338 69.2572 215.283 68.8612C216.227 68.47 217.105 67.9624 217.833 67.3324C218.559 66.7044 219.129 65.9476 219.416 65.1148C219.712 64.2844 219.68 63.3856 219.374 62.5632C219.071 61.7364 218.487 60.988 217.752 60.3688C216.266 59.132 214.25 58.364 212.17 58.0684C210.087 57.764 207.907 57.8628 205.886 58.4036C203.873 58.934 201.984 59.9692 200.866 61.488C200.304 62.242 200.019 63.1312 200.023 64.0232C200.04 64.9164 200.381 65.8004 200.955 66.562L199.675 69.08ZM199.91 64.026C199.873 63.1164 200.133 62.192 200.686 61.4C201.226 60.6012 202.003 59.9288 202.88 59.3864C203.757 58.8412 204.747 58.4284 205.78 58.1372C206.813 57.8436 207.89 57.666 208.978 57.5892C210.068 57.5184 211.165 57.5756 212.243 57.7228C214.393 58.0192 216.493 58.798 218.076 60.0984C218.859 60.7496 219.493 61.548 219.829 62.4452C220.163 63.3396 220.184 64.3224 219.858 65.2208C219.541 66.1224 218.921 66.9288 218.149 67.5884C217.376 68.2508 216.453 68.7756 215.467 69.1776C213.488 69.9808 211.259 70.2692 209.09 70.154C206.922 70.0304 204.76 69.472 202.987 68.4048L203.077 68.4188L199.637 69.1064L199.52 69.1296L199.57 69.0396L200.955 66.5608C200.345 65.8208 199.954 64.9384 199.91 64.026Z" fill="#263238"/>
<path d="M213.491 63.8788C213.491 64.356 213.953 64.7428 214.522 64.7428C215.092 64.7428 215.554 64.356 215.554 63.8788C215.554 63.4016 215.092 63.0148 214.522 63.0148C213.953 63.0148 213.491 63.4016 213.491 63.8788Z" fill="#263238"/>
<path d="M208.88 63.8788C208.88 64.356 209.342 64.7428 209.912 64.7428C210.482 64.7428 210.944 64.356 210.944 63.8788C210.944 63.4016 210.482 63.0148 209.912 63.0148C209.342 63.0148 208.88 63.4016 208.88 63.8788Z" fill="#263238"/>
<path d="M204.27 63.8788C204.27 64.356 204.732 64.7428 205.302 64.7428C205.871 64.7428 206.333 64.356 206.333 63.8788C206.333 63.4016 205.871 63.0148 205.302 63.0148C204.732 63.0148 204.27 63.4016 204.27 63.8788Z" fill="#263238"/>
</svg>
