<svg width="1333" height="658" viewBox="0 0 1333 658" fill="none" xmlns="http://www.w3.org/2000/svg">
<path d="M1217.25 644.515C1223.47 644.515 1228.51 639.475 1228.51 633.258C1228.51 627.04 1223.47 622 1217.25 622C1211.04 622 1206 627.04 1206 633.258C1206 639.475 1211.04 644.515 1217.25 644.515Z" fill="black"/>
<path d="M1228.01 633.258C1228.01 639.199 1223.19 644.015 1217.25 644.015C1211.31 644.015 1206.5 639.199 1206.5 633.258C1206.5 627.316 1211.31 622.5 1217.25 622.5C1223.19 622.5 1228.01 627.316 1228.01 633.258Z" stroke="black" stroke-opacity="0.2"/>
<path d="M389.012 336.456C389.012 341.157 385.203 344.965 380.506 344.965C375.809 344.965 372 341.155 372 336.456C372 331.755 375.809 327.947 380.506 327.947C385.203 327.947 389.012 331.755 389.012 336.456Z" fill="black"/>
<path d="M388.512 336.456C388.512 340.881 384.927 344.465 380.506 344.465C376.085 344.465 372.5 340.879 372.5 336.456C372.5 332.031 376.085 328.447 380.506 328.447C384.927 328.447 388.512 332.031 388.512 336.456Z" stroke="black" stroke-opacity="0.2"/>
<path d="M381 320.982C409.59 205.564 664.421 16.425 882.385 179.485C975.142 248.876 960.109 336.596 890.067 348.347C766.32 369.106 758.757 192.052 938.993 138.623C1086.24 94.9736 1318.35 182.134 1331.29 375.07C1342.69 545.038 1213.8 636 1213.8 636" stroke="black" stroke-opacity="0.2" stroke-width="0.75" stroke-miterlimit="10" stroke-linecap="round" stroke-linejoin="round" stroke-dasharray="7 7"/>
<path d="M15.4577 648.418C15.4577 648.418 25.0923 641.083 39.2715 640.901C39.2715 640.901 -0.539729 636.538 0.00555067 628.54C0.550831 620.541 25.2737 624.36 41.0888 635.085C41.0888 635.085 23.0926 621.753 26.37 615.779C29.5851 609.919 55.0856 622.408 59.4488 648.56L15.4577 648.418Z" fill="url(#paint0_linear_171_3991)"/>
<path d="M10 651.286H627.533" stroke="black" stroke-miterlimit="10" stroke-linecap="round"/>
<path d="M1194 636.012C1194 636.012 1224.64 566.712 1240.82 566.404C1262.82 565.988 1210.42 627.38 1210.42 627.38C1210.42 627.38 1250.32 579.032 1265.2 588.955C1279.54 598.514 1226.35 628.604 1226.35 628.604C1226.35 628.604 1269.02 607.851 1274.65 620.39C1278.82 629.664 1247.07 633.81 1227.58 636.013C1227.58 636.013 1269.51 631.714 1266.75 641.824C1265.2 647.475 1233.4 645.29 1233.4 645.29C1233.4 645.29 1252.89 646.923 1254.91 651.412H1194L1194 636.012Z" fill="url(#paint1_linear_171_3991)"/>
<path d="M1169.71 651.411H1041.5C1037.36 651.411 1034 648.055 1034 643.916V550.167C1034 546.027 1037.36 542.671 1041.5 542.671H1169.71C1173.85 542.671 1177.2 546.027 1177.2 550.167V643.916C1177.2 648.055 1173.85 651.411 1169.71 651.411Z" fill="black"/>
<path d="M1052.3 651.411C1048.16 651.411 1044.8 648.055 1044.8 643.916V550.167C1044.8 546.027 1048.16 542.671 1052.3 542.671" stroke="white" stroke-width="0.5" stroke-miterlimit="10" stroke-linecap="round"/>
<path d="M1193.38 651.411H1065.17C1061.03 651.411 1057.67 648.055 1057.67 643.916V550.167C1057.67 546.027 1061.03 542.671 1065.17 542.671H1193.38C1197.52 542.671 1200.88 546.027 1200.88 550.167V643.916C1200.88 648.055 1197.52 651.411 1193.38 651.411Z" fill="url(#paint2_linear_171_3991)"/>
<path d="M1193.38 651.411H1065.17C1061.03 651.411 1057.67 648.055 1057.67 643.916V550.167C1057.67 546.027 1061.03 542.671 1065.17 542.671H1193.38C1197.52 542.671 1200.88 546.027 1200.88 550.167V643.916C1200.88 648.055 1197.52 651.411 1193.38 651.411Z" fill="url(#paint3_linear_171_3991)"/>
<path d="M1065.17 646.612C1063.68 646.612 1062.47 645.403 1062.47 643.916V550.167C1062.47 548.68 1063.68 547.47 1065.17 547.47H1193.38C1194.87 547.47 1196.08 548.68 1196.08 550.167V643.916C1196.08 645.403 1194.87 646.612 1193.38 646.612H1065.17Z" stroke="black" stroke-width="0.75" stroke-linecap="round" stroke-linejoin="round" stroke-dasharray="5 5"/>
<path d="M1051.21 550.365L1049.67 549.926C1048.9 549.705 1048.5 548.848 1048.83 548.115L1051.06 543.206C1051.33 542.613 1052 542.306 1052.62 542.485C1053.25 542.664 1053.65 543.274 1053.57 543.92L1052.87 549.268C1052.77 550.066 1051.98 550.586 1051.21 550.365Z" fill="white"/>
<path d="M1178.05 613.989L1147.84 626.618L1147.21 625.128C1147.98 624.809 1148.34 623.932 1148.02 623.17C1147.7 622.408 1146.82 622.048 1146.06 622.367L1145.38 620.743C1146.14 620.425 1146.5 619.548 1146.19 618.786C1145.87 618.024 1145 617.675 1144.23 617.994L1143.55 616.37C1144.32 616.052 1144.68 615.175 1144.36 614.413C1144.04 613.651 1143.16 613.291 1142.4 613.61L1141.72 611.986C1142.48 611.667 1142.84 610.791 1142.53 610.029C1142.21 609.266 1141.33 608.906 1140.57 609.225L1139.94 607.734L1170.16 595.105L1170.78 596.595C1170.02 596.914 1169.66 597.791 1169.98 598.553C1170.3 599.315 1171.17 599.675 1171.94 599.356L1172.61 600.98C1171.85 601.298 1171.49 602.175 1171.81 602.937C1172.13 603.699 1173.01 604.059 1173.77 603.741L1174.45 605.364C1173.68 605.683 1173.32 606.549 1173.64 607.31C1173.96 608.072 1174.83 608.432 1175.6 608.114L1176.28 609.737C1175.51 610.056 1175.15 610.932 1175.47 611.694C1175.79 612.457 1176.67 612.817 1177.43 612.498L1178.05 613.989Z" fill="white"/>
<path d="M1174.62 613.529L1168.08 597.882L1143.44 608.18L1149.98 623.828L1174.62 613.529Z" stroke="black" stroke-width="0.25" stroke-miterlimit="10" stroke-linecap="round" stroke-linejoin="round"/>
<path opacity="0.5" d="M1104.69 583.826L1101.94 585.985L1103.89 588.884L1100.61 590.084L1101.56 593.446L1098.07 593.571L1097.95 597.065L1094.58 596.11L1093.38 599.392L1090.48 597.44L1088.33 600.189L1086.17 597.44L1083.27 599.392L1082.07 596.109L1078.71 597.064L1078.58 593.571L1075.09 593.445L1076.04 590.083L1072.76 588.884L1074.71 585.985L1071.96 583.826L1074.71 581.667L1072.76 578.767L1076.04 577.568L1075.09 574.206L1078.58 574.08L1078.71 570.587L1082.07 571.542L1083.27 568.26L1086.17 570.211L1088.33 567.462L1090.48 570.211L1093.38 568.26L1094.58 571.542L1097.95 570.588L1098.07 574.081L1101.56 574.207L1100.61 577.568L1103.89 578.768L1101.94 581.667L1104.69 583.826Z" fill="white"/>
<path d="M1158.6 580.695L1138.58 577.231L1139.84 569.983L1159.85 573.447L1158.6 580.695Z" fill="url(#paint4_linear_171_3991)"/>
<path d="M1047.12 450.105C1043.55 454.862 1034.88 464.003 1034.88 464.003C1033.3 464.67 1011.3 442.139 1011.92 441.313C1011.89 438.548 1010.44 435.626 1009.51 432.895C1008.79 430.768 1008.3 427.21 1007.08 425.7C1006.32 424.756 1004.62 424.664 1003.92 427.821C1003.6 429.271 1004 431.854 1003.81 432.64C1003.61 433.427 1002.5 431.891 1000.84 429.946C999.169 428.001 993.816 421.117 992.77 420.438C991.041 419.315 989.451 421.967 992.166 425.825C993.887 428.271 995.965 430.66 997.018 432.139C994.427 431.875 994.125 434.221 994.065 434.456C993.013 434.555 992.403 434.994 992.055 435.316C991.668 435.674 991.335 436.565 991.834 437.291C990.145 438.491 990.781 440.306 991.099 440.868C991.416 441.431 993.514 443.321 995.044 443.064C997.464 447.371 998.624 448.361 1002.38 449.271C1003.64 449.578 1011.7 468.39 1029.34 482.605C1030.78 483.765 1033.97 486.707 1037.2 485.583C1045.33 482.755 1063.89 464.698 1063.89 464.698C1058.04 459.195 1050.84 453.037 1047.12 450.105Z" fill="url(#paint5_linear_171_3991)"/>
<path d="M997.933 434.963C998.497 435.839 999.57 437.064 999.733 438.199C999.847 438.984 999.181 439.703 998.41 439.52C997.455 439.293 996.483 438.132 995.831 437.557C995.075 436.779 994.3 435.933 994.076 434.836C994.102 435.986 994.851 436.967 995.56 437.808C996.109 438.442 997.071 439.458 998.005 439.913C998.108 440.581 998.196 442.209 996.475 441.569C994.33 440.773 992.035 437.539 992.035 437.539C992.233 438.08 993.703 440.243 995.345 441.385C995.49 441.713 995.71 442.426 995.187 442.936C995.187 442.936 995.828 442.785 995.848 441.695C996.247 441.912 996.65 442.06 997.041 442.092C998.779 442.241 998.699 440.774 998.576 440.109C999.113 440.217 999.61 440.062 999.973 439.433C1000.88 437.87 998.961 436.051 997.933 434.963Z" fill="url(#paint6_linear_171_3991)"/>
<path d="M1080.16 437.266C1080.16 437.266 1065.61 433.472 1062.3 434.292C1059.44 435.005 1050.5 445.379 1041.78 455.543C1044.09 458.285 1052.69 467.452 1057.74 472.211L1080.16 437.266Z" fill="url(#paint7_linear_171_3991)"/>
<path d="M1052.01 514.899C1077.75 524.347 1105.3 512.297 1105.3 512.297C1105.3 512.297 1101.02 502.823 1100.57 501.231C1100.24 500.109 1102.09 469.874 1102.09 469.874C1102.09 469.874 1095.57 451.523 1090.27 447.238C1084.98 442.953 1072.37 442.198 1072.37 442.198C1072.37 442.198 1057.08 456.31 1055.33 461.105C1053.55 465.88 1053.79 472.268 1052.74 485.683C1051.33 503.495 1052.01 514.899 1052.01 514.899Z" fill="url(#paint8_linear_171_3991)"/>
<path d="M1091.81 463.925L1096.08 486.979L1105.85 486.482L1105.3 476.617L1091.81 463.925Z" fill="#1C1C23"/>
<path d="M1059.86 440.995L1034.37 457.459L1005.98 456.131L983.752 469.003L1008.91 520.475L1027.63 506.963L1053.19 507.414L1077.16 491.123L1059.86 440.995Z" fill="white" stroke="#1C1C23" stroke-width="0.5" stroke-miterlimit="10" stroke-linecap="round" stroke-linejoin="round"/>
<path opacity="0.3" d="M987.518 470.15L1007.17 458.921L1035.47 460.396L1058.33 445.408L1073.72 489.98L1052.1 504.515L1026.47 504.246L1009.99 516.139L987.518 470.15Z" fill="url(#paint9_linear_171_3991)"/>
<path d="M1005.98 456.131L1027.63 506.963" stroke="#1C1C23" stroke-width="0.5" stroke-miterlimit="10" stroke-linecap="round" stroke-linejoin="round"/>
<path d="M1034.37 457.459L1053.2 507.414" stroke="#1C1C23" stroke-width="0.5" stroke-miterlimit="10" stroke-linecap="round" stroke-linejoin="round"/>
<path d="M1119.3 474.026C1110.91 476.005 1104.1 476.467 1098.67 476.317C1098.67 476.317 1101.07 481.915 1101.71 484.022C1098.25 482.822 1085.75 477.169 1078.39 473.768C1078.3 472.641 1078.4 471.194 1072.85 467.426C1069.63 465.242 1069.47 462.396 1067.8 462.962C1066.42 463.426 1066.81 465.738 1067.84 467.495C1067.99 467.756 1068.18 468.029 1068.38 468.3C1066.49 468.034 1063.15 467.03 1063.15 467.03C1063.15 467.03 1059.43 465.601 1057.43 465.151C1055.87 464.799 1054.54 465.522 1054.66 466.426C1053.1 465.759 1052 465.476 1050.79 465.787C1049.66 466.075 1049.33 467.231 1050.72 468.273C1051.27 468.686 1053.26 470.227 1054.17 470.744C1053.62 470.532 1053.08 470.3 1052.56 470.226C1050.42 469.923 1049.35 471.689 1051.73 473.083C1052.91 473.77 1053.9 474.358 1054.68 474.877C1054.51 474.831 1054.33 474.782 1054.17 474.75C1052.59 474.426 1050.67 475.791 1053.2 477.34C1055.6 478.806 1057.1 479.73 1058.51 480.295C1064.49 482.69 1070.39 484.259 1072.61 483.771C1084.85 492.33 1095.22 498.155 1107.1 504.018C1115.69 508.263 1122.85 504.965 1123.88 497.11C1124.28 494.054 1120.88 479.67 1119.3 474.026Z" fill="url(#paint10_linear_171_3991)"/>
<path d="M1066.42 472.208C1066.42 472.208 1062.3 471.18 1060.47 470.393C1059.87 470.134 1055.12 468.162 1054.41 467.196C1054.17 466.858 1054.16 466.457 1054.16 466.227C1054.32 466.284 1054.49 466.352 1054.66 466.428C1054.66 466.428 1054.71 466.731 1054.87 466.918C1055.36 467.492 1058.11 468.886 1060.82 469.98C1063.13 470.921 1066.42 472.208 1066.42 472.208Z" fill="url(#paint11_linear_171_3991)"/>
<path d="M1065.38 475.356C1064.77 475.26 1060.91 474.636 1059.39 474.051C1058.38 473.667 1055.55 472.169 1053.66 471.056C1053.1 470.72 1052.65 470.432 1052.33 470.201C1052.41 470.211 1052.48 470.22 1052.56 470.23C1053.05 470.297 1053.56 470.499 1054.07 470.691C1054.13 470.72 1054.16 470.739 1054.16 470.739C1054.16 470.739 1056.94 472.592 1059.62 473.628C1061.65 474.416 1064.8 475.212 1065.38 475.356Z" fill="url(#paint12_linear_171_3991)"/>
<path d="M1063.83 478.198C1063.27 478.121 1058.78 477.449 1057.19 476.681C1055.83 476.048 1053.93 475.116 1053.19 474.752C1053.51 474.684 1053.85 474.684 1054.17 474.752C1054.32 474.78 1054.5 474.828 1054.66 474.867C1054.67 474.876 1054.68 474.876 1054.68 474.876C1054.68 474.876 1056.98 476.086 1058.76 476.7C1060.42 477.276 1063.4 478.073 1063.83 478.198Z" fill="url(#paint13_linear_171_3991)"/>
<path d="M1110.1 445.496C1108.77 443.104 1091.31 438.636 1091.31 438.636L1084.57 448.73L1091.31 462.468L1097.87 481.569C1100.07 481.278 1113.87 477.415 1120.56 475.057C1116.72 462.229 1111.36 447.772 1110.1 445.496Z" fill="url(#paint14_linear_171_3991)"/>
<path d="M1119.92 415.135C1115.07 430.834 1096.34 438.989 1078.08 433.35C1059.82 427.711 1048.95 410.412 1053.8 394.713C1058.65 379.014 1077.38 370.859 1095.64 376.498C1113.9 382.138 1124.77 399.436 1119.92 415.135Z" fill="url(#paint15_linear_171_3991)"/>
<path opacity="0.5" d="M1106.43 411.665C1103.64 420.703 1092.53 425.295 1081.61 421.923C1070.69 418.55 1064.1 408.491 1066.89 399.452C1069.68 390.415 1080.8 385.822 1091.72 389.195C1102.64 392.568 1109.22 402.628 1106.43 411.665Z" fill="url(#paint16_linear_171_3991)"/>
<path d="M1106.22 434.729C1086.43 443.484 1068.88 433.328 1066.74 430.083C1069.05 426.07 1074.98 418.371 1073.16 415.02C1071.32 411.67 1066.66 411.286 1066.74 403.001C1066.75 402.387 1066.78 401.811 1066.83 401.273C1067.83 390.272 1077.31 395.177 1078.27 394.995L1098.03 395.715C1098.91 396.473 1099.94 397.472 1100.91 398.7C1103.43 401.84 1105.66 406.505 1104.34 412.515V412.524C1101.79 421.558 1102.77 430.208 1106.22 434.729Z" fill="black"/>
<path d="M1091.1 424.099C1097.9 416.098 1097.34 406.669 1097.34 406.669C1097.41 390.767 1075.51 390.831 1070.44 401.546C1067.13 408.553 1065.92 420.864 1067.7 425.481C1069.44 429.996 1073.35 432.481 1078.2 431.931L1076.67 436.254C1076.67 436.254 1074.65 435.899 1074.15 435.831C1071.53 440.262 1070.98 452.647 1080.16 452.177C1089.35 451.708 1092.87 439.048 1092.87 439.048L1089.65 438.055L1091.1 424.099Z" fill="url(#paint17_linear_171_3991)"/>
<path d="M1100.54 408.742C1098.33 418.092 1094.89 418.812 1094.89 418.812C1094.89 418.812 1094.58 416.662 1093.18 414.675C1091.19 411.833 1087.99 408.54 1088.77 405.67C1087.93 406.188 1086.63 406.64 1084.56 406.784C1078.67 407.187 1071.68 403.443 1068.77 406.064C1068.77 406.064 1067.59 406.054 1067.19 404.211C1067.19 404.211 1066.87 403.04 1066.83 401.273C1066.82 401.139 1066.82 401.004 1066.82 400.86C1066.82 398.038 1067.58 393.91 1071.23 390.502C1076.57 385.51 1089.39 386.249 1095.72 394.006C1095.72 394.006 1096.71 394.592 1098.03 395.715C1098.91 396.473 1099.94 397.472 1100.91 398.7C1101.61 401.11 1101.55 404.451 1100.54 408.742Z" fill="black"/>
<path d="M1092.43 414.095C1092.43 414.095 1096.57 411.135 1098.73 413.337C1101.76 416.419 1095.61 423.764 1092.52 422.512C1088.82 421.016 1092.43 414.095 1092.43 414.095Z" fill="url(#paint18_linear_171_3991)"/>
<path d="M1101.71 484.022C1101.71 484.022 1109.66 486.681 1113.12 488.674C1113.12 488.674 1107.7 483.163 1100.8 481.568L1101.71 484.022Z" fill="#1C1C23"/>
<path d="M1078.2 431.931C1078.2 431.931 1082.91 431.03 1086.48 427.144C1086.48 427.144 1084.44 432.467 1077.16 434.887L1078.2 431.931Z" fill="#1C1C23"/>
<path d="M1013.72 572.734L997.107 588.076C997.107 588.076 987.804 583.43 985.72 576.424C994.225 564.327 1000.34 555.748 1000.34 555.748" fill="url(#paint19_linear_171_3991)"/>
<path d="M954.733 572.97L983.836 600.916C984.878 601.888 986.491 601.878 987.516 600.885C989.891 598.592 993.743 596.549 995.912 592.102C996.864 590.141 997.234 589.354 997.114 588.068C997.114 588.068 994.056 586.374 993.097 584.496C992.108 582.56 992.989 579.636 993.102 579.217C993.208 578.824 997.738 575.744 997.305 573.28C995.386 568.459 988.06 563.948 987.212 563.459C984.549 567.378 982.584 569.452 980.785 570.247C976.105 568.535 971.29 565.973 963.123 563.928C960.146 563.191 956.845 563.604 953.476 567.913C952.784 569.199 953.656 571.982 954.733 572.97Z" fill="url(#paint20_linear_171_3991)"/>
<path d="M953.475 567.913C953.956 567.367 987.933 600.5 987.933 600.5C987.951 600.703 986.545 604.067 983.501 605.601C983.501 605.601 959.45 578.119 952.234 571.287C951.449 570.544 952.839 568.663 953.475 567.913Z" fill="black"/>
<path d="M981.604 570.638C981.604 570.638 985.826 574.063 986.543 579.213" stroke="white" stroke-width="0.75" stroke-miterlimit="10" stroke-linecap="round"/>
<path d="M981.539 577.827C980.176 572.781 976.916 569.475 976.916 569.475" stroke="white" stroke-width="0.75" stroke-miterlimit="10" stroke-linecap="round"/>
<path d="M971.598 567.406C971.598 567.406 975.065 569.407 977.073 576.2" stroke="white" stroke-width="0.75" stroke-miterlimit="10" stroke-linecap="round"/>
<path d="M1105.3 512.297C1105.3 512.297 1102.09 513.502 1099.19 514.47C1087.77 509.434 1059.46 492.865 1049.19 496.699C1036.39 501.479 997.626 558.929 997.626 558.929C1000.55 565.482 1011.34 574.536 1018.28 575.593C1018.28 575.593 1049.89 542.807 1055.69 533.492C1055.69 533.492 1069.59 544.476 1076.57 546.15H1106.97C1106.97 546.15 1117.42 531.142 1105.3 512.297Z" fill="url(#paint21_linear_171_3991)"/>
<path d="M1109.15 519.958C1105.34 517.808 1099.19 514.467 1099.19 514.467C1102.09 513.507 1105.31 512.297 1105.31 512.297C1107.01 514.937 1108.25 517.5 1109.15 519.958Z" fill="black"/>
<path d="M1076.57 546.15H1088.66C1088.66 546.15 1067.76 521.976 1050.73 530.616C1048.85 531.568 1046.44 533.721 1044.75 536.376C1040.03 543.806 1036.65 554.953 1035.71 557.052C1040.01 552.368 1044.44 547.462 1048.1 543.18L1048.08 543.124L1061.83 534.192L1076.57 546.15Z" fill="black"/>
<path d="M1060.39 600.801L1067.67 623.567C1067.67 623.567 1078.65 624.142 1084.22 618.786C1082.7 603.229 1081.54 592.151 1081.54 592.151" fill="url(#paint22_linear_171_3991)"/>
<path d="M1089.62 638.476C1092.91 642.078 1093.83 647.318 1093.89 649.758L1064.21 654.467C1063.66 652.561 1061.77 647.407 1067.82 642.988C1067.86 642.972 1067.25 623.985 1067.25 623.985C1064.66 622.486 1062.47 619.196 1060.63 614.45L1079.73 609.265C1080.44 613.764 1081.53 617.555 1084.18 618.451C1084.18 618.451 1085.75 618.976 1086.31 621.952C1086.53 623.161 1086.45 626.811 1086.45 626.811L1089.62 638.476Z" fill="url(#paint23_linear_171_3991)"/>
<path d="M1095.36 654.468H1063.73C1063.4 654.047 1063 651.829 1063.5 650.679C1063.5 650.679 1071.81 650.864 1080.57 649.832C1090.22 648.696 1093.62 647.259 1093.62 647.259C1094.23 648.203 1095.79 651.184 1095.36 654.468Z" fill="black"/>
<path d="M1078.8 637.181C1070.75 639.809 1067.83 642.987 1067.83 642.987C1067.83 642.986 1067.81 642.292 1067.75 640.029C1073.61 637.187 1078.8 637.181 1078.8 637.181Z" fill="url(#paint24_linear_171_3991)"/>
<path d="M1070.24 623.676C1073.07 624.77 1079.38 623.583 1081.25 621.53" stroke="white" stroke-width="0.75" stroke-miterlimit="10" stroke-linecap="round"/>
<path d="M1070.33 628.529C1074.3 629.77 1080.14 628.768 1082.43 626.177" stroke="white" stroke-width="0.75" stroke-miterlimit="10" stroke-linecap="round"/>
<path d="M1070.05 633.501C1073.43 635.234 1080.49 634.286 1084.03 631.038" stroke="white" stroke-width="0.75" stroke-miterlimit="10" stroke-linecap="round"/>
<path d="M1084.36 603.334C1075.6 606.032 1063.17 607.5 1060.37 607.798C1055.47 592.38 1043.24 553.049 1043.4 545.417C1043.62 534.262 1050.14 531.008 1054.39 529.836C1067.45 526.236 1077.02 540.944 1080.16 558.099C1082.51 570.886 1083.83 592.928 1084.36 603.334Z" fill="url(#paint25_linear_171_3991)"/>
<path d="M806 657H1262" stroke="black" stroke-miterlimit="10" stroke-linecap="round"/>
<path d="M697 657.434H776.598" stroke="black" stroke-miterlimit="10" stroke-linecap="round"/>
<path d="M565 657.434H673.511" stroke="black" stroke-miterlimit="10" stroke-linecap="round"/>
<path d="M376.267 400.525C376.267 400.525 370.305 401.076 368.869 396.117C368.869 396.117 372.241 395.261 375.09 398.002C375.09 398.002 373.526 395.474 373.893 393.513C373.893 393.513 376.991 394.574 377.322 398.903L376.267 400.525Z" fill="black"/>
<path d="M451.458 442.258C451.458 442.258 468.137 447.222 470.894 449.06C473.651 450.898 479.166 476.175 478.554 483.344C477.943 490.49 458.21 496.855 458.21 496.855L451.458 442.258Z" fill="url(#paint26_linear_171_3991)"/>
<path d="M478.097 352.853L480.882 342.009C480.882 342.009 465.165 343.971 462.867 343.511C460.569 343.051 458.962 342.996 457.704 343.22C456.447 343.444 454.885 344.782 455.958 345.863C457.029 346.944 463.165 347.954 463.564 348.506C463.962 349.057 466.551 353.4 466.551 353.4L464.196 386.265L445.813 376.132L442.551 398.843C442.551 398.843 471.998 412.386 478.616 406.228C485.564 399.761 478.097 352.853 478.097 352.853Z" fill="url(#paint27_linear_171_3991)"/>
<path d="M426.958 597.845L428.651 630.868L449.771 629.646L453.338 597.845H426.958Z" fill="url(#paint28_linear_171_3991)"/>
<path d="M426.958 625.046C426.958 625.046 440.051 616.673 457.168 617.203L450.58 634.36C450.58 634.36 460.783 631.786 469.423 631.419C482.842 630.847 478.063 651.285 478.063 651.285H424.752C424.752 651.285 423.466 644.933 427.509 637.026C427.51 633.169 426.958 627.16 426.958 625.046Z" fill="url(#paint29_linear_171_3991)"/>
<path d="M478.704 647.088C478.464 649.545 478.061 651.283 478.061 651.283H424.752C424.752 651.283 424.301 649.065 424.771 645.609C427.488 645.773 435.398 646.406 439.094 648.605L478.704 647.088Z" fill="black"/>
<path d="M447.823 635.188C447.823 635.188 440.929 630.706 443.434 627.375C446.127 623.793 449.822 628.8 449.569 634.59C449.569 634.59 449.96 624.328 453.889 624.342C458.624 624.359 451.407 634.728 451.407 634.728C451.407 634.728 453.001 632.369 457.321 630.868C461.641 629.366 464.858 635.034 467.769 635.739" stroke="black" stroke-width="0.5" stroke-miterlimit="10" stroke-linecap="round" stroke-linejoin="round"/>
<path d="M353.135 574.182L332.929 600.76L350.017 613.576L373.484 591.367L353.135 574.182Z" fill="url(#paint30_linear_171_3991)"/>
<path d="M333.389 598.881C333.389 598.881 351.692 598.391 361.76 610.646L346.195 617.264L349.934 630.868C349.934 630.868 359.702 629.774 364.211 636.012C369.174 642.878 361.698 651.213 361.698 651.213H338.107L312.004 616.406C312.004 616.406 319.156 606.526 326.785 605.515L333.389 598.881Z" fill="url(#paint31_linear_171_3991)"/>
<path d="M345.775 617.081C345.775 617.081 357.315 617.028 356.68 621.412C356.047 625.795 345.775 618.19 345.775 618.19C345.775 618.19 353.829 624.976 352.007 626.798C349.849 628.955 345.247 620.038 345.247 620.038C345.247 620.038 346.461 622.438 346.356 627.312C346.25 632.186 342.764 637.731 342.764 637.731" stroke="black" stroke-width="0.5" stroke-miterlimit="10" stroke-linecap="round" stroke-linejoin="round"/>
<path d="M453.309 437.552C453.309 437.552 457.918 449.585 461.823 480.475C465.236 507.466 465.3 567.015 459.4 590.178C458.548 593.524 456.68 595.566 455.298 596.461C454.701 599.449 452.786 608.349 452.786 608.349L426.315 604.35C426.315 604.35 425.764 599.387 425.549 596.847C416.121 586.87 425.365 551.943 426.917 536.29C421.797 505.741 424.367 440.017 424.367 440.017L453.309 437.552Z" fill="url(#paint32_linear_171_3991)"/>
<path d="M436.79 477.648L432.288 484.176C432.288 484.176 431.386 517.421 426.48 533.453C424.781 521.616 424.061 505.545 423.821 490.07C426.019 485.213 427.786 481.325 427.786 481.325L436.79 477.648Z" fill="#27B2C7"/>
<path d="M399.611 440.925C399.611 440.925 393.35 447.585 391.788 454.565C389.385 465.296 391.788 478.701 391.788 478.701L387.303 519.586C387.303 519.586 365.112 542.613 355.878 556.847C348.652 567.985 351.931 573.052 351.931 573.052L343.775 584.268L366.753 598.88L373.28 594.563C373.28 594.563 378.46 594.463 382.93 590.886C387.401 587.31 418.056 548.199 424.422 529.219C431.597 507.826 430.615 438.915 430.615 438.915L399.611 440.925Z" fill="url(#paint33_linear_171_3991)"/>
<path d="M434.84 369.902C434.84 369.902 446.026 374.486 448.416 379.082C451.904 385.791 446.809 402.962 447.761 410.818C448.713 418.675 454.665 437.96 453.713 438.913C452.761 439.865 431.094 448.198 399.43 441.055C399.43 441.055 400.765 430.502 400.62 424.389C399.194 415.31 390.938 386.692 389.985 376.93C394.827 372.565 416.492 366.585 416.492 366.585L434.84 369.902Z" fill="url(#paint34_linear_171_3991)"/>
<mask id="mask0_171_3991" style="mask-type:luminance" maskUnits="userSpaceOnUse" x="390" y="367" width="65" height="78">
<path d="M435.185 370.917C435.185 370.917 446.371 375.501 448.76 380.096C452.249 386.806 447.153 403.976 448.106 411.833C449.058 419.69 455.01 438.975 454.058 439.927C453.105 440.88 431.439 449.213 399.775 442.07C399.775 442.07 401.11 431.517 400.965 425.404C399.538 416.325 391.282 387.706 390.33 377.945C395.171 373.58 416.837 367.6 416.837 367.6L435.185 370.917Z" fill="white"/>
</mask>
<g mask="url(#mask0_171_3991)">
<path d="M377.667 380.159C377.667 380.159 390.29 392.405 408.307 386.983C428.947 380.771 421.712 357.487 421.712 357.487" stroke="url(#paint35_linear_171_3991)" stroke-width="2" stroke-miterlimit="10"/>
<path d="M391.928 417.782C391.928 417.782 401.3 403.581 417.978 406.27C434.656 408.959 430.611 433.255 420.317 430.282C408.823 426.964 420.44 409.816 436.862 417.047C453.284 424.278 448.137 446.582 448.137 446.582" stroke="url(#paint36_linear_171_3991)" stroke-width="2" stroke-miterlimit="10"/>
<path d="M445.685 368.639C445.685 368.639 433.632 376.589 436.369 388.368C439.436 401.559 460.392 400.748 460.392 400.748" stroke="url(#paint37_linear_171_3991)" stroke-width="2" stroke-miterlimit="10"/>
</g>
<path d="M401.99 392.361C401.99 392.361 399.83 401.04 397.085 408.768C395.213 401.241 393.043 392.726 391.584 385.968L401.99 392.361Z" fill="black"/>
<path d="M412.59 334.328C412.59 334.328 410.138 338.096 408.009 343.305C405.672 349.019 405.175 353.385 410.707 353.994C417.921 354.189 423.987 350.076 423.987 350.076L428.919 336.392" fill="url(#paint38_linear_171_3991)"/>
<path d="M414.707 333.988C414.707 333.988 404.929 347.12 407.871 352.345C409.923 355.99 423.027 353.17 426.621 351.486C431.463 349.219 434.035 341.008 434.035 341.008" fill="black"/>
<path d="M432.903 359.697C432.903 359.697 437.866 360.893 441.242 358.987C446.071 356.262 451.012 328.641 440.401 323.225C429.79 317.809 413.691 323.197 415.643 337.262C416.146 340.885 418.406 351.631 418.406 351.631L416.492 366.586C416.492 366.586 421.909 371.892 434.84 369.902L432.903 359.697Z" fill="url(#paint39_linear_171_3991)"/>
<path d="M363.974 647.904C362.87 649.91 361.699 651.216 361.699 651.216H338.112L312 616.406C312 616.406 314.316 613.22 317.201 610.723C317.201 610.723 320.506 615.911 322.224 622.534L339.821 647.903H363.974V647.904Z" fill="black"/>
<path d="M412.62 475.348C412.62 475.348 408.86 517.246 406.492 524.859C403.061 535.888 361.698 582.06 361.698 582.06" stroke="black" stroke-width="0.5" stroke-miterlimit="10" stroke-linecap="round" stroke-linejoin="round"/>
<path d="M352.691 574.182C352.691 574.182 360.321 583.807 372.637 593.091" stroke="black" stroke-width="0.5" stroke-miterlimit="10" stroke-linecap="round" stroke-linejoin="round"/>
<path d="M426.346 596.86C426.346 596.86 443.442 598.943 453.736 596.86" stroke="black" stroke-width="0.5" stroke-miterlimit="10" stroke-linecap="round" stroke-linejoin="round"/>
<path d="M406.704 455.495L386.21 418.852C386.21 418.852 398.113 400.206 401.13 394.372C406.185 384.598 398.464 372.955 389.986 376.932C389.986 376.932 386.822 379.513 381.461 388.765C375.207 399.557 365.371 419.864 367.122 423.325C370.005 429.024 397.88 461.745 397.88 461.745C397.788 466.157 400.868 472.27 400.868 472.27L412.311 458.528C410.748 457.241 406.704 455.495 406.704 455.495Z" fill="url(#paint40_linear_171_3991)"/>
<path d="M413.181 456.477L398.412 473.749L401.291 476.545L415.434 458.104L413.181 456.477Z" fill="#27B2C7"/>
<path d="M425.846 331.877C425.846 331.877 436.41 326.899 445.188 330.07C445.188 330.07 446.306 333.098 446.573 335.831C446.573 335.831 454.22 330.059 452.725 326.807C451.668 324.509 448.818 325.474 448.818 325.474C448.818 325.474 454.904 317.47 450.243 313.709C445.8 310.125 439.305 315.823 439.305 315.823C439.305 315.823 427.263 315.088 419.175 318.857C411.086 322.625 413.837 335.149 413.837 335.149L417.361 342.847L422.663 341.508L422.395 339.354C422.395 339.354 426.376 337.974 425.846 331.877Z" fill="black"/>
<path d="M439.306 315.823C439.306 315.823 426.587 317.206 413.09 336.305C413.09 336.305 400.578 325.474 413.386 312.974C418.2 308.275 430.788 304.013 439.306 315.823Z" fill="url(#paint41_linear_171_3991)"/>
<path d="M421.361 339.937C420.781 338.299 418.653 334.019 414.593 336.141C409.861 338.615 414.417 348.935 418.929 348.339C423.441 347.741 422.093 342 421.361 339.937Z" fill="url(#paint42_linear_171_3991)"/>
<path d="M428.75 314.799C428.578 314.892 428.406 314.988 428.236 315.087C426.406 316.149 425.858 318.539 427.058 320.282C427.058 320.282 431.39 317.122 434.963 316.168C433.491 314.277 430.862 313.665 428.75 314.799Z" fill="black"/>
<path d="M432.903 359.697C432.903 359.697 426.777 358.085 423.461 353.04C423.461 353.04 424.416 361.563 433.745 364.133L432.903 359.697Z" fill="black"/>
<path d="M464.195 386.265L469.515 389.27L464.445 382.782L464.195 386.265Z" fill="url(#paint43_linear_171_3991)"/>
<path d="M400.064 371.905C400.064 371.905 442.55 391.89 462.543 455.124L468.627 453.166C468.627 453.166 453.817 398.507 408.576 367.624L400.064 371.905Z" fill="url(#paint44_linear_171_3991)"/>
<path d="M461.211 454.207L469.15 451.94L470.71 457.149L462.927 459.501L461.211 454.207Z" fill="black"/>
<path d="M466.166 490.31C465.206 482.457 462.604 467.712 461.779 463.065L473.337 459.427C473.337 459.427 475.995 473.566 476.592 479.395C477.327 486.592 468.718 489.472 466.166 490.31Z" stroke="black" stroke-width="0.25" stroke-miterlimit="10" stroke-linecap="round" stroke-linejoin="round" stroke-dasharray="2 2"/>
<path d="M374.171 402.58C374.171 402.58 381.981 409.353 390.293 412.392L394.037 406.38C394.037 406.38 384.524 400.1 377.845 395.323L374.171 402.58Z" fill="url(#paint45_linear_171_3991)"/>
<path d="M487.039 324.531C486.833 324.557 486.635 324.605 486.44 324.669L454.234 332.105C452.336 332.346 451.128 335.154 451.537 338.377C451.946 341.599 453.817 344.017 455.715 343.776L488.757 342.93C488.962 342.942 489.166 342.94 489.372 342.915C492.362 342.535 494.264 338.112 493.619 333.035C492.976 327.959 490.029 324.151 487.039 324.531Z" fill="url(#paint46_linear_171_3991)"/>
<path d="M492.66 333.149C493.203 337.429 491.562 341.164 488.994 341.489C486.426 341.815 483.903 338.609 483.359 334.328C482.816 330.048 484.458 326.313 487.026 325.988C489.594 325.662 492.116 328.868 492.66 333.149Z" fill="url(#paint47_linear_171_3991)"/>
<path d="M471.607 326.489C471.401 326.515 471.202 326.564 471.008 326.627L438.802 334.063C436.904 334.304 435.696 337.112 436.105 340.335C436.514 343.558 438.384 345.976 440.283 345.734L473.325 344.888C473.53 344.901 473.735 344.899 473.94 344.873C476.931 344.494 478.833 340.07 478.188 334.994C477.543 329.917 474.596 326.11 471.607 326.489Z" fill="url(#paint48_linear_171_3991)"/>
<path d="M477.228 335.107C477.771 339.388 476.129 343.122 473.561 343.447C470.993 343.774 468.471 340.567 467.927 336.287C467.384 332.006 469.025 328.272 471.593 327.946C474.161 327.621 476.684 330.827 477.228 335.107Z" fill="url(#paint49_linear_171_3991)"/>
<path d="M446.218 339.468C446.218 339.468 448.007 345.61 448.038 367.869C448.051 377.752 445.028 395.886 457.842 394.709C471.17 393.483 474.993 363.547 471.565 344.935L469.515 344.988C469.515 344.988 471.69 355.308 470.404 366.093C469.118 376.877 468.321 392.717 457.935 393.882C448.063 394.989 450.64 373.452 450.796 367.993C451.008 360.578 451.347 345.197 449.816 338.825L446.218 339.468Z" fill="black"/>
<path d="M439.03 335.024L467.278 329.51" stroke="black" stroke-width="0.5" stroke-miterlimit="10" stroke-linecap="round" stroke-linejoin="round"/>
<path d="M175.497 497.638C175.497 489.254 172.28 482.456 168.3 482.383L168.295 482.377C168.295 482.377 168.272 482.379 168.263 482.38C168.254 482.38 168.245 482.377 168.236 482.377C168.138 482.377 168.042 482.4 167.944 482.407C164.764 482.685 140.146 484.54 119.57 484.54C90.2758 484.54 67.1129 482.377 67.1129 482.377C59.3926 499.516 67.1129 512.9 67.1129 512.9H168.295C168.296 512.898 168.297 512.895 168.299 512.893C172.279 512.821 175.497 506.022 175.497 497.638Z" fill="url(#paint50_linear_171_3991)"/>
<path d="M67.2615 512.9C71.2718 512.9 74.5229 506.067 74.5229 497.638C74.5229 489.209 71.2718 482.376 67.2615 482.376C63.2511 482.376 60 489.209 60 497.638C60 506.067 63.2511 512.9 67.2615 512.9Z" fill="black"/>
<path d="M69.3794 485.244C65.7026 483.314 61.9346 487.734 61.9346 497.416C61.9346 507.098 64.5698 510.704 66.7451 510.704C73.1791 510.704 74.0296 488.573 67.9634 488.021C61.8971 487.47 62.6402 506.293 66.8066 506.293C70.5755 506.293 70.708 490.161 67.2626 491.556C65.068 492.445 64.7935 501.548 66.9323 501.688C67.5419 501.727 68.3531 500.189 68.2917 497.753" stroke="white" stroke-width="0.25" stroke-miterlimit="10" stroke-linecap="round"/>
<path d="M98.2934 512.899C98.2934 512.899 100.559 508.757 100.559 498.063C100.559 487.37 96.5011 483.666 96.5011 483.666H91.6943C91.6943 483.666 96.0239 487.369 96.0239 498.063C96.0239 508.757 93.4867 512.899 93.4867 512.899H98.2934Z" fill="url(#paint51_linear_171_3991)"/>
<path d="M142.657 512.899C142.657 512.899 144.923 508.757 144.923 498.063C144.923 487.37 140.865 483.666 140.865 483.666H136.058C136.058 483.666 140.388 487.369 140.388 498.063C140.388 508.757 137.85 512.899 137.85 512.899H142.657Z" fill="url(#paint52_linear_171_3991)"/>
<path d="M139.616 637.731H68.232C64.4679 637.731 61.416 634.679 61.416 630.915V519.715C61.416 515.951 64.4679 512.899 68.232 512.899H139.616C143.38 512.899 146.431 515.95 146.431 519.715V630.916C146.431 634.68 143.38 637.731 139.616 637.731Z" fill="url(#paint53_linear_171_3991)"/>
<path opacity="0.5" d="M139.616 637.731H68.232C64.4679 637.731 61.416 634.679 61.416 630.915V519.715C61.416 515.951 64.4679 512.899 68.232 512.899H139.616C143.38 512.899 146.431 515.95 146.431 519.715V630.916C146.431 634.68 143.38 637.731 139.616 637.731Z" fill="url(#paint54_linear_171_3991)"/>
<path d="M80.3204 637.731C76.5562 637.731 73.5044 634.679 73.5044 630.915V519.715C73.5044 515.951 76.5562 512.899 80.3204 512.899" stroke="black" stroke-width="0.5" stroke-miterlimit="10" stroke-linecap="round"/>
<path d="M163.111 637.731H91.7271C87.963 637.731 84.9111 634.679 84.9111 630.915V519.715C84.9111 515.951 87.963 512.899 91.7271 512.899H163.111C166.875 512.899 169.926 515.95 169.926 519.715V630.916C169.927 634.68 166.875 637.731 163.111 637.731Z" fill="url(#paint55_linear_171_3991)"/>
<path d="M73.5041 640.372C73.2363 640.372 72.9761 640.397 72.7188 640.435V637.731H68.083V645.792C68.083 648.785 70.5099 651.212 73.5032 651.212C76.4964 651.212 78.9233 648.785 78.9233 645.792C78.9233 642.798 76.4984 640.372 73.5041 640.372Z" fill="black"/>
<path d="M100.268 640.372C100.001 640.372 99.7398 640.397 99.4825 640.435V637.731H94.8467V645.792C94.8467 648.785 97.2736 651.212 100.267 651.212C103.26 651.212 105.688 648.785 105.688 645.792C105.688 642.798 103.262 640.372 100.268 640.372Z" fill="black"/>
<path d="M136.606 640.372C136.338 640.372 136.078 640.397 135.82 640.435V637.731H131.185V645.792C131.185 648.785 133.611 651.212 136.605 651.212C139.598 651.212 142.025 648.785 142.025 645.792C142.025 642.798 139.599 640.372 136.606 640.372Z" fill="black"/>
<path d="M163.37 640.372C163.102 640.372 162.842 640.397 162.585 640.435V637.731H157.949V645.792C157.949 648.785 160.376 651.212 163.369 651.212C166.362 651.212 168.79 648.785 168.79 645.792C168.79 642.798 166.363 640.372 163.37 640.372Z" fill="black"/>
<path d="M98.8116 626.824H92.8577C91.6635 626.824 90.6948 625.855 90.6948 624.661V527.881C90.6948 526.686 91.6635 525.718 92.8577 525.718H98.8116C100.006 525.718 100.975 526.686 100.975 527.881V624.661C100.975 625.855 100.007 626.824 98.8116 626.824Z" stroke="black" stroke-width="0.5" stroke-miterlimit="10" stroke-linecap="round"/>
<path d="M119.868 626.824H113.914C112.72 626.824 111.751 625.855 111.751 624.661V527.881C111.751 526.686 112.72 525.718 113.914 525.718H119.868C121.063 525.718 122.031 526.686 122.031 527.881V624.661C122.031 625.855 121.063 626.824 119.868 626.824Z" stroke="black" stroke-width="0.5" stroke-miterlimit="10" stroke-linecap="round"/>
<path d="M140.924 626.824H134.97C133.776 626.824 132.807 625.855 132.807 624.661V527.881C132.807 526.686 133.776 525.718 134.97 525.718H140.924C142.118 525.718 143.087 526.686 143.087 527.881V624.661C143.087 625.855 142.118 626.824 140.924 626.824Z" stroke="black" stroke-width="0.5" stroke-miterlimit="10" stroke-linecap="round"/>
<path d="M161.98 626.824H156.026C154.831 626.824 153.863 625.855 153.863 624.661V527.881C153.863 526.686 154.831 525.718 156.026 525.718H161.98C163.174 525.718 164.142 526.686 164.142 527.881V624.661C164.143 625.855 163.175 626.824 161.98 626.824Z" stroke="black" stroke-width="0.5" stroke-miterlimit="10" stroke-linecap="round"/>
<path d="M107.948 447.283H105.252V517.812H107.948V447.283Z" fill="black"/>
<path d="M149.586 447.283H146.89V517.812H149.586V447.283Z" fill="black"/>
<path d="M106.6 450.347V442.258H148.238V450.347" stroke="url(#paint56_linear_171_3991)" stroke-width="5" stroke-miterlimit="10" stroke-linejoin="round"/>
<path d="M1227.07 512.831C1225.86 510.352 1224.23 508.595 1222.45 507.359C1219.04 504.789 1214.62 503.512 1210.04 504.172C1205.44 504.835 1201.58 507.305 1199.08 510.727C1197.75 512.411 1196.69 514.556 1196.27 517.27C1195.96 518.937 1195.9 520.676 1196.17 522.446C1196.18 522.51 1196.2 522.56 1196.21 522.612C1198 536.845 1214.98 548.23 1216.61 547.996C1218.21 547.765 1231.14 532.069 1228.69 517.929L1228.67 517.761C1228.4 515.991 1227.85 514.342 1227.07 512.831ZM1213.47 527.093C1209.53 527.66 1205.88 524.994 1205.3 521.131C1204.72 517.281 1207.44 513.695 1211.38 513.126C1215.3 512.561 1218.96 515.227 1219.54 519.078C1220.12 522.941 1217.4 526.526 1213.47 527.093Z" fill="url(#paint57_linear_171_3991)"/>
<path d="M1226.62 513.05L1226.62 513.05C1225.45 510.651 1223.87 508.958 1222.17 507.769L1222.16 507.764L1222.15 507.758C1218.84 505.265 1214.56 504.026 1210.11 504.667M1226.62 513.05L1210.11 504.667M1226.62 513.05L1226.62 513.06C1227.38 514.526 1227.92 516.122 1228.17 517.835L1228.17 517.835L1228.2 518.003L1228.2 518.003L1228.2 518.014C1229.39 524.92 1226.84 532.256 1223.73 537.939C1222.18 540.772 1220.51 543.172 1219.13 544.874C1218.44 545.726 1217.82 546.396 1217.34 546.856C1217.1 547.087 1216.9 547.257 1216.74 547.37C1216.62 547.458 1216.55 547.489 1216.53 547.499C1216.51 547.495 1216.44 547.484 1216.29 547.434C1216.11 547.37 1215.86 547.263 1215.56 547.111C1214.97 546.806 1214.18 546.337 1213.27 545.717C1211.44 544.476 1209.14 542.649 1206.82 540.373C1202.18 535.806 1197.58 529.501 1196.7 522.549L1196.7 522.549L1196.7 522.544C1196.69 522.484 1196.68 522.43 1196.67 522.407C1196.67 522.405 1196.67 522.403 1196.67 522.402C1196.67 522.388 1196.66 522.381 1196.66 522.375C1196.66 522.372 1196.66 522.37 1196.66 522.369M1226.62 513.05L1196.66 522.369M1210.11 504.667C1205.65 505.31 1201.91 507.705 1199.48 511.022L1199.48 511.03L1199.47 511.038C1198.19 512.657 1197.17 514.722 1196.76 517.348L1196.76 517.359L1196.76 517.359C1196.47 518.977 1196.41 520.66 1196.66 522.369M1210.11 504.667L1196.66 522.369M1213.54 527.587L1213.54 527.587C1209.34 528.193 1205.42 525.349 1204.8 521.205L1213.54 527.587ZM1213.54 527.587C1217.74 526.983 1220.65 523.149 1220.03 519.003L1220.03 519.003C1219.41 514.872 1215.5 512.028 1211.31 512.631L1211.31 512.631M1213.54 527.587L1211.31 512.631M1211.31 512.631C1207.1 513.238 1204.18 517.071 1204.8 521.205L1211.31 512.631Z" stroke="black" stroke-opacity="0.2"/>
<path d="M1235 451.968L1251.97 447.421L1239.55 435L1235 451.968Z" fill="url(#paint58_linear_171_3991)"/>
<path d="M977.28 641.906L987.471 644.172L984.338 634.214L977.28 641.906Z" fill="black"/>
<path d="M233 464.685L254.442 457.539L237.532 442.542L233 464.685Z" fill="url(#paint59_linear_171_3991)"/>
<path d="M744.518 581C737.606 581 732 586.606 732 593.528C732 600.44 737.606 606.046 744.518 606.046C751.44 606.046 757.046 600.44 757.046 593.528C757.046 586.606 751.44 581 744.518 581ZM744.518 601.246C740.256 601.246 736.8 597.79 736.8 593.528C736.8 589.256 740.256 585.8 744.518 585.8C748.79 585.8 752.246 589.256 752.246 593.528C752.246 597.79 748.79 601.246 744.518 601.246Z" fill="url(#paint60_linear_171_3991)"/>
<path d="M596.526 525.718C596.526 528.901 593.945 531.481 590.763 531.481C587.58 531.481 585 528.9 585 525.718C585 522.535 587.58 519.955 590.763 519.955C593.945 519.954 596.526 522.534 596.526 525.718Z" fill="url(#paint61_linear_171_3991)"/>
<path d="M883.931 608.745C883.931 611.145 881.986 613.09 879.586 613.09C877.186 613.09 875.241 611.145 875.241 608.745C875.241 606.345 877.186 604.4 879.586 604.4C881.986 604.401 883.931 606.346 883.931 608.745Z" fill="url(#paint62_linear_171_3991)"/>
<path d="M1261.56 563.986C1266.66 563.986 1270.8 559.849 1270.8 554.745C1270.8 549.641 1266.66 545.504 1261.56 545.504C1256.45 545.504 1252.32 549.641 1252.32 554.745C1252.32 559.849 1256.45 563.986 1261.56 563.986Z" fill="url(#paint63_linear_171_3991)"/>
<path d="M229.702 521.911C223.232 521.911 218 527.153 218 533.614C218 540.084 223.232 545.316 229.702 545.316C236.163 545.316 241.405 540.084 241.405 533.614C241.405 527.153 236.163 521.911 229.702 521.911ZM229.702 543.626C224.173 543.626 219.69 539.143 219.69 533.614C219.69 528.084 224.173 523.601 229.702 523.601C235.232 523.601 239.715 528.084 239.715 533.614C239.715 539.143 235.232 543.626 229.702 543.626Z" fill="url(#paint64_linear_171_3991)"/>
<path d="M657.922 439.96C657.922 441.043 657.043 441.922 655.961 441.922C654.878 441.922 654 441.043 654 439.96C654 438.877 654.878 438 655.961 438C657.043 437.999 657.922 438.876 657.922 439.96Z" fill="black"/>
<path d="M1280.58 534.193C1280.58 536.655 1278.58 538.652 1276.12 538.652C1273.65 538.652 1271.66 536.655 1271.66 534.193C1271.66 531.73 1273.66 529.733 1276.12 529.733C1278.58 529.733 1280.58 531.729 1280.58 534.193Z" fill="url(#paint65_linear_171_3991)"/>
<path opacity="0.1" d="M1182.05 440.853C1182.05 445.359 1178.4 449.012 1173.89 449.012C1169.39 449.012 1165.73 445.359 1165.73 440.853C1165.73 436.348 1169.39 432.695 1173.89 432.695C1178.4 432.695 1182.05 436.348 1182.05 440.853Z" fill="url(#paint66_linear_171_3991)"/>
<path opacity="0.1" d="M1193.81 454C1193.81 455.386 1192.69 456.511 1191.3 456.511C1189.91 456.511 1188.79 455.386 1188.79 454C1188.79 452.614 1189.91 451.49 1191.3 451.49C1192.69 451.49 1193.81 452.614 1193.81 454Z" fill="url(#paint67_linear_171_3991)"/>
<path d="M653.639 574.32C653.639 576.153 652.153 577.639 650.32 577.639C648.486 577.639 647 576.153 647 574.32C647 572.486 648.486 571 650.32 571C652.153 571 653.639 572.486 653.639 574.32Z" fill="white"/>
<path d="M293.277 494.587C295.639 494.587 297.554 492.672 297.554 490.31C297.554 487.948 295.639 486.033 293.277 486.033C290.915 486.033 289 487.948 289 490.31C289 492.672 290.915 494.587 293.277 494.587Z" fill="black"/>
<path opacity="0.1" d="M805.971 519.984C805.971 524.395 802.396 527.97 797.985 527.97C793.575 527.97 790 524.395 790 519.984C790 515.574 793.575 512 797.985 512C802.395 511.999 805.971 515.574 805.971 519.984Z" fill="url(#paint68_linear_171_3991)"/>
<path opacity="0.1" d="M546.971 7.98432C546.971 12.3946 543.396 15.9696 538.985 15.9696C534.575 15.9696 531 12.3946 531 7.98432C531 3.57408 534.575 1.93295e-07 538.985 1.93295e-07C543.395 -0.000959807 546.971 3.57408 546.971 7.98432Z" fill="url(#paint69_linear_171_3991)"/>
<path opacity="0.1" d="M218.447 399.228C218.447 405.43 213.423 410.457 207.224 410.457C201.025 410.457 196 405.43 196 399.228C196 393.026 201.025 388 207.224 388C213.421 387.999 218.447 393.026 218.447 399.228Z" fill="url(#paint70_linear_171_3991)"/>
<path d="M360.445 165.184C358.939 163.044 357.157 161.653 355.335 160.775C351.795 158.905 347.548 158.414 343.463 159.776C339.367 161.141 336.243 164.087 334.512 167.713C333.565 169.514 332.953 171.703 333.003 174.327C332.998 175.945 333.223 177.592 333.754 179.216C333.773 179.275 333.801 179.319 333.816 179.366C337.775 192.477 355.156 200.461 356.599 199.979C358.031 199.502 367.295 182.643 362.761 169.722L362.711 169.569C362.18 167.944 361.402 166.482 360.445 165.184ZM350.333 180.802C346.823 181.971 343.045 180.049 341.888 176.506C340.733 172.974 342.636 169.159 346.146 167.99C349.644 166.825 353.422 168.746 354.576 172.279C355.734 175.822 353.831 179.636 350.333 180.802Z" fill="url(#paint71_linear_171_3991)"/>
<defs>
<linearGradient id="paint0_linear_171_3991" x1="29.7253" y1="717.584" x2="29.7253" y2="614.838" gradientUnits="userSpaceOnUse">
<stop stop-color="#53B0B1"/>
<stop offset="1" stop-color="#6ACAD8"/>
</linearGradient>
<linearGradient id="paint1_linear_171_3991" x1="1234.51" y1="822.955" x2="1234.51" y2="567.601" gradientUnits="userSpaceOnUse">
<stop stop-color="#53B0B1"/>
<stop offset="1" stop-color="#6ACAD8"/>
</linearGradient>
<linearGradient id="paint2_linear_171_3991" x1="1129.27" y1="543.441" x2="1129.27" y2="641.77" gradientUnits="userSpaceOnUse">
<stop stop-color="#E4816F"/>
<stop offset="1" stop-color="#E25E52"/>
</linearGradient>
<linearGradient id="paint3_linear_171_3991" x1="1129.27" y1="543.441" x2="1129.27" y2="641.77" gradientUnits="userSpaceOnUse">
<stop stop-color="#47BCCB"/>
<stop offset="1" stop-color="#49E0F4"/>
</linearGradient>
<linearGradient id="paint4_linear_171_3991" x1="1159.69" y1="582.105" x2="1141.03" y2="574.08" gradientUnits="userSpaceOnUse">
<stop stop-color="#E6832C"/>
<stop offset="1" stop-color="#E9A347"/>
</linearGradient>
<linearGradient id="paint5_linear_171_3991" x1="1034.47" y1="382.495" x2="1023.63" y2="474.298" gradientUnits="userSpaceOnUse">
<stop stop-color="#FFCBCA"/>
<stop offset="1" stop-color="#E994A8"/>
</linearGradient>
<linearGradient id="paint6_linear_171_3991" x1="992.036" y1="438.886" x2="1000.21" y2="438.886" gradientUnits="userSpaceOnUse">
<stop stop-color="#FFCBCA"/>
<stop offset="1" stop-color="#E994A8"/>
</linearGradient>
<linearGradient id="paint7_linear_171_3991" x1="1061.97" y1="420.141" x2="1058.66" y2="507.461" gradientUnits="userSpaceOnUse">
<stop stop-color="#8EDDC2"/>
<stop offset="1" stop-color="#C2BFC6"/>
</linearGradient>
<linearGradient id="paint8_linear_171_3991" x1="1081.86" y1="420.895" x2="1078.55" y2="508.214" gradientUnits="userSpaceOnUse">
<stop stop-color="#4EFFBB"/>
<stop offset="1" stop-color="#C1BEC5"/>
</linearGradient>
<linearGradient id="paint9_linear_171_3991" x1="1008.42" y1="422.183" x2="1044.08" y2="509.686" gradientUnits="userSpaceOnUse">
<stop stop-color="#8AB9FD"/>
<stop offset="1" stop-color="#0056E9"/>
</linearGradient>
<linearGradient id="paint10_linear_171_3991" x1="1096.21" y1="402.61" x2="1086.89" y2="481.591" gradientUnits="userSpaceOnUse">
<stop stop-color="#FFCBCA"/>
<stop offset="1" stop-color="#E994A8"/>
</linearGradient>
<linearGradient id="paint11_linear_171_3991" x1="1054.16" y1="469.217" x2="1066.42" y2="469.217" gradientUnits="userSpaceOnUse">
<stop stop-color="#FFCBCA"/>
<stop offset="1" stop-color="#E994A8"/>
</linearGradient>
<linearGradient id="paint12_linear_171_3991" x1="1052.33" y1="472.779" x2="1065.38" y2="472.779" gradientUnits="userSpaceOnUse">
<stop stop-color="#FFCBCA"/>
<stop offset="1" stop-color="#E994A8"/>
</linearGradient>
<linearGradient id="paint13_linear_171_3991" x1="1053.19" y1="476.45" x2="1063.83" y2="476.45" gradientUnits="userSpaceOnUse">
<stop stop-color="#FFCBCA"/>
<stop offset="1" stop-color="#E994A8"/>
</linearGradient>
<linearGradient id="paint14_linear_171_3991" x1="1104.09" y1="421.737" x2="1100.78" y2="509.056" gradientUnits="userSpaceOnUse">
<stop stop-color="#7BE7C0"/>
<stop offset="1" stop-color="#C2BFC6"/>
</linearGradient>
<linearGradient id="paint15_linear_171_3991" x1="1042.65" y1="548.075" x2="1095.39" y2="377.301" gradientUnits="userSpaceOnUse">
<stop stop-color="#E6832C"/>
<stop offset="1" stop-color="#E9A347"/>
</linearGradient>
<linearGradient id="paint16_linear_171_3991" x1="1061.21" y1="487.967" x2="1091.58" y2="389.657" gradientUnits="userSpaceOnUse">
<stop stop-color="#E6832C"/>
<stop offset="1" stop-color="#E9A347"/>
</linearGradient>
<linearGradient id="paint17_linear_171_3991" x1="1083.52" y1="400.762" x2="1074.14" y2="480.177" gradientUnits="userSpaceOnUse">
<stop stop-color="#FFCBCA"/>
<stop offset="1" stop-color="#E994A8"/>
</linearGradient>
<linearGradient id="paint18_linear_171_3991" x1="1096.98" y1="402.352" x2="1087.61" y2="481.767" gradientUnits="userSpaceOnUse">
<stop stop-color="#FFCBCA"/>
<stop offset="1" stop-color="#E994A8"/>
</linearGradient>
<linearGradient id="paint19_linear_171_3991" x1="1012.29" y1="557.405" x2="985.064" y2="592.809" gradientUnits="userSpaceOnUse">
<stop stop-color="#FFCBCA"/>
<stop offset="1" stop-color="#E994A8"/>
</linearGradient>
<linearGradient id="paint20_linear_171_3991" x1="997.52" y1="582.101" x2="953.535" y2="583.069" gradientUnits="userSpaceOnUse">
<stop stop-color="#E6832C"/>
<stop offset="1" stop-color="#E9A347"/>
</linearGradient>
<linearGradient id="paint21_linear_171_3991" x1="1054.39" y1="504.315" x2="1054.39" y2="550.206" gradientUnits="userSpaceOnUse">
<stop stop-color="#E4816F"/>
<stop offset="1" stop-color="#E25E52"/>
</linearGradient>
<linearGradient id="paint22_linear_171_3991" x1="1069.69" y1="587.45" x2="1076.28" y2="634.195" gradientUnits="userSpaceOnUse">
<stop stop-color="#FFCBCA"/>
<stop offset="1" stop-color="#E994A8"/>
</linearGradient>
<linearGradient id="paint23_linear_171_3991" x1="1071.51" y1="609.371" x2="1079.32" y2="653.66" gradientUnits="userSpaceOnUse">
<stop stop-color="#E6832C"/>
<stop offset="1" stop-color="#E9A347"/>
</linearGradient>
<linearGradient id="paint24_linear_171_3991" x1="1072.92" y1="637.861" x2="1073.66" y2="642.085" gradientUnits="userSpaceOnUse">
<stop stop-color="#E6832C"/>
<stop offset="1" stop-color="#E9A347"/>
</linearGradient>
<linearGradient id="paint25_linear_171_3991" x1="1063.88" y1="532.929" x2="1063.88" y2="600.064" gradientUnits="userSpaceOnUse">
<stop stop-color="#E4816F"/>
<stop offset="1" stop-color="#E25E52"/>
</linearGradient>
<linearGradient id="paint26_linear_171_3991" x1="464.86" y1="491.494" x2="465.106" y2="448.968" gradientUnits="userSpaceOnUse">
<stop stop-color="#E6832C"/>
<stop offset="1" stop-color="#E9A347"/>
</linearGradient>
<linearGradient id="paint27_linear_171_3991" x1="462.062" y1="342.966" x2="462.062" y2="414.378" gradientUnits="userSpaceOnUse">
<stop stop-color="#FFCBCA"/>
<stop offset="1" stop-color="#E994A8"/>
</linearGradient>
<linearGradient id="paint28_linear_171_3991" x1="442.858" y1="577.472" x2="437.894" y2="617.547" gradientUnits="userSpaceOnUse">
<stop stop-color="#FFCBCA"/>
<stop offset="1" stop-color="#E994A8"/>
</linearGradient>
<linearGradient id="paint29_linear_171_3991" x1="451.724" y1="589.236" x2="451.724" y2="648.684" gradientUnits="userSpaceOnUse">
<stop stop-color="#8AB9FD"/>
<stop offset="1" stop-color="#0056E9"/>
</linearGradient>
<linearGradient id="paint30_linear_171_3991" x1="353.207" y1="564.444" x2="353.207" y2="608.563" gradientUnits="userSpaceOnUse">
<stop stop-color="#FFCBCA"/>
<stop offset="1" stop-color="#E994A8"/>
</linearGradient>
<linearGradient id="paint31_linear_171_3991" x1="338.958" y1="594.102" x2="338.958" y2="648.888" gradientUnits="userSpaceOnUse">
<stop stop-color="#8AB9FD"/>
<stop offset="1" stop-color="#0056E9"/>
</linearGradient>
<linearGradient id="paint32_linear_171_3991" x1="442.764" y1="605.331" x2="442.764" y2="455.987" gradientUnits="userSpaceOnUse">
<stop stop-color="#8AB9FD"/>
<stop offset="1" stop-color="#6ACAD8"/>
</linearGradient>
<linearGradient id="paint33_linear_171_3991" x1="387.218" y1="604.929" x2="387.218" y2="455.991" gradientUnits="userSpaceOnUse">
<stop stop-color="#8AB9FD"/>
<stop offset="1" stop-color="#6ACAD8"/>
</linearGradient>
<linearGradient id="paint34_linear_171_3991" x1="421.901" y1="444.587" x2="421.901" y2="361.68" gradientUnits="userSpaceOnUse">
<stop stop-color="#FFE9AB"/>
<stop offset="1" stop-color="#FBB800"/>
</linearGradient>
<linearGradient id="paint35_linear_171_3991" x1="376.998" y1="373.264" x2="423.901" y2="373.264" gradientUnits="userSpaceOnUse">
<stop stop-color="#53B0B1"/>
<stop offset="1" stop-color="#6ACAD8"/>
</linearGradient>
<linearGradient id="paint36_linear_171_3991" x1="391.127" y1="425.885" x2="449.861" y2="425.885" gradientUnits="userSpaceOnUse">
<stop stop-color="#53B0B1"/>
<stop offset="1" stop-color="#6ACAD8"/>
</linearGradient>
<linearGradient id="paint37_linear_171_3991" x1="435.005" y1="384.777" x2="460.429" y2="384.777" gradientUnits="userSpaceOnUse">
<stop stop-color="#53B0B1"/>
<stop offset="1" stop-color="#6ACAD8"/>
</linearGradient>
<linearGradient id="paint38_linear_171_3991" x1="427.842" y1="310.176" x2="415.832" y2="347.922" gradientUnits="userSpaceOnUse">
<stop stop-color="#8AB9FD"/>
<stop offset="1" stop-color="#0056E9"/>
</linearGradient>
<linearGradient id="paint39_linear_171_3991" x1="430.918" y1="321.537" x2="431.475" y2="370.189" gradientUnits="userSpaceOnUse">
<stop stop-color="#FFCBCA"/>
<stop offset="1" stop-color="#E994A8"/>
</linearGradient>
<linearGradient id="paint40_linear_171_3991" x1="389.614" y1="473.094" x2="389.614" y2="370.032" gradientUnits="userSpaceOnUse">
<stop stop-color="#FFCBCA"/>
<stop offset="1" stop-color="#E994A8"/>
</linearGradient>
<linearGradient id="paint41_linear_171_3991" x1="426.494" y1="309.747" x2="414.484" y2="347.493" gradientUnits="userSpaceOnUse">
<stop stop-color="#8AB9FD"/>
<stop offset="1" stop-color="#0056E9"/>
</linearGradient>
<linearGradient id="paint42_linear_171_3991" x1="417.119" y1="320.842" x2="417.716" y2="372.961" gradientUnits="userSpaceOnUse">
<stop stop-color="#FFCBCA"/>
<stop offset="1" stop-color="#E994A8"/>
</linearGradient>
<linearGradient id="paint43_linear_171_3991" x1="464.195" y1="386.026" x2="469.515" y2="386.026" gradientUnits="userSpaceOnUse">
<stop stop-color="#FFCBCA"/>
<stop offset="1" stop-color="#E994A8"/>
</linearGradient>
<linearGradient id="paint44_linear_171_3991" x1="400.065" y1="411.374" x2="468.626" y2="411.374" gradientUnits="userSpaceOnUse">
<stop stop-color="#E4816F"/>
<stop offset="1" stop-color="#E25E52"/>
</linearGradient>
<linearGradient id="paint45_linear_171_3991" x1="374.172" y1="403.857" x2="394.037" y2="403.857" gradientUnits="userSpaceOnUse">
<stop stop-color="#E4816F"/>
<stop offset="1" stop-color="#E25E52"/>
</linearGradient>
<linearGradient id="paint46_linear_171_3991" x1="471.446" y1="326.781" x2="473.977" y2="346.726" gradientUnits="userSpaceOnUse">
<stop stop-color="#E4816F"/>
<stop offset="1" stop-color="#E25E52"/>
</linearGradient>
<linearGradient id="paint47_linear_171_3991" x1="486.698" y1="323.405" x2="489.094" y2="342.281" gradientUnits="userSpaceOnUse">
<stop stop-color="#8AB9FD"/>
<stop offset="1" stop-color="#0056E9"/>
</linearGradient>
<linearGradient id="paint48_linear_171_3991" x1="456.013" y1="328.739" x2="458.545" y2="348.685" gradientUnits="userSpaceOnUse">
<stop stop-color="#E4816F"/>
<stop offset="1" stop-color="#E25E52"/>
</linearGradient>
<linearGradient id="paint49_linear_171_3991" x1="471.266" y1="325.363" x2="473.661" y2="344.239" gradientUnits="userSpaceOnUse">
<stop stop-color="#8AB9FD"/>
<stop offset="1" stop-color="#0056E9"/>
</linearGradient>
<linearGradient id="paint50_linear_171_3991" x1="119.589" y1="483.804" x2="119.589" y2="511.379" gradientUnits="userSpaceOnUse">
<stop stop-color="#875FA7"/>
<stop offset="1" stop-color="#582792"/>
</linearGradient>
<linearGradient id="paint51_linear_171_3991" x1="96.1262" y1="484.662" x2="96.1262" y2="507.601" gradientUnits="userSpaceOnUse">
<stop stop-color="#E4816F"/>
<stop offset="1" stop-color="#E25E52"/>
</linearGradient>
<linearGradient id="paint52_linear_171_3991" x1="140.491" y1="484.662" x2="140.491" y2="507.601" gradientUnits="userSpaceOnUse">
<stop stop-color="#E4816F"/>
<stop offset="1" stop-color="#E25E52"/>
</linearGradient>
<linearGradient id="paint53_linear_171_3991" x1="103.924" y1="637.552" x2="103.924" y2="500.568" gradientUnits="userSpaceOnUse">
<stop stop-color="#FBB800"/>
<stop offset="1" stop-color="#E9A347"/>
</linearGradient>
<linearGradient id="paint54_linear_171_3991" x1="103.924" y1="637.552" x2="103.924" y2="500.568" gradientUnits="userSpaceOnUse">
<stop stop-color="#FBB800"/>
<stop offset="1" stop-color="#E9A347"/>
</linearGradient>
<linearGradient id="paint55_linear_171_3991" x1="127.419" y1="669.029" x2="127.419" y2="580.496" gradientUnits="userSpaceOnUse">
<stop stop-color="#FBB800"/>
<stop offset="1" stop-color="#E9A347"/>
</linearGradient>
<linearGradient id="paint56_linear_171_3991" x1="104.2" y1="445.103" x2="150.638" y2="445.103" gradientUnits="userSpaceOnUse">
<stop stop-color="#E6832C"/>
<stop offset="1" stop-color="#E9A347"/>
</linearGradient>
<linearGradient id="paint57_linear_171_3991" x1="1209.41" y1="505.244" x2="1217.22" y2="545.576" gradientUnits="userSpaceOnUse">
<stop stop-color="#E4816F"/>
<stop offset="1" stop-color="#E25E52"/>
</linearGradient>
<linearGradient id="paint58_linear_171_3991" x1="1245.88" y1="435.701" x2="1242.45" y2="455.755" gradientUnits="userSpaceOnUse">
<stop stop-color="#8AB9FD"/>
<stop offset="1" stop-color="#0056E9"/>
</linearGradient>
<linearGradient id="paint59_linear_171_3991" x1="247.017" y1="466.772" x2="235.742" y2="447.409" gradientUnits="userSpaceOnUse">
<stop stop-color="#E6832C"/>
<stop offset="1" stop-color="#E9A347"/>
</linearGradient>
<linearGradient id="paint60_linear_171_3991" x1="735.782" y1="584.047" x2="753.246" y2="602.982" gradientUnits="userSpaceOnUse">
<stop stop-color="#E4816F"/>
<stop offset="1" stop-color="#E25E52"/>
</linearGradient>
<linearGradient id="paint61_linear_171_3991" x1="586.741" y1="521.356" x2="594.777" y2="530.07" gradientUnits="userSpaceOnUse">
<stop stop-color="#E4816F"/>
<stop offset="1" stop-color="#E25E52"/>
</linearGradient>
<linearGradient id="paint62_linear_171_3991" x1="875.425" y1="604.584" x2="884.91" y2="614.069" gradientUnits="userSpaceOnUse">
<stop stop-color="#8AB9FD"/>
<stop offset="1" stop-color="#0056E9"/>
</linearGradient>
<linearGradient id="paint63_linear_171_3991" x1="1273.3" y1="566.489" x2="1258.12" y2="551.304" gradientUnits="userSpaceOnUse">
<stop stop-color="#E6832C"/>
<stop offset="1" stop-color="#E9A347"/>
</linearGradient>
<linearGradient id="paint64_linear_171_3991" x1="221.532" y1="524.759" x2="237.853" y2="542.454" gradientUnits="userSpaceOnUse">
<stop stop-color="#E4816F"/>
<stop offset="1" stop-color="#E25E52"/>
</linearGradient>
<linearGradient id="paint65_linear_171_3991" x1="1273.01" y1="530.818" x2="1279.22" y2="537.56" gradientUnits="userSpaceOnUse">
<stop stop-color="#E4816F"/>
<stop offset="1" stop-color="#E25E52"/>
</linearGradient>
<linearGradient id="paint66_linear_171_3991" x1="1139.42" y1="406.679" x2="1182.44" y2="449.327" gradientUnits="userSpaceOnUse">
<stop stop-color="#8AB9FD"/>
<stop offset="1" stop-color="#0056E9"/>
</linearGradient>
<linearGradient id="paint67_linear_171_3991" x1="1186.96" y1="449.661" x2="1193.96" y2="456.664" gradientUnits="userSpaceOnUse">
<stop stop-color="#8AB9FD"/>
<stop offset="1" stop-color="#0056E9"/>
</linearGradient>
<linearGradient id="paint68_linear_171_3991" x1="787.214" y1="509.213" x2="802.538" y2="524.537" gradientUnits="userSpaceOnUse">
<stop stop-color="#8AB9FD"/>
<stop offset="1" stop-color="#0056E9"/>
</linearGradient>
<linearGradient id="paint69_linear_171_3991" x1="528.214" y1="-2.78678" x2="543.538" y2="12.5367" gradientUnits="userSpaceOnUse">
<stop stop-color="#8AB9FD"/>
<stop offset="1" stop-color="#0056E9"/>
</linearGradient>
<linearGradient id="paint70_linear_171_3991" x1="192.084" y1="384.081" x2="213.633" y2="405.619" gradientUnits="userSpaceOnUse">
<stop stop-color="#8AB9FD"/>
<stop offset="1" stop-color="#0056E9"/>
</linearGradient>
<linearGradient id="paint71_linear_171_3991" x1="345.472" y1="160.178" x2="353.218" y2="198.472" gradientUnits="userSpaceOnUse">
<stop stop-color="#E4816F"/>
<stop offset="1" stop-color="#E25E52"/>
</linearGradient>
</defs>
</svg>
