<svg width="200" height="200" viewBox="0 0 200 200" fill="none" xmlns="http://www.w3.org/2000/svg">
<path d="M45.193 140.679C46.1218 140.299 47.2562 140.484 48.0166 141.138C48.777 141.793 49.1278 142.888 48.8902 143.862C50.669 143.075 52.8798 144.123 53.8426 145.814C54.8054 147.504 54.7278 149.617 54.1706 151.481C55.4266 151.518 56.6146 152.402 57.0098 153.595C57.405 154.788 56.9802 156.206 55.9946 156.986C57.4566 156.898 58.8986 158.002 59.1954 159.436C59.4922 160.871 58.607 162.456 57.2302 162.956C58.7338 164.055 59.3042 166.26 58.5218 167.95C57.7394 169.64 55.689 170.632 53.8782 170.196C53.8466 171.678 52.9874 173.114 51.6978 173.842C50.4078 174.571 48.7342 174.566 47.4494 173.828C46.337 175.388 44.515 176.419 42.6054 176.571C40.6958 176.722 38.7338 175.991 37.3894 174.626C36.0862 175.434 34.645 176.192 33.1142 176.108C31.5838 176.026 30.0222 174.769 30.1574 173.242C28.7754 173.715 27.2406 174.113 25.883 173.574C24.5254 173.034 23.663 171.145 24.6318 170.052C22.1594 170.503 19.5722 168.246 19.6826 165.735C18.4022 166.294 16.7878 165.963 15.8302 164.946C14.8726 163.93 14.6386 162.298 15.2722 161.054C13.5998 160.414 13.0582 158.146 13.7326 156.488C14.407 154.829 15.927 153.682 17.441 152.727C16.4062 151.228 16.327 149.126 17.2462 147.553C18.1654 145.98 20.0358 145.017 21.8498 145.183C21.4518 143.674 22.1658 141.942 23.5114 141.152C24.857 140.362 26.717 140.584 27.8402 141.667C27.7502 139.21 30.5302 137.118 32.8662 137.886C33.5874 138.122 34.2658 138.578 35.0246 138.554C36.0574 138.522 36.8434 137.626 37.8178 137.282C39.3362 136.748 41.2018 137.899 41.4046 139.496C41.3946 138.767 42.221 138.222 42.939 138.35C43.657 138.479 44.2026 139.108 44.4434 139.797C44.6842 140.485 44.675 141.232 44.6634 141.962" fill="#EBEBEB"/>
<path d="M45.7028 161.812C45.6204 161.803 44.8564 168.142 43.9964 175.968C43.1364 183.797 42.5064 190.149 42.5888 190.158C42.6712 190.167 43.4352 183.83 44.2952 176.001C45.1548 168.175 45.7852 161.822 45.7028 161.812Z" fill="#E0E0E0"/>
<path d="M44.5685 171.03C44.6341 171.081 45.7373 169.758 47.0321 168.077C48.3273 166.395 49.3237 164.99 49.2577 164.94C49.1921 164.89 48.0889 166.212 46.7941 167.894C45.4993 169.575 44.5025 170.979 44.5685 171.03Z" fill="#E0E0E0"/>
<path d="M40.0137 153.198C39.9309 153.195 39.5685 161.456 39.2045 171.646C38.8405 181.84 38.6129 190.103 38.6957 190.106C38.7785 190.109 39.1409 181.85 39.5049 171.656C39.8689 161.466 40.0969 153.201 40.0137 153.198Z" fill="#E0E0E0"/>
<path d="M35.4858 153.581C35.4754 153.581 35.4714 153.709 35.473 153.952C35.4786 154.226 35.4858 154.578 35.4946 155.013C35.5218 155.972 35.5594 157.295 35.6058 158.913C35.6982 162.206 35.7934 166.756 35.8134 171.781C35.8314 176.808 35.7706 181.358 35.703 184.652C35.669 186.27 35.6414 187.593 35.6214 188.552C35.6158 188.987 35.6114 189.339 35.6078 189.613C35.6082 189.856 35.6134 189.983 35.6234 189.984C35.6338 189.984 35.649 189.857 35.6682 189.615C35.6862 189.342 35.7094 188.99 35.7382 188.556C35.7938 187.636 35.8554 186.304 35.9154 184.658C36.0374 181.364 36.1318 176.81 36.1138 171.78C36.0938 166.75 35.965 162.198 35.8182 158.906C35.7458 157.259 35.6742 155.927 35.6118 155.008C35.5798 154.573 35.5542 154.222 35.5338 153.949C35.5122 153.707 35.4962 153.58 35.4858 153.581Z" fill="#E0E0E0"/>
<path d="M33.5771 165.718C33.5031 165.743 33.8131 166.8 34.5051 167.96C35.1923 169.124 35.9727 169.902 36.0295 169.849C36.0963 169.792 35.4339 168.943 34.7635 167.807C34.0871 166.675 33.6591 165.687 33.5771 165.718Z" fill="#E0E0E0"/>
<path d="M27.1225 158.878C27.1125 158.88 27.1285 158.99 27.1685 159.196C27.2185 159.435 27.2805 159.732 27.3565 160.096C27.5369 160.917 27.7821 162.034 28.0809 163.396C28.6913 166.182 29.5049 170.037 30.3121 174.312C31.1177 178.59 31.7637 182.477 32.2097 185.294C32.4273 186.671 32.6053 187.8 32.7365 188.63C32.7981 188.997 32.8485 189.296 32.8889 189.537C32.9269 189.744 32.9521 189.852 32.9621 189.85C32.9725 189.849 32.9673 189.738 32.9489 189.529C32.9233 189.286 32.8913 188.984 32.8525 188.615C32.7637 187.822 32.6169 186.676 32.4201 185.263C32.0277 182.436 31.4141 178.539 30.6077 174.257C29.7997 169.977 28.9521 166.125 28.2885 163.349C27.9569 161.961 27.6769 160.84 27.4705 160.069C27.3721 159.711 27.2917 159.418 27.2273 159.183C27.1681 158.98 27.1325 158.875 27.1225 158.878Z" fill="#E0E0E0"/>
<path d="M24.5372 165.336C24.4816 165.398 25.5704 166.475 26.9692 167.742C28.3684 169.009 29.5472 169.986 29.6032 169.925C29.6588 169.863 28.57 168.786 27.1708 167.519C25.7724 166.252 24.5932 165.274 24.5372 165.336Z" fill="#E0E0E0"/>
<path d="M28.3572 164.127C28.4308 164.166 28.9588 163.308 29.5368 162.21C30.1152 161.113 30.5244 160.192 30.4508 160.153C30.3776 160.114 29.8492 160.973 29.2712 162.07C28.6928 163.168 28.2836 164.088 28.3572 164.127Z" fill="#E0E0E0"/>
<path d="M15.2743 147.523C15.5119 145.652 14.1647 143.713 12.3291 143.283C12.1467 145.064 13.2143 147.1 15.2743 147.523Z" fill="#E0E0E0"/>
<path d="M14.3374 149.466C13.4494 150.876 10.6838 151.21 9.02979 150.301C10.1862 148.674 12.7378 148.273 14.3374 149.466Z" fill="#E0E0E0"/>
<path d="M159.445 114.654H145.127V118.442H159.445V114.654Z" fill="#EBEBEB"/>
<path d="M153.39 122.431C153.389 122.43 153.388 122.406 153.386 122.362C153.385 122.312 153.383 122.248 153.381 122.168C153.379 121.99 153.375 121.741 153.37 121.422C153.365 120.768 153.356 119.828 153.346 118.643L153.39 118.688C150.121 118.694 144.922 118.704 139.073 118.716C139.106 118.684 139 118.789 139.145 118.644V118.644V118.646V118.65V118.658V118.673V118.703V118.764V118.886V119.128C139.145 119.29 139.145 119.451 139.145 119.612C139.145 119.933 139.145 120.251 139.145 120.568C139.144 121.2 139.144 121.822 139.144 122.431L139.072 122.36C143.15 122.372 146.717 122.384 149.276 122.392C150.55 122.401 151.573 122.408 152.287 122.412C152.635 122.416 152.907 122.42 153.102 122.422C153.189 122.424 153.259 122.425 153.315 122.426C153.363 122.428 153.389 122.43 153.39 122.431C153.392 122.433 153.37 122.434 153.324 122.436C153.271 122.437 153.204 122.439 153.12 122.44C152.928 122.443 152.662 122.446 152.321 122.45C151.61 122.454 150.593 122.461 149.326 122.47C146.754 122.478 143.17 122.49 139.072 122.502L139.001 122.503V122.431C139.001 121.822 139 121.2 139 120.568C139 120.252 139 119.933 139 119.612C139 119.452 139 119.29 139 119.129V118.886V118.764V118.704V118.673V118.658V118.65V118.647V118.645V118.644C139.146 118.498 139.04 118.604 139.074 118.571C144.922 118.582 150.122 118.593 153.391 118.599H153.436L153.435 118.644C153.425 119.84 153.416 120.789 153.411 121.449C153.406 121.764 153.403 122.009 153.4 122.185C153.398 122.261 153.397 122.323 153.395 122.371C153.393 122.412 153.392 122.433 153.39 122.431Z" fill="#E0E0E0"/>
<path d="M43.3566 27.002H29.0386V30.7896H43.3566V27.002Z" fill="#EBEBEB"/>
<path d="M37.3019 34.7792C37.3003 34.7776 37.2991 34.7544 37.2975 34.7104C37.2963 34.6596 37.2947 34.596 37.2927 34.516C37.2903 34.3376 37.2867 34.0892 37.2819 33.7704C37.2763 33.1164 37.2679 32.1764 37.2575 30.9912L37.3019 31.0356C34.0327 31.042 28.8335 31.0524 22.9851 31.0644C23.0175 31.032 22.9115 31.1372 23.0571 30.9916V30.9924V30.9944V30.998V31.0056V31.0208V31.0512V31.112V31.2336V31.4764C23.0571 31.638 23.0571 31.7992 23.0571 31.9596C23.0571 32.2808 23.0571 32.5992 23.0567 32.9156C23.0563 33.548 23.0559 34.1696 23.0555 34.7788L22.9839 34.708C27.0611 34.7208 30.6283 34.7324 33.1871 34.7404C34.4615 34.7488 35.4843 34.756 36.1987 34.7608C36.5463 34.7648 36.8183 34.768 37.0131 34.77C37.1007 34.772 37.1707 34.7736 37.2263 34.7744C37.2751 34.776 37.3003 34.7776 37.3019 34.7792C37.3035 34.7808 37.2811 34.7824 37.2355 34.784C37.1827 34.7852 37.1155 34.7868 37.0311 34.7884C36.8399 34.7908 36.5731 34.7936 36.2323 34.7976C35.5219 34.8024 34.5047 34.8092 33.2371 34.818C30.6659 34.826 27.0811 34.8376 22.9839 34.8504H22.9127V34.7788C22.9123 34.1696 22.9119 33.548 22.9115 32.9156C22.9115 32.5996 22.9111 32.2808 22.9111 31.9596C22.9111 31.7992 22.9111 31.638 22.9111 31.4764V31.2336V31.112V31.0512V31.0208V31.0056V30.998V30.9944V30.9924V30.9916C23.0571 30.8456 22.9519 30.9512 22.9851 30.9184C28.8339 30.93 34.0331 30.9404 37.3019 30.9468H37.3467L37.3463 30.9912C37.3359 32.1876 37.3275 33.1368 37.3219 33.7968C37.3175 34.1112 37.3139 34.3564 37.3111 34.5324C37.3091 34.6088 37.3075 34.6704 37.3063 34.7188C37.3047 34.7604 37.3035 34.7808 37.3019 34.7792Z" fill="#E0E0E0"/>
<path d="M87.9176 39.6H73.5996V43.3876H87.9176V39.6Z" fill="#EBEBEB"/>
<path d="M102.312 22.5692C102.311 22.5676 102.309 22.5444 102.308 22.5004C102.307 22.4496 102.305 22.386 102.303 22.306C102.3 22.1276 102.297 21.8792 102.292 21.5604C102.286 20.9064 102.278 19.9664 102.268 18.7812L102.312 18.8256C99.043 18.832 93.8438 18.8424 87.9954 18.854C88.0278 18.8216 87.9218 18.9268 88.0674 18.7812V18.782V18.784V18.788V18.7956V18.8108V18.8412V18.902V19.0236V19.2664C88.0674 19.428 88.0674 19.5892 88.0674 19.7496C88.0674 20.0708 88.067 20.3892 88.067 20.7056C88.0666 21.338 88.0662 21.9596 88.0658 22.5688L87.9946 22.4976C92.0718 22.5104 95.639 22.522 98.1978 22.53C99.4722 22.5388 100.495 22.5456 101.209 22.5504C101.557 22.5544 101.829 22.5576 102.024 22.5596C102.111 22.5616 102.182 22.5632 102.237 22.564C102.285 22.5664 102.311 22.5676 102.312 22.5692C102.314 22.5708 102.291 22.5724 102.246 22.5736C102.193 22.5748 102.125 22.5764 102.041 22.5784C101.85 22.5808 101.583 22.584 101.243 22.5876C100.532 22.5924 99.515 22.5992 98.2474 22.608C95.6762 22.616 92.0914 22.6276 87.9942 22.6404L87.923 22.6408V22.5692C87.9226 21.96 87.9222 21.3384 87.9218 20.706C87.9218 20.39 87.9218 20.0712 87.9214 19.75C87.9214 19.5896 87.9214 19.4284 87.9214 19.2668V19.024V18.9024V18.8416V18.8112V18.796V18.7884V18.7844V18.7824V18.7816C88.0674 18.6356 87.9626 18.7412 87.9954 18.7084C93.8442 18.72 99.0434 18.7304 102.312 18.7368H102.357L102.357 18.7812C102.346 19.9776 102.338 20.9268 102.332 21.5868C102.327 21.9012 102.324 22.1464 102.321 22.3224C102.319 22.3988 102.318 22.4604 102.317 22.5088C102.315 22.5504 102.314 22.5708 102.312 22.5692Z" fill="#E0E0E0"/>
<path d="M104.254 18.7816C104.252 18.78 104.25 18.7556 104.248 18.7096C104.247 18.6552 104.245 18.5892 104.243 18.5088C104.239 18.3224 104.235 18.0692 104.229 17.7492C104.223 17.0852 104.213 16.1472 104.201 14.9936L104.253 15.046C102.025 15.0512 98.9929 15.0584 95.6513 15.0664C95.5857 15.1316 95.7393 14.9776 95.7237 14.994V14.9948V14.9968V15.0008V15.0088V15.0244V15.0556V15.118V15.2424V15.49C95.7237 15.6548 95.7237 15.8184 95.7233 15.9812C95.7233 16.3068 95.7229 16.6284 95.7225 16.9452C95.7217 17.5788 95.7209 18.1932 95.7197 18.7816L95.6505 18.712C98.1341 18.7252 100.272 18.7368 101.805 18.7448C102.56 18.7528 103.166 18.7592 103.597 18.764C103.799 18.7676 103.959 18.7704 104.081 18.7728C104.192 18.776 104.251 18.7788 104.254 18.7816C104.257 18.7844 104.203 18.7872 104.098 18.79C103.98 18.792 103.824 18.7952 103.629 18.7988C103.201 18.8036 102.601 18.81 101.852 18.818C100.308 18.8264 98.1533 18.8376 95.6509 18.8512L95.5813 18.8516V18.7816C95.5805 18.1928 95.5797 17.5788 95.5785 16.9452C95.5781 16.6284 95.5781 16.3068 95.5777 15.9812C95.5777 15.8184 95.5777 15.6544 95.5773 15.49V15.2424V15.118V15.0556V15.0244V15.0088V15.0008V14.9968V14.9948V14.994C95.5613 15.0092 95.7157 14.8556 95.6509 14.9208C98.9925 14.9288 102.025 14.936 104.253 14.9412H104.306L104.306 14.9936C104.294 16.1604 104.284 17.1092 104.277 17.7808C104.272 18.0956 104.267 18.3448 104.264 18.5284C104.261 18.6984 104.257 18.7852 104.254 18.7816Z" fill="#E0E0E0"/>
<path d="M68.3903 184.465C68.3887 184.464 68.3875 184.441 68.3859 184.397C68.3847 184.346 68.3831 184.282 68.3811 184.202C68.3783 184.024 68.3747 183.775 68.3703 183.457C68.3647 182.803 68.3563 181.863 68.3459 180.678L68.3903 180.722C65.1211 180.729 59.9219 180.739 54.0735 180.751C54.1059 180.718 53.9999 180.823 54.1455 180.678V180.679V180.681V180.684V180.692V180.707V180.737V180.798V180.92V181.163C54.1455 181.324 54.1455 181.485 54.1455 181.646C54.1455 181.967 54.1451 182.285 54.1451 182.602C54.1447 183.234 54.1443 183.856 54.1439 184.465L54.0727 184.394C58.1499 184.407 61.7171 184.418 64.2759 184.426C65.5503 184.435 66.5731 184.442 67.2875 184.447C67.6351 184.451 67.9071 184.454 68.1019 184.456C68.1895 184.458 68.2599 184.459 68.3151 184.46C68.3631 184.463 68.3887 184.464 68.3903 184.465C68.3919 184.467 68.3695 184.469 68.3239 184.47C68.2707 184.471 68.2035 184.473 68.1195 184.475C67.9283 184.477 67.6615 184.48 67.3207 184.484C66.6103 184.489 65.5931 184.496 64.3255 184.505C61.7543 184.513 58.1695 184.524 54.0723 184.537H54.0011V184.465C54.0007 183.856 54.0003 183.235 53.9999 182.602C53.9999 182.286 53.9999 181.967 53.9995 181.646C53.9995 181.486 53.9995 181.325 53.9995 181.163V180.92V180.799V180.738V180.707V180.692V180.685V180.681V180.679V180.678C54.1455 180.532 54.0403 180.638 54.0735 180.605C59.9223 180.617 65.1211 180.627 68.3903 180.633H68.4351L68.4347 180.678C68.4243 181.874 68.4159 182.823 68.4103 183.483C68.4055 183.798 68.4023 184.043 68.3995 184.219C68.3975 184.295 68.3959 184.357 68.3947 184.405C68.3931 184.447 68.3919 184.467 68.3903 184.465Z" fill="#E0E0E0"/>
<path d="M70.3316 180.678C70.3296 180.676 70.328 180.652 70.326 180.606C70.3244 180.551 70.3224 180.485 70.3204 180.405C70.3172 180.219 70.3128 179.965 70.3072 179.645C70.3004 178.981 70.2908 178.043 70.2788 176.89L70.3312 176.942C68.1024 176.947 65.0708 176.955 61.7292 176.963C61.6636 177.028 61.8172 176.874 61.8016 176.89V176.891V176.893V176.897V176.905V176.921V176.952V177.015V177.139V177.387C61.8016 177.551 61.8016 177.715 61.8012 177.878C61.8012 178.203 61.8008 178.525 61.8004 178.842C61.7996 179.475 61.7988 180.09 61.798 180.678L61.7284 180.609C64.212 180.622 66.35 180.634 67.8824 180.642C68.638 180.65 69.244 180.656 69.6748 180.661C69.8764 180.665 70.0364 180.667 70.1584 180.67C70.2696 180.672 70.3288 180.675 70.3316 180.678C70.3344 180.681 70.2812 180.683 70.1756 180.686C70.0576 180.688 69.902 180.691 69.7064 180.695C69.2792 180.7 68.6788 180.706 67.9296 180.714C66.3856 180.723 64.2312 180.734 61.7288 180.747L61.6596 180.747V180.677C61.6588 180.089 61.658 179.475 61.6568 178.841C61.6564 178.524 61.6564 178.203 61.656 177.877C61.656 177.714 61.656 177.551 61.656 177.386V177.138V177.014V176.951V176.92V176.905V176.897V176.893V176.891V176.889C61.64 176.905 61.7944 176.751 61.7296 176.816C65.0712 176.824 68.1032 176.831 70.3316 176.837H70.3844L70.384 176.889C70.372 178.056 70.3624 179.005 70.3556 179.676C70.35 179.991 70.3456 180.24 70.3424 180.424C70.3388 180.595 70.3352 180.681 70.3316 180.678Z" fill="#E0E0E0"/>
<path d="M36.6579 115.877C36.6563 115.875 36.6551 115.852 36.6535 115.808C36.6523 115.757 36.6507 115.694 36.6487 115.614C36.6463 115.435 36.6427 115.187 36.6379 114.868C36.6323 114.214 36.6239 113.274 36.6135 112.089L36.6579 112.133C33.3887 112.14 28.1895 112.15 22.3411 112.162C22.3735 112.13 22.2675 112.235 22.4131 112.089V112.09V112.092V112.096V112.104V112.119V112.149V112.21V112.332V112.574C22.4131 112.736 22.4131 112.897 22.4131 113.058C22.4131 113.379 22.4131 113.697 22.4127 114.014C22.4123 114.646 22.4119 115.268 22.4115 115.877L22.3403 115.806C26.4175 115.818 29.9847 115.83 32.5435 115.838C33.8179 115.846 34.8407 115.854 35.5551 115.858C35.9027 115.862 36.1747 115.866 36.3695 115.868C36.4571 115.87 36.5271 115.871 36.5827 115.872C36.6307 115.874 36.6563 115.875 36.6579 115.877C36.6595 115.878 36.6371 115.88 36.5915 115.882C36.5387 115.883 36.4715 115.884 36.3871 115.886C36.1959 115.888 35.9291 115.891 35.5883 115.895C34.8779 115.9 33.8607 115.907 32.5931 115.916C30.0219 115.924 26.4371 115.935 22.3399 115.948L22.2687 115.948V115.877C22.2683 115.268 22.2679 114.646 22.2675 114.014C22.2675 113.698 22.2675 113.379 22.2671 113.058C22.2671 112.897 22.2671 112.736 22.2671 112.574V112.332V112.21V112.149V112.119V112.104V112.096V112.092V112.09V112.089C22.4131 111.943 22.3083 112.049 22.3411 112.016C28.1899 112.028 33.3891 112.038 36.6579 112.044H36.7027L36.7023 112.089C36.6919 113.285 36.6835 114.234 36.6779 114.894C36.6731 115.209 36.6695 115.454 36.6671 115.63C36.6651 115.706 36.6635 115.768 36.6623 115.816C36.6607 115.858 36.6595 115.878 36.6579 115.877Z" fill="#E0E0E0"/>
<path d="M38.599 112.089C38.597 112.087 38.5954 112.063 38.5934 112.017C38.5918 111.963 38.5902 111.897 38.5878 111.816C38.5846 111.63 38.5802 111.377 38.5746 111.057C38.5678 110.393 38.5582 109.455 38.5462 108.301L38.5986 108.354C36.3698 108.359 33.3382 108.366 29.9966 108.374C29.931 108.439 30.0846 108.285 30.069 108.302V108.302V108.304V108.308V108.316V108.332V108.363V108.426V108.55V108.798C30.069 108.962 30.069 109.126 30.069 109.289C30.069 109.614 30.0686 109.936 30.0682 110.253C30.0674 110.886 30.0666 111.501 30.0654 112.089L29.9962 112.02C32.4794 112.033 34.6178 112.044 36.1502 112.052C36.9058 112.06 37.5118 112.067 37.943 112.072C38.1442 112.075 38.3046 112.078 38.4266 112.08C38.537 112.083 38.5962 112.086 38.599 112.089C38.6018 112.092 38.5482 112.095 38.443 112.098C38.325 112.1 38.1694 112.103 37.9738 112.106C37.5466 112.111 36.9462 112.118 36.197 112.126C34.653 112.134 32.4986 112.145 29.9962 112.158L29.9266 112.159V112.089C29.9258 111.5 29.925 110.886 29.9238 110.252C29.9234 109.936 29.9234 109.614 29.923 109.288C29.923 109.126 29.923 108.962 29.923 108.797V108.55V108.425V108.363V108.332V108.316V108.308V108.304V108.302V108.301C29.907 108.317 30.0614 108.163 29.9966 108.228C33.3382 108.236 36.3702 108.243 38.5986 108.248H38.6514L38.651 108.301C38.6394 109.468 38.6298 110.416 38.623 111.088C38.6174 111.403 38.613 111.652 38.6098 111.836C38.6062 112.006 38.6026 112.093 38.599 112.089Z" fill="#E0E0E0"/>
<path d="M23.5002 84.7616C23.4986 84.76 23.4974 84.7368 23.4958 84.6928C23.4946 84.642 23.493 84.5784 23.491 84.4984C23.4882 84.32 23.485 84.0716 23.4802 83.7528C23.4746 83.0988 23.4662 82.1588 23.4558 80.9736L23.5002 81.018C20.231 81.0244 15.0318 81.0348 9.18337 81.0464C9.21577 81.014 9.10977 81.1192 9.25537 80.9736V80.9744V80.9764V80.9804V80.988V81.0032V81.0336V81.0944V81.216V81.4588C9.25537 81.6204 9.25537 81.7816 9.25537 81.942C9.25537 82.2632 9.25498 82.5816 9.25498 82.898C9.25458 83.5304 9.25418 84.152 9.25378 84.7612L9.18258 84.69C13.2598 84.7028 16.827 84.7144 19.3858 84.7224C20.6602 84.7312 21.683 84.738 22.3974 84.7428C22.745 84.7468 23.017 84.75 23.2118 84.752C23.2994 84.754 23.3698 84.7552 23.425 84.7564C23.4734 84.7584 23.499 84.76 23.5002 84.7616C23.5018 84.7632 23.4794 84.7648 23.4338 84.766C23.381 84.7672 23.3138 84.7688 23.2294 84.7708C23.0382 84.7732 22.7714 84.7764 22.4306 84.78C21.7202 84.7848 20.703 84.7916 19.4354 84.8004C16.8642 84.8084 13.2794 84.82 9.18217 84.8328L9.11097 84.8332V84.7616C9.11057 84.1524 9.11017 83.5308 9.10977 82.8984C9.10977 82.5824 9.10977 82.2636 9.10938 81.9424C9.10938 81.782 9.10938 81.6208 9.10938 81.4592V81.2164V81.0948V81.034V81.0036V80.9884V80.9808V80.9768V80.9748V80.974C9.25537 80.828 9.15017 80.9336 9.18337 80.9008C15.0322 80.9124 20.231 80.9228 23.5002 80.9292H23.545L23.5446 80.9736C23.5342 82.17 23.5258 83.1192 23.5202 83.7792C23.5154 84.0936 23.5122 84.3388 23.5094 84.5148C23.5074 84.5912 23.5058 84.6528 23.5046 84.7012C23.5034 84.7428 23.5018 84.7632 23.5002 84.7616Z" fill="#E0E0E0"/>
<path d="M155.116 169.528C155.115 169.527 155.114 169.504 155.112 169.46C155.111 169.409 155.109 169.345 155.107 169.265C155.105 169.087 155.101 168.838 155.096 168.52C155.091 167.866 155.082 166.926 155.072 165.74L155.116 165.785C151.847 165.791 146.648 165.802 140.8 165.813C140.832 165.781 140.726 165.886 140.872 165.74V165.741V165.743V165.747V165.755V165.77V165.8V165.861V165.983V166.226C140.872 166.387 140.872 166.548 140.872 166.709C140.872 167.03 140.871 167.348 140.871 167.665C140.871 168.297 140.87 168.919 140.87 169.528L140.799 169.457C144.876 169.47 148.443 169.481 151.002 169.489C152.276 169.498 153.299 169.505 154.014 169.51C154.361 169.514 154.633 169.517 154.828 169.519C154.916 169.521 154.986 169.522 155.041 169.523C155.089 169.526 155.115 169.527 155.116 169.528C155.118 169.53 155.096 169.532 155.05 169.533C154.997 169.534 154.93 169.536 154.846 169.538C154.654 169.54 154.388 169.543 154.047 169.547C153.336 169.552 152.319 169.559 151.052 169.568C148.48 169.576 144.896 169.587 140.798 169.6H140.727V169.528C140.727 168.919 140.726 168.298 140.726 167.665C140.726 167.349 140.726 167.03 140.726 166.709C140.726 166.549 140.726 166.388 140.726 166.226V165.983V165.862V165.801V165.77V165.755V165.748V165.744V165.742V165.741C140.872 165.595 140.767 165.7 140.8 165.668C146.648 165.679 151.848 165.69 155.116 165.696H155.161L155.161 165.74C155.15 166.937 155.142 167.886 155.136 168.546C155.132 168.86 155.128 169.106 155.126 169.282C155.124 169.358 155.122 169.42 155.121 169.468C155.119 169.51 155.118 169.53 155.116 169.528Z" fill="#E0E0E0"/>
<path d="M133.947 95.2984H127.646V192.012H133.947V95.2984Z" fill="#EBEBEB"/>
<path d="M132.372 37.0448H129.222V103.666H132.372V37.0448Z" fill="#EBEBEB"/>
<path d="M135.552 95.2984H125.974C125.613 95.2984 125.32 95.0056 125.32 94.6444C125.32 94.2832 125.613 93.9904 125.974 93.9904H135.552C135.913 93.9904 136.206 94.2832 136.206 94.6444C136.206 95.0056 135.913 95.2984 135.552 95.2984Z" fill="#EBEBEB"/>
<path d="M120.36 21.026L125.306 35.4176C126.115 37.7712 128.329 39.3516 130.819 39.3516C133.398 39.3516 135.671 37.6564 136.405 35.184L140.635 20.9612L120.36 21.026Z" fill="#EBEBEB"/>
<path d="M117.2 20.442C117.41 20.6084 119.478 21.1132 119.478 21.1132H141.366L143.18 20.6084L137.844 18.8896L136.393 15.6L135.38 15.1424C135.38 15.1424 134.099 10.5972 130.591 10.6348C127.083 10.6724 125.431 15.164 125.431 15.164L124.197 15.6L122.526 18.8268L117.2 20.442Z" fill="#EBEBEB"/>
<path d="M131.88 9.262C131.88 9.9076 131.356 10.4308 130.711 10.4308C130.065 10.4308 129.542 9.9076 129.542 9.262C129.542 8.6164 130.065 8.0932 130.711 8.0932C131.356 8.0932 131.88 8.6164 131.88 9.262Z" fill="#EBEBEB"/>
<path d="M131.485 6.72041C131.485 7.14801 131.139 7.49441 130.711 7.49441C130.283 7.49441 129.937 7.14801 129.937 6.72041C129.937 6.29281 130.283 5.94641 130.711 5.94641C131.139 5.94641 131.485 6.29281 131.485 6.72041Z" fill="#EBEBEB"/>
<path d="M131.002 6.7204H130.42V10.6616H131.002V6.7204Z" fill="#EBEBEB"/>
<path d="M122.023 21.0616L126.556 34.3864C127.119 36.0416 128.491 37.2936 130.19 37.704L130.106 21.12L122.023 21.0616Z" fill="white"/>
<path d="M139.5 21.0616L134.967 34.3864C134.403 36.0416 133.032 37.2936 131.333 37.704L131.881 21.1172L139.5 21.0616Z" fill="white"/>
<path d="M142.969 20.6764C142.969 20.6844 142.879 20.6924 142.707 20.7004C142.511 20.7064 142.262 20.714 141.958 20.7236C141.275 20.734 140.341 20.748 139.2 20.7652C136.843 20.778 133.641 20.7956 130.102 20.8148C126.548 20.8112 123.332 20.8372 121.001 20.7656C119.835 20.7276 118.894 20.6572 118.245 20.5892C117.921 20.5548 117.67 20.524 117.5 20.4976C117.331 20.472 117.242 20.4548 117.243 20.4468C117.243 20.4388 117.334 20.4404 117.505 20.4508C117.701 20.4632 117.949 20.4792 118.253 20.4984C118.902 20.5384 119.842 20.5836 121.005 20.6004C123.33 20.6296 126.548 20.5776 130.102 20.5812C133.64 20.5884 136.843 20.5952 139.2 20.6C140.34 20.6136 141.275 20.6244 141.957 20.6324C142.262 20.6408 142.51 20.6476 142.707 20.6532C142.879 20.6604 142.969 20.6684 142.969 20.6764Z" fill="#E0E0E0"/>
<path d="M137.844 18.8896C137.844 18.954 134.407 19.0064 130.169 19.0064C125.929 19.0064 122.492 18.954 122.492 18.8896C122.492 18.8252 125.928 18.7728 130.169 18.7728C134.407 18.7728 137.844 18.8252 137.844 18.8896Z" fill="#E0E0E0"/>
<path d="M136.347 15.5916C136.35 15.6076 136.185 15.6492 135.883 15.7116C135.583 15.7756 135.143 15.8484 134.598 15.9212C133.508 16.0696 131.99 16.1892 130.312 16.194C128.633 16.1972 127.115 16.092 126.023 15.9716C125.476 15.912 125.035 15.8528 124.732 15.8016C124.429 15.7512 124.263 15.716 124.265 15.7C124.267 15.684 124.437 15.6888 124.743 15.7116C125.1 15.738 125.531 15.77 126.037 15.8076C127.13 15.8856 128.641 15.964 130.311 15.9608C131.981 15.9556 133.491 15.8632 134.58 15.7572C135.669 15.654 136.341 15.5556 136.347 15.5916Z" fill="#E0E0E0"/>
<path d="M135.48 15.1768C135.483 15.1928 135.346 15.2344 135.096 15.2968C134.846 15.3608 134.48 15.4356 134.025 15.5132C133.116 15.6692 131.844 15.81 130.434 15.8204C129.024 15.8288 127.75 15.7048 126.838 15.5612C126.383 15.4896 126.016 15.4196 125.765 15.3592C125.514 15.3004 125.377 15.2604 125.38 15.2444C125.387 15.2088 125.949 15.2972 126.86 15.3976C127.772 15.4988 129.035 15.5952 130.433 15.5872C131.83 15.5768 133.092 15.4632 134.002 15.35C134.911 15.2372 135.472 15.1412 135.48 15.1768Z" fill="#E0E0E0"/>
<path d="M133.599 38.7844C133.61 38.8092 133.324 38.9736 132.818 39.1356C132.314 39.2984 131.582 39.4364 130.768 39.4168C129.954 39.3948 129.231 39.2192 128.736 39.0308C128.239 38.8432 127.962 38.6644 127.974 38.64C128 38.5684 129.187 39.1532 130.774 39.1832C132.361 39.2348 133.577 38.7116 133.599 38.7844Z" fill="#E0E0E0"/>
<path d="M134.674 95.2968C134.674 95.3612 133 95.4136 130.936 95.4136C128.872 95.4136 127.199 95.3612 127.199 95.2968C127.199 95.2324 128.872 95.18 130.936 95.18C133 95.18 134.674 95.2324 134.674 95.2968Z" fill="#E0E0E0"/>
<path d="M159.591 70.4464C159.589 70.4448 159.588 70.4216 159.586 70.3776C159.585 70.3268 159.583 70.2632 159.581 70.1832C159.579 70.0052 159.575 69.7564 159.571 69.438C159.565 68.784 159.557 67.844 159.546 66.6588L159.591 66.7032C156.321 66.7096 151.122 66.72 145.274 66.7316C145.306 66.6992 145.2 66.8044 145.346 66.6588V66.6596V66.6616V66.6656V66.6732V66.6884V66.7188V66.7796V66.9012V67.144C145.346 67.3056 145.346 67.4668 145.346 67.6272C145.346 67.9484 145.346 68.2668 145.345 68.5832C145.345 69.2152 145.345 69.8372 145.344 70.4464L145.273 70.3752C149.35 70.3884 152.917 70.3996 155.476 70.4076C156.75 70.4164 157.773 70.4232 158.488 70.428C158.835 70.432 159.107 70.4352 159.302 70.4372C159.39 70.4392 159.46 70.4404 159.515 70.4416C159.563 70.4436 159.589 70.4452 159.591 70.4464C159.592 70.448 159.57 70.4496 159.524 70.4512C159.471 70.4524 159.404 70.454 159.32 70.456C159.129 70.4584 158.862 70.4612 158.521 70.4652C157.81 70.47 156.793 70.4768 155.526 70.4856C152.955 70.4936 149.37 70.5052 145.272 70.518L145.201 70.5184V70.4468C145.201 69.8376 145.2 69.216 145.2 68.5836C145.2 68.2676 145.2 67.9488 145.2 67.6276C145.2 67.4672 145.2 67.306 145.2 67.1444V66.9016V66.78V66.7192V66.6888V66.6736V66.666V66.662V66.66V66.6592C145.346 66.5132 145.241 66.6188 145.274 66.586C151.123 66.5976 156.321 66.608 159.591 66.6148H159.635L159.635 66.6592C159.625 67.8556 159.616 68.8048 159.61 69.4648C159.606 69.7792 159.603 70.0244 159.6 70.2004C159.598 70.2768 159.596 70.3384 159.595 70.3868C159.593 70.4276 159.592 70.448 159.591 70.4464Z" fill="#E0E0E0"/>
<path d="M185.587 189.682C128.538 189.682 71.4887 189.682 14.4395 189.682V193.859H185.587" fill="#F5F5F5"/>
<path d="M185.587 193.859C185.587 193.859 185.29 193.864 184.709 193.866C184.122 193.868 183.26 193.871 182.131 193.874C179.857 193.877 176.514 193.882 172.208 193.888C163.58 193.894 151.097 193.902 135.646 193.912C104.731 193.918 61.9474 193.926 14.4402 193.935H14.2598V193.858C14.2598 193.2 14.2598 192.488 14.2598 191.773C14.2598 191.056 14.2598 190.342 14.2598 189.681V189.604H14.4402C61.9598 189.614 104.743 189.622 135.655 189.628C151.104 189.638 163.585 189.646 172.211 189.652C176.517 189.658 179.859 189.662 182.132 189.666C183.261 189.669 184.123 189.672 184.71 189.673C185.291 189.676 185.588 189.681 185.588 189.681C185.588 189.681 185.291 189.686 184.71 189.688C184.123 189.69 183.261 189.692 182.132 189.696C179.859 189.699 176.517 189.704 172.211 189.71C163.585 189.716 151.105 189.724 135.655 189.734C104.743 189.74 61.9598 189.748 14.4402 189.757L14.6206 189.681C14.6206 190.342 14.6206 191.056 14.6206 191.773C14.6206 192.487 14.6206 193.199 14.6206 193.858L14.4402 193.782C61.9474 193.791 104.731 193.799 135.646 193.805C151.097 193.815 163.58 193.823 172.208 193.829C176.514 193.835 179.857 193.84 182.131 193.843C183.26 193.846 184.122 193.849 184.709 193.851C185.29 193.854 185.587 193.859 185.587 193.859Z" fill="#263238"/>
<path d="M48.0851 194.025C48.0427 194.025 48.0083 193.069 48.0083 191.89C48.0083 190.71 48.0427 189.754 48.0851 189.754C48.1275 189.754 48.1619 190.71 48.1619 191.89C48.1619 193.069 48.1275 194.025 48.0851 194.025Z" fill="#263238"/>
<path d="M65.8517 194.025C65.8093 194.025 65.7749 193.069 65.7749 191.89C65.7749 190.71 65.8093 189.754 65.8517 189.754C65.8941 189.754 65.9285 190.71 65.9285 191.89C65.9281 193.069 65.8937 194.025 65.8517 194.025Z" fill="#263238"/>
<path d="M83.6184 194.025C83.576 194.025 83.542 193.069 83.542 191.89C83.542 190.71 83.5764 189.754 83.6184 189.754C83.6608 189.754 83.6952 190.71 83.6952 191.89C83.6952 193.069 83.6608 194.025 83.6184 194.025Z" fill="#263238"/>
<path d="M101.385 194.025C101.343 194.025 101.308 193.069 101.308 191.89C101.308 190.71 101.343 189.754 101.385 189.754C101.427 189.754 101.462 190.71 101.462 191.89C101.461 193.069 101.427 194.025 101.385 194.025Z" fill="#263238"/>
<path d="M118.678 194.025C118.636 194.025 118.602 193.069 118.602 191.89C118.602 190.71 118.636 189.754 118.678 189.754C118.721 189.754 118.755 190.71 118.755 191.89C118.755 193.069 118.721 194.025 118.678 194.025Z" fill="#263238"/>
<path d="M135.971 194.025C135.929 194.025 135.895 193.069 135.895 191.89C135.895 190.71 135.929 189.754 135.971 189.754C136.014 189.754 136.048 190.71 136.048 191.89C136.048 193.069 136.014 194.025 135.971 194.025Z" fill="#263238"/>
<path d="M153.265 194.025C153.222 194.025 153.188 193.069 153.188 191.89C153.188 190.71 153.222 189.754 153.265 189.754C153.307 189.754 153.341 190.71 153.341 191.89C153.341 193.069 153.307 194.025 153.265 194.025Z" fill="#263238"/>
<path d="M171.396 194.13C171.354 194.13 171.32 193.174 171.32 191.995C171.32 190.815 171.354 189.859 171.396 189.859C171.438 189.859 171.473 190.815 171.473 191.995C171.473 193.174 171.439 194.13 171.396 194.13Z" fill="#263238"/>
<path d="M31.8707 194.025C31.8283 194.025 31.7939 193.069 31.7939 191.89C31.7939 190.71 31.8283 189.754 31.8707 189.754C31.9131 189.754 31.9475 190.71 31.9475 191.89C31.9475 193.069 31.9131 194.025 31.8707 194.025Z" fill="#263238"/>
<path d="M185.664 194.147C185.621 194.147 185.587 193.191 185.587 192.012C185.587 190.832 185.621 189.876 185.664 189.876C185.706 189.876 185.741 190.832 185.741 192.012C185.741 193.191 185.706 194.147 185.664 194.147Z" fill="#263238"/>
<path d="M82.3964 175.552L82.2372 184.569C82.2372 184.569 91.3488 187.759 91.4816 189.428L73.9876 189.747L73.6592 175.688L82.3964 175.552Z" fill="#FF725E"/>
<path d="M76.8139 183.91C76.4771 184.008 76.2499 184.393 76.3347 184.734C76.4195 185.075 76.8091 185.309 77.1475 185.216C77.4859 185.123 77.7727 184.67 77.6503 184.34C77.5279 184.012 77.0555 183.762 76.7491 183.933" fill="#E0E0E0"/>
<path d="M73.9873 189.747L74.0097 188.329L90.7745 188.553C90.7745 188.553 91.5593 188.878 91.4813 189.428L73.9873 189.747Z" fill="#263238"/>
<path d="M82.5191 184.475C82.5179 184.56 82.0915 184.607 81.6759 184.889C81.2531 185.161 81.0431 185.535 80.9639 185.502C80.8847 185.487 81.0031 184.974 81.5119 184.641C82.0175 184.304 82.5359 184.396 82.5191 184.475Z" fill="#263238"/>
<path d="M84.3677 185.2C84.3885 185.282 84.0213 185.434 83.7377 185.801C83.4433 186.16 83.3773 186.552 83.2921 186.549C83.2121 186.564 83.1441 186.065 83.5053 185.616C83.8625 185.164 84.3645 185.119 84.3677 185.2Z" fill="#263238"/>
<path d="M85.4497 187.377C85.3725 187.397 85.2457 186.972 85.4565 186.5C85.6641 186.027 86.0634 185.835 86.101 185.906C86.1506 185.975 85.8958 186.231 85.7286 186.621C85.5522 187.006 85.5345 187.367 85.4497 187.377Z" fill="#263238"/>
<path d="M82.3273 182.416C82.2929 182.494 81.8989 182.383 81.4165 182.425C80.9333 182.457 80.5605 182.626 80.5149 182.553C80.4645 182.492 80.8253 182.17 81.3941 182.128C81.9625 182.083 82.3681 182.348 82.3273 182.416Z" fill="#263238"/>
<path d="M72.226 170.742L65.9676 177.236C65.9676 177.236 70.4656 185.778 69.426 187.09L56.4004 175.408L65.7368 164.89L72.226 170.742Z" fill="#FF725E"/>
<path d="M62.4461 173.058C62.1321 172.901 61.7037 173.028 61.5337 173.336C61.3637 173.643 61.4893 174.08 61.8005 174.242C62.1113 174.405 62.6305 174.268 62.7649 173.944C62.8993 173.62 62.7237 173.115 62.3829 173.031" fill="#E0E0E0"/>
<path d="M56.3999 175.407L57.3827 174.384L69.5039 185.968C69.5039 185.968 69.8575 186.74 69.4255 187.09L56.3999 175.407Z" fill="#263238"/>
<path d="M66.238 177.358C66.1788 177.42 65.8347 177.164 65.3383 177.088C64.8439 176.998 64.4355 177.129 64.3995 177.052C64.3519 176.987 64.788 176.692 65.3872 176.794C65.9876 176.892 66.304 177.312 66.238 177.358Z" fill="#263238"/>
<path d="M67.0973 179.149C67.0565 179.223 66.6841 179.084 66.2269 179.16C65.7673 179.222 65.4521 179.463 65.3913 179.404C65.3225 179.36 65.6125 178.948 66.1829 178.865C66.7521 178.778 67.1505 179.087 67.0973 179.149Z" fill="#263238"/>
<path d="M66.4068 181.48C66.3368 181.442 66.5332 181.044 67.0092 180.843C67.4836 180.638 67.9068 180.769 67.886 180.846C67.8752 180.931 67.5144 180.945 67.1264 181.116C66.734 181.278 66.4756 181.53 66.4068 181.48Z" fill="#263238"/>
<path d="M67.4999 175.72C67.4211 175.754 67.2083 175.405 66.8267 175.107C66.4515 174.801 66.0635 174.671 66.0791 174.586C66.0835 174.507 66.5679 174.517 67.0123 174.874C67.4591 175.228 67.5759 175.698 67.4999 175.72Z" fill="#263238"/>
<path d="M106.722 77.8235L99.0298 82.9031L99.1434 84.9171L101.15 89.1507C101.15 89.1507 102.077 90.0307 104.802 87.2719C107.526 84.5131 110.973 79.0299 110.973 79.0299L106.722 77.8235Z" fill="#FFC9C1"/>
<path d="M119.671 67.2396C119.583 67.0384 119.393 66.8972 119.171 66.8672L115.402 66.362C115.07 66.3228 114.737 66.424 114.486 66.64L103.694 75.9068L104.183 76.3824L108.23 77.3576L119.746 67.4096L119.671 67.2396Z" fill="#263238"/>
<path d="M116.68 68.008C116.738 68.0956 116.882 68.1048 117.002 68.0288C117.121 67.9528 117.171 67.82 117.113 67.7324C117.054 67.6448 116.91 67.6356 116.791 67.712C116.671 67.788 116.622 67.9204 116.68 68.008Z" fill="white"/>
<path d="M119.746 67.4092C119.743 67.4244 119.48 67.4036 119.005 67.3528C118.493 67.2928 117.817 67.2136 116.998 67.1176C116.572 67.0644 116.109 67.0064 115.614 66.9444C115.38 66.9024 115.144 66.962 114.961 67.114C114.761 67.2872 114.555 67.4656 114.344 67.648C113.494 68.3804 112.563 69.182 111.586 70.0228C109.625 71.7036 107.841 73.2156 106.542 74.3016C105.912 74.8228 105.391 75.2532 104.997 75.5792C104.628 75.8772 104.42 76.0364 104.41 76.0248C104.399 76.0132 104.588 75.832 104.939 75.514C105.321 75.1748 105.826 74.726 106.437 74.1836C107.708 73.0672 109.476 71.5364 111.437 69.856C112.418 69.0196 113.353 68.2228 114.207 67.494C114.421 67.3132 114.63 67.1364 114.833 66.9648C115.059 66.7756 115.378 66.7096 115.636 66.7616C116.13 66.8332 116.592 66.9 117.018 66.9616C117.834 67.086 118.508 67.1888 119.018 67.2668C119.488 67.3444 119.748 67.394 119.746 67.4092Z" fill="#455A64"/>
<path d="M115.829 69.3452C115.829 69.3452 115.485 69.1788 115.01 70.1124C114.534 71.0464 113.1 73.7048 113.1 73.7048L111.488 72.1668L109.031 71.8104C109.031 71.8104 108.38 72.1432 108.686 72.5092C108.992 72.8748 110.416 73.5628 110.416 73.5628L111.075 75.4616L108.333 73.0428C108.333 73.0428 107.197 73.022 107.326 73.7544C107.455 74.4872 109.026 77.1076 109.026 77.1076L107.472 76.5416L105.904 74.8644C105.904 74.8644 105.317 74.728 105.395 75.2824C105.472 75.8368 106.937 78.172 106.937 78.172L108.995 79.9964C108.995 79.9964 110.324 80.2592 110.556 79.912C110.788 79.5648 110.973 79.0292 110.973 79.0292C110.973 79.0292 111.716 79.0368 111.939 78.738C112.162 78.4392 112.228 77.886 112.228 77.886C112.228 77.886 113.258 78.3804 113.562 77.814C113.866 77.2476 114.087 76.0256 114.108 75.53C114.129 75.0344 115.912 70.8752 115.904 70.7324C115.896 70.5904 116.588 69.25 115.829 69.3452Z" fill="#FFC9C1"/>
<path d="M110.638 79.9412C110.638 79.9716 110.38 80.008 109.962 79.96C109.547 79.9132 108.976 79.76 108.412 79.448C107.849 79.134 107.418 78.73 107.158 78.402C106.896 78.0732 106.791 77.8344 106.817 77.8184C106.879 77.7696 107.45 78.6356 108.535 79.2264C109.609 79.8348 110.646 79.8624 110.638 79.9412Z" fill="#FE9586"/>
<path d="M110.314 78.928C110.261 78.9728 109.901 78.6332 109.554 78.1364C109.206 77.64 109.01 77.1856 109.07 77.1516C109.132 77.116 109.421 77.5052 109.762 77.9912C110.101 78.4776 110.368 78.8824 110.314 78.928Z" fill="#FE9586"/>
<path d="M112.143 77.2244C112.092 77.2692 111.733 76.9356 111.42 76.4256C111.106 75.9164 110.97 75.446 111.033 75.4204C111.099 75.3924 111.333 75.8024 111.636 76.2928C111.938 76.784 112.198 77.178 112.143 77.2244Z" fill="#FE9586"/>
<path d="M113.927 75.9376C113.854 75.9468 113.74 75.4324 113.499 74.8396C113.263 74.2444 112.989 73.7944 113.048 73.7508C113.1 73.7084 113.483 74.1144 113.734 74.7452C113.989 75.3744 113.993 75.9328 113.927 75.9376Z" fill="#FE9586"/>
<path d="M85.4896 36.374C83.84 37.1232 81.2756 38.2692 79.7908 39.3072C79.4464 39.548 79.0648 39.9544 79.2628 40.3248C79.4396 40.6556 80.1616 40.8404 80.5304 40.908C81.8004 41.14 84.804 41.098 86.7744 40.1472L85.4896 36.374Z" fill="#455A64"/>
<path d="M86.6111 45.7384C86.0527 43.9368 85.5015 42.122 85.2611 40.2512C85.0207 38.3804 85.1039 36.4352 85.7851 34.676C85.8883 34.4092 86.7619 32.6232 87.0459 32.6552C87.2491 32.678 86.7031 34.348 86.8035 34.526C87.7619 36.2244 88.0011 38.2548 87.8179 40.1964C87.6351 42.1384 87.2071 43.8816 86.6111 45.7384Z" fill="#263238"/>
<path d="M95.3319 67.64C92.4095 67.5388 86.2575 59.0616 86.2951 56.1376L86.5231 38.5408C86.4339 33.8112 89.1115 29.8176 93.8419 29.8592L94.2787 29.8884C98.6755 30.184 102.109 33.8052 102.168 38.2116C102.223 42.3112 102.231 46.8416 102.056 49.0272C101.696 53.552 97.1191 53.9516 97.1191 53.9516C97.1091 53.9512 97.0795 55.0028 97.0475 56.3344C96.9755 59.326 98.1439 67.7268 95.1535 67.6232L95.3319 67.64Z" fill="#FFC9C1"/>
<path d="M97.119 53.9516C97.119 53.9516 94.2534 53.9272 91.3398 51.812C91.3398 51.812 92.5295 55.312 97.0755 55.208L97.119 53.9516Z" fill="#FFA395"/>
<path d="M100.636 41.9244C100.626 42.2668 100.327 42.54 99.9688 42.5352C99.6116 42.5304 99.3304 42.2496 99.3416 41.9072C99.3524 41.5648 99.6512 41.2916 100.008 41.296C100.366 41.3008 100.647 41.582 100.636 41.9244Z" fill="#263238"/>
<path d="M101.071 40.1468C100.985 40.2256 100.52 39.83 99.8233 39.7852C99.1285 39.7304 98.5937 40.054 98.5241 39.9636C98.4897 39.9236 98.5813 39.7768 98.8149 39.6296C99.0445 39.4832 99.4285 39.3512 99.8621 39.3824C100.295 39.414 100.649 39.598 100.848 39.7756C101.051 39.954 101.113 40.1116 101.071 40.1468Z" fill="#263238"/>
<path d="M94.2672 41.7832C94.2564 42.1256 93.9576 42.3984 93.5996 42.3936C93.2424 42.3888 92.9612 42.108 92.972 41.7656C92.9828 41.4232 93.282 41.15 93.6388 41.1548C93.9972 41.1596 94.2784 41.4412 94.2672 41.7832Z" fill="#263238"/>
<path d="M94.2384 39.8492C94.1524 39.928 93.686 39.5328 92.9908 39.4876C92.2964 39.4328 91.7612 39.7564 91.6916 39.666C91.6572 39.6256 91.7484 39.4792 91.9824 39.3324C92.212 39.1856 92.596 39.054 93.0292 39.0852C93.4624 39.1168 93.8164 39.3008 94.0152 39.4784C94.2176 39.6568 94.2804 39.814 94.2384 39.8492Z" fill="#263238"/>
<path d="M96.375 45.3644C96.3746 45.3244 96.8118 45.2788 97.519 45.2364C97.6978 45.23 97.8686 45.206 97.9066 45.0868C97.957 44.9612 97.8958 44.7648 97.8234 44.552C97.6854 44.1108 97.5406 43.6484 97.389 43.1636C96.7886 41.188 96.367 39.5684 96.4466 39.5448C96.5266 39.5212 97.0778 41.1036 97.6778 43.0792C97.8214 43.566 97.959 44.0304 98.0898 44.4744C98.1434 44.6808 98.2438 44.9176 98.135 45.178C98.0782 45.3076 97.9414 45.3952 97.8254 45.418C97.709 45.4452 97.609 45.4404 97.5206 45.4396C96.813 45.4304 96.375 45.4044 96.375 45.3644Z" fill="#263238"/>
<path d="M94.3509 37.244C94.2445 37.4152 93.5817 37.1832 92.7609 37.11C91.9413 37.0204 91.2461 37.1184 91.1753 36.9296C91.1449 36.8396 91.2944 36.6892 91.5932 36.5648C91.89 36.4404 92.3389 36.3572 92.8309 36.4052C93.3225 36.4544 93.7465 36.624 94.0129 36.804C94.2813 36.9852 94.3985 37.162 94.3509 37.244Z" fill="#263238"/>
<path d="M101.016 38.5084C100.863 38.6592 100.304 38.4652 99.6227 38.4216C98.9427 38.358 98.3579 38.462 98.2335 38.2896C98.1795 38.2064 98.2787 38.0524 98.5387 37.916C98.7951 37.7796 99.2175 37.6796 99.6855 37.716C100.153 37.7532 100.552 37.9176 100.781 38.092C101.013 38.2676 101.084 38.4348 101.016 38.5084Z" fill="#263238"/>
<path d="M86.6674 41.9188C86.5926 41.88 83.6178 40.7892 83.5086 43.8916C83.3994 46.9944 86.5366 46.464 86.5454 46.3752C86.5538 46.2868 86.6674 41.9188 86.6674 41.9188Z" fill="#FFC9C1"/>
<path d="M85.639 45.1668C85.6258 45.1564 85.5838 45.2028 85.4906 45.2412C85.4002 45.2788 85.2458 45.3016 85.0862 45.2352C84.7626 45.1032 84.505 44.5732 84.5098 44.0136C84.5118 43.7312 84.5806 43.4644 84.6882 43.2452C84.791 43.0216 84.9434 42.868 85.1094 42.8444C85.275 42.8124 85.3882 42.9152 85.423 43.004C85.4614 43.092 85.4398 43.1536 85.4558 43.1592C85.4642 43.1672 85.5242 43.1096 85.5038 42.9804C85.493 42.9184 85.4594 42.844 85.3886 42.7816C85.3162 42.7184 85.2078 42.6836 85.0926 42.692C84.8526 42.7 84.6294 42.9124 84.511 43.1532C84.3794 43.3944 84.2954 43.694 84.293 44.0112C84.291 44.6372 84.5902 45.2336 85.0342 45.3788C85.2506 45.4436 85.435 45.384 85.5314 45.314C85.6306 45.2416 85.6494 45.1728 85.639 45.1668Z" fill="#FFA395"/>
<path d="M100.296 33.0172C100.806 32.7532 99.3413 31.0868 98.1217 30.4944C96.2785 29.5988 93.4437 29.0024 91.7109 29.4448C89.6245 29.9772 87.8769 30.9624 86.7873 32.8196C85.6977 34.6768 85.2489 36.8628 85.2525 39.016C85.2537 39.6728 85.3037 40.3592 85.6397 40.9236C86.0549 41.6212 86.8753 42.0752 86.8141 43.0208C86.7917 43.3664 86.8809 43.718 87.1113 43.9768C87.6633 44.596 88.3729 44.0468 88.7073 43.486C89.4217 42.2884 89.5361 40.8392 89.6325 39.4484C89.7013 38.4596 89.7681 37.4496 89.5141 36.4916C89.3761 35.9704 89.1449 35.4752 89.0357 34.9468C88.9265 34.4188 88.9581 33.8232 89.2965 33.4032C89.3517 33.3348 89.4417 33.2492 89.5553 33.1548C90.4545 32.4076 91.6909 32.2096 92.7825 32.6284C94.5137 33.2928 97.4741 34.2952 98.2689 33.7228C99.4129 32.8992 99.6957 32.3496 99.6957 32.3496L100.296 33.0172Z" fill="#263238"/>
<path d="M94.4494 45.6892C94.407 45.6944 94.3774 45.8628 94.4302 46.1324C94.4782 46.3988 94.6506 46.774 94.9666 47.058C95.2774 47.346 95.6154 47.508 95.8582 47.6056C96.1038 47.702 96.2654 47.7332 96.2854 47.6936C96.3062 47.6524 96.1782 47.5472 95.9666 47.4016C95.7562 47.2552 95.459 47.0704 95.1894 46.8192C94.637 46.328 94.5502 45.67 94.4494 45.6892Z" fill="#263238"/>
<path d="M99.1256 30.4044C96.8236 28.2568 93.2672 27.5272 90.3396 28.6856C87.5884 29.774 84.9808 32.4668 84.6948 35.4004L84.7712 37.5684L85.184 37.356C87.7812 36.4068 90.6568 35.3004 92.3376 34.97C95.8284 34.284 101.779 35.4256 101.779 35.4256C101.452 33.5228 100.538 31.7212 99.1256 30.4044Z" fill="#455A64"/>
<path d="M98.8744 33.0996C98.7064 32.8044 98.3704 32.6508 98.0464 32.5496C96.9016 32.1924 95.666 32.2648 94.4828 32.4604C94.1856 32.5096 93.8796 32.5704 93.6336 32.7436C93.3876 32.9168 93.2168 33.2332 93.3028 33.5216C93.424 33.9284 93.946 34.0508 94.3684 34.0092C94.7836 33.968 95.0256 34.0464 95.684 33.8232C96.5188 33.7108 97.3724 33.7364 98.1964 33.912C98.3328 33.9412 98.4748 33.974 98.61 33.9392C98.9392 33.8552 99.0424 33.3948 98.8744 33.0996Z" fill="#263238"/>
<path d="M95.2696 33.3616C95.8532 33.494 96.3568 33.9372 96.5624 34.4992C96.768 35.0612 96.6696 35.7248 96.3092 36.2028C96.7592 36.076 97.142 35.7308 97.314 35.2964C97.444 35.6204 97.4396 35.996 97.3012 36.3164C97.708 36.1136 98.0548 35.792 98.288 35.4012C98.3816 35.7756 98.3952 36.17 98.3272 36.5496C98.7884 36.2892 99.112 35.8188 99.25 35.3076C99.388 34.7964 99.3516 34.248 99.2068 33.7388C99.0992 33.3592 98.912 32.9732 98.57 32.7768C98.254 32.5952 97.8672 32.608 97.5032 32.6264C96.7212 32.6652 95.9324 32.7052 95.1768 32.91" fill="#263238"/>
<path d="M101.83 34.5476C101.827 34.5616 101.588 34.5256 101.161 34.4492C100.947 34.4088 100.686 34.3616 100.38 34.3212C100.075 34.2788 99.7294 34.2172 99.343 34.182C98.5734 34.0872 97.6514 34.0236 96.6274 34.002C95.603 33.9928 94.4766 34.0324 93.301 34.1568C92.1258 34.29 91.0174 34.4956 90.0194 34.7264C89.0242 34.9692 88.1378 35.2308 87.407 35.4904C87.0374 35.6084 86.7134 35.7432 86.4246 35.8508C86.1346 35.9564 85.8898 36.0588 85.6902 36.1448C85.2894 36.3124 85.0646 36.3988 85.0582 36.386C85.0518 36.3732 85.2654 36.2616 85.657 36.0708C85.8522 35.9732 86.0934 35.8596 86.3802 35.7432C86.6662 35.6248 86.9882 35.4796 87.357 35.352C88.0858 35.0732 88.9738 34.7952 89.9738 34.5404C90.9766 34.2976 92.0938 34.0848 93.2782 33.9504C94.4634 33.8252 95.5994 33.7908 96.631 33.8108C97.6626 33.8432 98.5898 33.9224 99.3614 34.0364C99.749 34.0812 100.095 34.1532 100.4 34.2068C100.705 34.2584 100.965 34.3172 101.177 34.37C101.601 34.4712 101.833 34.5336 101.83 34.5476Z" fill="#263238"/>
<path d="M92.2934 28.3424C92.3134 28.374 91.9446 28.6028 91.4302 29.066C90.9154 29.5264 90.2774 30.25 89.777 31.178C89.2806 32.1084 89.031 33.0408 88.9322 33.724C88.831 34.4084 88.8446 34.8424 88.807 34.8432C88.7926 34.844 88.7786 34.7364 88.765 34.5396C88.7478 34.3432 88.753 34.0572 88.7858 33.7056C88.8486 33.0036 89.0826 32.036 89.593 31.0792C90.107 30.1248 90.7834 29.3944 91.3338 28.9536C91.6082 28.732 91.8438 28.5692 92.017 28.4748C92.1882 28.378 92.2858 28.33 92.2934 28.3424Z" fill="#263238"/>
<path d="M96.843 32.6164C96.8082 32.6212 96.7558 32.3016 96.5918 31.8132C96.4298 31.3252 96.1306 30.6736 95.6566 30.0492C95.1798 29.4268 94.6306 28.9656 94.2026 28.6804C93.775 28.3932 93.4806 28.258 93.4946 28.226C93.5022 28.2052 93.8202 28.2928 94.2806 28.5556C94.7402 28.816 95.3274 29.2772 95.8218 29.9228C96.3134 30.5704 96.603 31.2588 96.7322 31.7708C96.865 32.2844 96.8654 32.6144 96.843 32.6164Z" fill="#263238"/>
<g opacity="0.3">
<path d="M85.2264 37.34C83.2692 38.2168 81.1608 39.0396 79.6348 40.628C79.6348 40.628 79.9284 40.7848 80.4584 40.8928C81.0852 41.0204 82.0236 41.0988 82.924 41.0444C84.586 40.9436 85.3476 40.6596 85.3476 40.6596L85.2264 37.34Z" fill="black"/>
</g>
<path d="M71.9259 99.6364L69.9175 112.124L71.3835 122.443L71.4459 124.686L72.9315 135.694C72.9315 135.694 72.3791 146.07 72.1055 148.322C71.8315 150.574 72.8047 182.283 72.8047 182.283L82.8943 181.839C82.8943 181.839 86.7095 134.792 86.6951 134.274C86.6807 133.757 91.9419 99.0776 91.9419 99.0776L71.9259 99.6364Z" fill="#263238"/>
<path d="M97.4319 101.564C97.4319 101.564 97.2295 143.823 96.2875 146.266C95.3455 148.71 68.8347 174.979 68.8347 174.979L60.4419 168.436L81.8771 139.589L83.1947 99.3224L97.4319 101.564Z" fill="#263238"/>
<path d="M90.3953 112.612C90.4525 112.619 89.1985 123.29 87.5949 136.444C85.9909 149.602 84.6445 160.259 84.5873 160.252C84.5301 160.245 85.7841 149.576 87.3881 136.418C88.9917 123.265 90.3381 112.605 90.3953 112.612Z" fill="#455A64"/>
<path d="M72.9313 135.695C72.9349 135.695 72.9353 135.731 72.9329 135.8C72.9285 135.88 72.9233 135.981 72.9165 136.105C72.8965 136.389 72.8685 136.781 72.8333 137.277C72.7493 138.294 72.6549 139.767 72.5441 141.587C72.3393 145.228 72.1685 150.266 72.2137 155.831C72.2461 161.398 72.4213 166.437 72.5161 170.084C72.5585 171.896 72.5929 173.368 72.6169 174.405C72.6225 174.902 72.6269 175.295 72.6305 175.58C72.6297 175.704 72.6293 175.804 72.6289 175.885C72.6273 175.954 72.6249 175.99 72.6213 175.99C72.6177 175.99 72.6133 175.954 72.6077 175.886C72.6029 175.805 72.5965 175.705 72.5889 175.581C72.5761 175.296 72.5585 174.904 72.5365 174.407C72.4965 173.37 72.4397 171.9 72.3693 170.089C72.2369 166.443 72.0385 161.404 72.0061 155.832C71.9609 150.263 72.1553 145.22 72.3977 141.578C72.5273 139.757 72.6441 138.284 72.7529 137.27C72.8045 136.775 72.8457 136.384 72.8753 136.101C72.8905 135.978 72.9025 135.878 72.9125 135.797C72.9209 135.729 72.9277 135.694 72.9313 135.695Z" fill="#455A64"/>
<path d="M83.1326 111.719C83.1582 111.771 81.3214 112.738 79.0298 113.881C76.7378 115.023 74.8594 115.908 74.8338 115.856C74.8082 115.804 76.6446 114.837 78.937 113.694C81.2282 112.552 83.107 111.668 83.1326 111.719Z" fill="#455A64"/>
<path d="M103.454 79.0264L108.52 83.5824C108.52 83.5824 100.59 92.2444 98.1396 94.1604C95.6892 96.0764 99.1064 81.2036 99.1064 81.2036L103.454 79.0264Z" fill="#FF725E"/>
<path d="M86.2502 51.936L84.1434 54.8564L75.9434 57.8892L72.2242 85.7732L69.8774 110.671C69.8774 110.671 73.1591 105.989 75.6719 105.923C78.1843 105.857 90.899 109.412 91.7586 110.061L93.4378 104.423L94.7982 110.95C94.7982 110.95 97.1858 111.488 98.433 107.918L97.9038 95.5452C97.9038 95.5452 99.5834 73.2376 99.4898 69.8736C99.3958 66.5096 97.1198 57.1676 97.1198 57.1676L96.2714 59.922L88.8878 53.6252L86.2502 51.936Z" fill="#FF725E"/>
<path d="M78.3129 57.0388C78.3129 57.0388 72.9257 57.0208 71.1841 67.0008C69.4425 76.9808 66.9361 87.688 68.2261 91.692C69.5161 95.696 74.5773 107.23 74.5773 107.23L81.5181 104.729L78.6709 86.6144L81.9661 68.886C81.9661 68.886 82.3729 57.7672 78.3129 57.0388Z" fill="#FF725E"/>
<path d="M84.5071 108.731C84.5071 108.731 81.1999 104.84 80.9483 104.934L75.4515 106.915C75.4515 106.915 75.2475 108.862 75.4895 111.159C75.7031 113.19 76.0531 115.365 76.0531 115.365L83.2819 111.51C83.2819 111.51 83.5867 113.016 83.9887 113.857C84.3907 114.698 85.7859 113.807 85.7859 113.807L84.5071 108.731Z" fill="#FFC9C1"/>
<path d="M81.9658 68.886C81.9658 68.886 81.9538 68.9944 81.919 69.204C81.8814 69.4204 81.8282 69.7292 81.7586 70.1308C81.611 70.9512 81.3962 72.1472 81.121 73.6796C80.557 76.7604 79.7454 81.1928 78.7498 86.6288L78.7502 86.6016C79.567 91.76 80.545 97.94 81.617 104.713L81.6299 104.795L81.5518 104.823C79.3314 105.624 76.9994 106.466 74.6122 107.328L74.5206 107.361L74.4823 107.272C73.7779 105.638 73.0326 103.909 72.2774 102.157C70.9518 99.0192 69.6631 95.9536 68.5507 92.936C68.4091 92.56 68.2846 92.1784 68.1554 91.8008C68.0942 91.6104 68.0571 91.4096 68.0075 91.2156C67.9571 91.0204 67.9123 90.8248 67.8975 90.6264C67.8495 90.2312 67.7955 89.8384 67.7947 89.4456C67.7767 89.0532 67.7651 88.6628 67.7827 88.2756C67.8159 86.7252 67.9699 85.2156 68.1655 83.752C68.5467 80.822 69.0651 78.0644 69.5375 75.4832C70.0187 72.9044 70.4671 70.5024 70.8767 68.3084C71.0635 67.21 71.2818 66.1668 71.5002 65.1828C71.6402 64.6984 71.7759 64.228 71.9075 63.772C72.0623 63.3232 72.2338 62.8956 72.3882 62.4788C73.0706 60.8364 73.9514 59.5388 74.8762 58.6892C75.7938 57.8284 76.6994 57.402 77.3262 57.2104C77.641 57.112 77.8907 57.0724 78.0579 57.0508C78.1375 57.0448 78.1998 57.0404 78.2482 57.0368C78.291 57.0364 78.3127 57.0396 78.3127 57.0396C78.3127 57.0396 78.2266 57.048 78.0606 57.072C77.8954 57.1004 77.6491 57.1468 77.3387 57.2504C76.7211 57.4536 75.8315 57.8872 74.9319 58.748C74.0251 59.5976 73.1631 60.8892 72.4955 62.5236C72.3451 62.9388 72.1766 63.364 72.0258 63.8104C71.8974 64.2644 71.7651 64.7328 71.6287 65.2148C71.4167 66.1944 71.2043 67.232 71.0215 68.3344C70.6195 70.53 70.1799 72.934 69.7075 75.5144C69.2427 78.0956 68.7311 80.8532 68.3559 83.7764C68.1631 85.2364 68.0127 86.7412 67.9815 88.2788C67.9643 88.6636 67.9767 89.0492 67.9947 89.4364C67.9959 89.8252 68.0494 90.21 68.0966 90.5972C68.1114 90.7928 68.1555 90.982 68.2043 91.1704C68.2531 91.3592 68.2879 91.5504 68.3483 91.7384C68.4771 92.1132 68.6007 92.4916 68.7423 92.8668C69.8539 95.8744 71.1442 98.9404 72.4686 102.076C73.223 103.827 73.9675 105.556 74.6715 107.189L74.5414 107.134C76.9294 106.274 79.2619 105.434 81.4835 104.635L81.4183 104.745C80.3611 97.9696 79.3962 91.7876 78.591 86.6272L78.5891 86.6132L78.5914 86.6C79.6158 81.1696 80.451 76.7416 81.0314 73.6636C81.325 72.1348 81.5543 70.9412 81.7115 70.1228C81.7911 69.7228 81.8518 69.4156 81.8946 69.2C81.9378 68.9916 81.9658 68.886 81.9658 68.886Z" fill="#263238"/>
<path d="M96.2705 59.9219C96.2801 59.9267 96.2233 60.0563 96.1097 60.2919C95.9789 60.5539 95.8113 60.8904 95.6065 61.3008C95.1465 62.19 94.5229 63.3964 93.7941 64.806L93.7233 64.9427L93.6317 64.8172C92.9869 63.9332 92.2461 62.976 91.4329 61.9992C89.8373 60.078 88.2549 58.4588 87.0705 57.3292C86.4805 56.762 85.9909 56.3156 85.6541 56.0052C85.3149 55.6976 85.1313 55.522 85.1405 55.5112C85.1497 55.5004 85.3509 55.6548 85.7073 55.944C86.0609 56.236 86.5669 56.6667 87.1713 57.2219C88.3845 58.3267 89.9909 59.9367 91.5929 61.8659C92.4097 62.8463 93.1485 63.8116 93.7869 64.7052L93.6249 64.7164C94.3805 63.3208 95.0273 62.1267 95.5041 61.2463C95.7281 60.8463 95.9121 60.5184 96.0553 60.2632C96.1857 60.0368 96.2609 59.9171 96.2705 59.9219Z" fill="#263238"/>
<path d="M98.0871 61.4096C98.1571 61.3848 98.5051 62.6512 98.2567 64.34L98.2131 64.6364L98.0663 64.364C97.9883 64.2192 97.9107 64.0656 97.8375 63.9068C97.4463 63.028 97.2359 62.1944 97.0199 61.6172C96.8131 61.0364 96.6415 60.6936 96.6695 60.678C96.6915 60.6648 96.9115 60.9872 97.1571 61.5636C97.4111 62.1356 97.6459 62.9668 98.0271 63.8204C98.0983 63.9752 98.1731 64.1248 98.2475 64.2656L98.0571 64.29C98.2063 63.5064 98.1663 62.7576 98.1535 62.2436C98.1359 61.7212 98.0663 61.4184 98.0871 61.4096Z" fill="#263238"/>
<path d="M96.6238 61.3608C96.6274 61.3608 96.6306 61.3988 96.633 61.4724C96.6346 61.558 96.6362 61.666 96.6386 61.7996C96.6422 62.0876 96.6406 62.512 96.633 63.0584C96.6178 64.1516 96.5702 65.7332 96.4634 67.6852C96.257 71.59 95.7806 76.9684 95.2922 82.9104C94.7842 88.8464 94.3246 94.2188 93.9906 98.126C93.815 100.06 93.6726 101.631 93.5722 102.735C93.5194 103.266 93.4778 103.685 93.4478 103.987C93.4326 104.12 93.4202 104.227 93.4102 104.312C93.4006 104.385 93.3938 104.422 93.3902 104.422C93.3866 104.422 93.3862 104.384 93.389 104.31C93.3934 104.224 93.399 104.117 93.4058 103.983C93.4262 103.681 93.455 103.261 93.491 102.728C93.5754 101.622 93.6954 100.05 93.8434 98.1132C94.1622 94.2048 94.6002 88.8304 95.0842 82.8924C95.5726 76.95 96.0722 71.5744 96.3158 67.6756C96.4414 65.7264 96.511 64.1472 96.5514 63.0556C96.5706 62.5216 96.5854 62.1012 96.5962 61.7984C96.6026 61.6644 96.6074 61.5568 96.6114 61.4712C96.6162 61.3984 96.6206 61.3608 96.6238 61.3608Z" fill="#263238"/>
<path d="M99.5312 73.0756C99.5884 73.0796 99.2785 78.1408 98.8389 84.3788C98.3989 90.6192 97.996 95.6728 97.9384 95.6688C97.8812 95.6648 98.1908 90.6044 98.6308 84.3644C99.0708 78.1264 99.474 73.0716 99.5312 73.0756Z" fill="#263238"/>
<path d="M83.3131 64.3868C83.2751 64.3888 83.2759 63.8892 83.0779 63.1228C82.8855 62.3612 82.4463 61.33 81.6319 60.4428C80.8167 59.5556 79.8263 59.0308 79.0839 58.7744C78.3371 58.512 77.8391 58.4704 77.8443 58.4328C77.8455 58.42 77.9703 58.4172 78.1947 58.4396C78.4191 58.4616 78.7419 58.5184 79.1299 58.6344C79.9015 58.8604 80.9403 59.382 81.7855 60.302C82.6299 61.222 83.0615 62.3008 83.2211 63.0888C83.3039 63.4848 83.3331 63.8116 83.3359 64.0372C83.3395 64.2624 83.3259 64.3864 83.3131 64.3868Z" fill="#263238"/>
<g opacity="0.3">
<path d="M98.2232 93.9908C99.7416 89.8916 100.026 85.3444 99.0312 81.0876C98.7584 85.422 98.4852 89.7564 98.2124 94.0908" fill="black"/>
</g>
<path d="M81.0992 73.406C81.0932 73.4192 80.9492 73.3707 80.694 73.2719C80.3968 73.1543 80.0376 73.0124 79.6164 72.8456C78.708 72.4832 77.45 71.9903 76.0512 71.4711C74.6516 70.9523 73.3768 70.5059 72.4516 70.1883C72.0236 70.0399 71.6588 69.9136 71.3568 69.8088C71.0988 69.7172 70.958 69.66 70.962 69.6464C70.966 69.6324 71.1148 69.6635 71.3804 69.7315C71.646 69.7991 72.028 69.9064 72.4968 70.0484C73.4352 70.3304 74.7212 70.7564 76.1236 71.276C77.5252 71.7964 78.7776 72.3119 79.6732 72.7099C80.1212 72.9083 80.4808 73.0755 80.7264 73.1979C80.972 73.3191 81.1052 73.3928 81.0992 73.406Z" fill="white"/>
<path d="M82.5416 61.6552C82.5312 61.6836 82.0852 61.5468 81.3644 61.3292C80.6436 61.1112 79.6464 60.8184 78.5352 60.5316C77.4232 60.2456 76.4084 60.0196 75.6724 59.8624C74.936 59.7048 74.4796 59.6092 74.4844 59.5792C74.4888 59.5524 74.954 59.5968 75.7 59.7176C76.4456 59.8384 77.4704 60.0424 78.5876 60.33C79.704 60.618 80.7 60.9348 81.4112 61.1892C82.122 61.4432 82.5512 61.6296 82.5416 61.6552Z" fill="white"/>
<path d="M87.3871 57.6868C87.3983 57.7432 85.8307 58.0964 83.8871 58.476C81.9427 58.8556 80.3579 59.1172 80.3467 59.0608C80.3359 59.0044 81.9027 58.6512 83.8471 58.2716C85.7907 57.892 87.3759 57.6304 87.3871 57.6868Z" fill="white"/>
<path d="M88.3707 53.6216C88.4167 53.6564 87.9839 54.3032 87.4043 55.0664C86.8247 55.8296 86.3175 56.42 86.2719 56.3852C86.2259 56.3504 86.6587 55.7036 87.2387 54.9404C87.8179 54.1772 88.3251 53.5868 88.3707 53.6216Z" fill="white"/>
<path d="M94.0569 58.4292C94.1041 58.4624 93.5961 59.2668 92.9225 60.226C92.2485 61.1856 91.6645 61.9364 91.6173 61.9032C91.5701 61.87 92.0781 61.0656 92.7521 60.1064C93.4257 59.1472 94.0101 58.396 94.0569 58.4292Z" fill="white"/>
<path d="M96.1137 70.8944C96.1117 70.9088 95.9129 70.8956 95.5549 70.86C95.1969 70.8248 94.6802 70.7636 94.0426 70.6808C92.7674 70.5152 91.0094 70.2544 89.077 69.9136C87.1438 69.572 85.403 69.216 84.1478 68.9348C83.5202 68.7944 83.0137 68.6748 82.6653 68.5856C82.3169 68.4968 82.1257 68.4412 82.1289 68.4268C82.1321 68.4128 82.3289 68.4416 82.6829 68.506C83.0753 68.5808 83.5774 68.676 84.1782 68.7904C85.4398 69.0344 87.1829 69.3672 89.1133 69.708C91.0433 70.048 92.7949 70.332 94.0637 70.5344C94.6673 70.6328 95.1718 70.7148 95.5662 70.7788C95.9206 70.84 96.1157 70.88 96.1137 70.8944Z" fill="white"/>
<path d="M99.5737 70.3436C99.5593 70.3992 98.8389 70.2604 97.9653 70.034C97.0909 69.8072 96.3945 69.5784 96.4089 69.5224C96.4233 69.4668 97.1433 69.6056 98.0177 69.8324C98.8913 70.0592 99.5881 70.288 99.5737 70.3436Z" fill="white"/>
<path d="M95.0582 85.2512C95.0482 85.308 91.5634 84.7472 87.2754 83.9992C82.9858 83.2508 79.5178 82.5988 79.5274 82.542C79.5374 82.4852 83.0214 83.0456 87.311 83.794C91.599 84.542 95.0678 85.1944 95.0582 85.2512Z" fill="white"/>
<path d="M98.6403 84.9236C98.6243 84.9808 97.8563 84.8096 96.9047 84.6348C95.9531 84.4572 95.1751 84.342 95.1807 84.2828C95.1851 84.2272 95.9803 84.2504 96.9427 84.43C97.9051 84.6072 98.6559 84.8704 98.6403 84.9236Z" fill="white"/>
<path d="M104.085 88.0976C104.035 88.1264 103.071 86.5436 101.933 84.5636C100.793 82.5828 99.9105 80.954 99.9605 80.9252C100.011 80.8964 100.974 82.4788 102.113 84.4596C103.252 86.44 104.135 88.0688 104.085 88.0976Z" fill="white"/>
<path d="M78.7083 85.23C78.6987 85.2868 76.3807 84.9436 73.5315 84.4636C70.6811 83.9836 68.3791 83.5484 68.3887 83.4916C68.3983 83.4348 70.7159 83.778 73.5663 84.258C76.4151 84.738 78.7179 85.1732 78.7083 85.23Z" fill="white"/>
<path d="M93.9507 97.5068C93.9499 97.5212 93.7547 97.5248 93.4015 97.5188C93.0483 97.514 92.5379 97.4936 91.9079 97.4568C90.6479 97.3836 88.9091 97.228 87.0015 96.9556C85.0935 96.6816 83.3807 96.3428 82.1507 96.0588C81.5355 95.9172 81.0399 95.7936 80.6999 95.6992C80.3595 95.6056 80.1731 95.5476 80.1763 95.5336C80.1799 95.5196 80.3727 95.5512 80.7183 95.6204C81.1035 95.698 81.5943 95.7968 82.1815 95.9148C83.4171 96.1612 85.1287 96.476 87.0311 96.7492C88.9331 97.0208 90.6639 97.1992 91.9191 97.31C92.5159 97.3616 93.0147 97.4044 93.4059 97.438C93.7571 97.4688 93.9511 97.4924 93.9507 97.5068Z" fill="white"/>
<path d="M97.9401 97.6624C97.9341 97.7196 97.0581 97.6468 95.9837 97.5C94.9089 97.3528 94.0457 97.188 94.0553 97.1312C94.0649 97.0744 94.9409 97.1472 96.0117 97.2936C97.0829 97.44 97.9461 97.6048 97.9401 97.6624Z" fill="white"/>
<path d="M80.7776 99.6212C80.7888 99.6464 80.3592 99.8696 79.6452 100.189C78.9316 100.509 77.9316 100.92 76.8076 101.323C75.6832 101.724 74.6488 102.041 73.8944 102.246C73.1396 102.452 72.666 102.551 72.6588 102.525C72.6508 102.496 73.1104 102.346 73.8524 102.105C74.5944 101.864 75.6176 101.527 76.738 101.127C77.8576 100.726 78.8624 100.338 79.5888 100.054C80.3152 99.7692 80.7656 99.5936 80.7776 99.6212Z" fill="white"/>
<g opacity="0.3">
<path d="M81.6787 70.4308C79.9007 79.6672 78.4567 88.4304 78.6579 87.218L81.5179 104.729L83.2063 107.23C81.7363 95.4784 80.5231 82.1348 81.6787 70.4308Z" fill="black"/>
</g>
<path d="M64.0473 67.7082L61.5821 63.3634C62.6725 61.593 63.3029 59.509 63.3029 57.2774C63.3029 50.859 58.1001 45.6562 51.6817 45.6562C45.2633 45.6562 40.0605 50.859 40.0605 57.2774C40.0605 63.6954 45.2633 68.8986 51.6817 68.8986C54.3617 68.8986 56.8277 67.989 58.7937 66.465L58.7897 66.4702L64.0473 67.7082Z" fill="#FAFAFA"/>
<path d="M64.0471 67.7082C63.7975 67.651 62.1331 67.271 58.7815 66.505L58.7275 66.4926L58.7611 66.4482L58.7651 66.443L58.8155 66.493C58.1523 67.0066 57.3583 67.5126 56.4251 67.9342C55.4903 68.3486 54.4195 68.687 53.2375 68.8446C52.6471 68.9202 52.0307 68.9686 51.3967 68.9378C51.0799 68.9198 50.7575 68.9122 50.4327 68.885C50.1099 68.8362 49.7823 68.7866 49.4503 68.7366C48.1339 68.477 46.7883 67.977 45.5331 67.1982C44.2787 66.4222 43.1171 65.3682 42.1859 64.073C41.2563 62.7802 40.5511 61.2474 40.2211 59.5818C39.8943 57.9182 39.9215 56.1354 40.3583 54.4102C40.7983 52.691 41.6199 51.011 42.8499 49.629L43.3247 49.1066C43.4807 48.931 43.6671 48.7862 43.8359 48.625C44.0131 48.4726 44.1727 48.3002 44.3631 48.1654L44.9211 47.7482C45.1019 47.6022 45.3007 47.4846 45.4987 47.3662C45.6959 47.2466 45.8923 47.127 46.0887 47.0082C46.2951 46.9082 46.5007 46.8082 46.7063 46.7086C46.9135 46.613 47.1127 46.5002 47.3295 46.4314C49.0183 45.761 50.8191 45.5058 52.5407 45.6306C54.2627 45.7546 55.9103 46.2486 57.3239 47.0442C58.7419 47.8334 59.9375 48.8874 60.8603 50.0646C61.7859 51.2422 62.4379 52.541 62.8419 53.8346C63.2431 55.1342 63.3515 56.423 63.3471 57.6158C63.3127 58.8118 63.0947 59.9134 62.7779 60.8802C62.4599 61.8486 62.0427 62.6814 61.6119 63.3818L61.6127 63.3466C63.1675 66.1322 63.9279 67.4942 64.0471 67.7082C63.9247 67.4962 63.1459 66.145 61.5519 63.3806L61.5419 63.363L61.5527 63.3454C61.9763 62.6462 62.3859 61.8162 62.6967 60.8538C63.0067 59.8926 63.2179 58.7986 63.2475 57.6126C63.2471 56.4294 63.1355 55.153 62.7347 53.8674C62.3311 52.5878 61.6819 51.3038 60.7635 50.1406C59.8479 48.9778 58.6631 47.9378 57.2603 47.1594C55.8615 46.375 54.2327 45.889 52.5307 45.7682C50.8291 45.6466 49.0503 45.9002 47.3827 46.563C47.1683 46.6306 46.9715 46.7426 46.7671 46.837C46.5643 46.9354 46.3611 47.0342 46.1571 47.1334C45.9635 47.251 45.7695 47.369 45.5747 47.4874C45.3791 47.6042 45.1823 47.7206 45.0043 47.865L44.4531 48.277C44.2651 48.4098 44.1075 48.5806 43.9327 48.731C43.7659 48.8902 43.5815 49.033 43.4275 49.2066L42.9587 49.7226C41.7435 51.0874 40.9319 52.7466 40.4963 54.4446C40.0639 56.1486 40.0355 57.9102 40.3567 59.5542C40.6811 61.2002 41.3759 62.7158 42.2931 63.9954C43.2119 65.277 44.3587 66.3218 45.5983 67.0926C46.8387 67.8658 48.1691 68.3638 49.4719 68.625C49.8003 68.6758 50.1247 68.7258 50.4443 68.775C50.7663 68.803 51.0855 68.8114 51.3991 68.8302C52.0271 68.863 52.6383 68.817 53.2239 68.7442C54.3963 68.5926 55.4599 68.2614 56.3895 67.8546C57.3179 67.4406 58.1095 66.9426 58.7719 66.4362L58.9883 66.2706L58.8223 66.4862L58.8183 66.4914L58.7983 66.435C62.1391 67.2454 63.7987 67.6478 64.0471 67.7082Z" fill="#263238"/>
<path d="M48.4066 57.2734C48.4066 57.9254 47.8782 58.4542 47.2262 58.4542C46.5742 58.4542 46.0454 57.9258 46.0454 57.2734C46.0454 56.6214 46.5738 56.093 47.2262 56.093C47.8778 56.093 48.4066 56.6214 48.4066 57.2734Z" fill="#263238"/>
<path d="M53.1308 57.2734C53.1308 57.9254 52.6024 58.4542 51.9504 58.4542C51.2984 58.4542 50.77 57.9258 50.77 57.2734C50.77 56.6214 51.2984 56.093 51.9504 56.093C52.602 56.093 53.1308 56.6214 53.1308 57.2734Z" fill="#263238"/>
<path d="M57.8433 56.683C58.1693 57.2478 57.9757 57.9698 57.4113 58.2958C56.8465 58.6218 56.1245 58.4282 55.7985 57.8638C55.4725 57.299 55.6661 56.577 56.2305 56.251C56.7953 55.925 57.5173 56.1186 57.8433 56.683Z" fill="#263238"/>
</svg>
