<svg width="30" height="30" viewBox="0 0 30 30" fill="none" xmlns="http://www.w3.org/2000/svg">
<path d="M2.9187 12.9208C2.52714 12.5587 2.73984 11.9041 3.26946 11.8413L10.7739 10.9512C10.9898 10.9256 11.1773 10.7901 11.2683 10.5927L14.4336 3.73046C14.657 3.24616 15.3455 3.24607 15.5688 3.73036L18.7341 10.5925C18.8252 10.7899 19.0114 10.9258 19.2273 10.9514L26.7322 11.8413C27.2618 11.9041 27.4739 12.5589 27.0823 12.921L21.5347 18.0523C21.3751 18.1998 21.3041 18.4195 21.3464 18.6327L22.8188 26.0448C22.9227 26.5679 22.366 26.9732 21.9006 26.7127L15.3064 23.0206C15.1168 22.9145 14.8863 22.915 14.6967 23.0211L8.1018 26.7118C7.63642 26.9723 7.07868 26.5679 7.18262 26.0448L8.65518 18.6332C8.69754 18.42 8.62667 18.1998 8.46709 18.0522L2.9187 12.9208Z" fill="#FBB800"/>
</svg>
